{
	"asset":{
		"generator":"Khronos glTF Blender I/O v4.3.47",
		"version":"2.0"
	},
	"scene":0,
	"scenes":[
		{
			"name":"Scene",
			"nodes":[
				55
			]
		}
	],
	"nodes":[
		{
			"name":"FaceBad",
			"translation":[
				0,
				8.428385734558105,
				-0.9233512878417969
			]
		},
		{
			"name":"FaceGood",
			"translation":[
				0,
				8.428385734558105,
				-0.9154818058013916
			]
		},
		{
			"name":"FaceNothing",
			"translation":[
				0,
				8.428385734558105,
				-0.9233512878417969
			]
		},
		{
			"children":[
				0,
				1,
				2
			],
			"name":"Mdl_Root"
		},
		{
			"name":"Hand_L",
			"rotation":[
				-5.329070518200751e-15,
				-3.552713678800501e-15,
				4.235164736271502e-22,
				1
			],
			"translation":[
				0.7491198182106018,
				4.293228812457528e-07,
				0.6293455362319946
			]
		},
		{
			"children":[
				4
			],
			"name":"Wrist_L",
			"rotation":[
				-5.329070518200751e-15,
				-3.552713678800501e-15,
				4.235164736271502e-22,
				1
			],
			"translation":[
				1.145371913909912,
				4.76837158203125e-07,
				1.0354045798521838e-07
			]
		},
		{
			"children":[
				5
			],
			"name":"Arm_2_L",
			"rotation":[
				-5.329070518200751e-15,
				-3.552713678800501e-15,
				4.235164736271502e-22,
				1
			],
			"translation":[
				0.9000005722045898,
				4.76837158203125e-07,
				8.13591327641916e-08
			]
		},
		{
			"children":[
				6
			],
			"name":"Arm_1_L_Sub",
			"rotation":[
				-5.329070518200751e-15,
				-3.552713678800501e-15,
				4.235164736271502e-22,
				1
			],
			"translation":[
				0.8000000715255737,
				4.76837158203125e-07,
				7.231925991391108e-08
			]
		},
		{
			"children":[
				7
			],
			"name":"Arm_1_L",
			"rotation":[
				-3.552713678800501e-15,
				4.960583055435563e-10,
				2.117582368135751e-22,
				1
			],
			"scale":[
				1,
				0.9999999403953552,
				1
			],
			"translation":[
				0.7000004053115845,
				-0.09999990463256836,
				6.85453471760411e-08
			]
		},
		{
			"children":[
				8
			],
			"name":"Clavicle_L",
			"rotation":[
				-2.5121476791422227e-15,
				-0.7071067094802856,
				-2.512147467383986e-15,
				0.7071068286895752
			],
			"translation":[
				3.9735226664561196e-08,
				0.8999996185302734,
				1.0000004768371582
			]
		},
		{
			"name":"Hand_R",
			"rotation":[
				-5.329070518200751e-15,
				7.105427357601002e-15,
				-4.235164736271502e-22,
				1
			],
			"translation":[
				-0.7490010857582092,
				4.2934908606184763e-07,
				0.6290000081062317
			]
		},
		{
			"children":[
				10
			],
			"name":"Wrist_R",
			"rotation":[
				-5.329070518200751e-15,
				7.105427357601002e-15,
				-4.235164736271502e-22,
				1
			],
			"translation":[
				-1.145371913909912,
				4.768372718899627e-07,
				-3.2428005170004326e-07
			]
		},
		{
			"children":[
				11
			],
			"name":"Arm_2_R",
			"rotation":[
				-5.329070518200751e-15,
				7.105427357601002e-15,
				-4.235164736271502e-22,
				1
			],
			"translation":[
				-0.900000810623169,
				4.768372718899627e-07,
				-2.548101178945217e-07
			]
		},
		{
			"children":[
				12
			],
			"name":"Arm_1_R_Sub",
			"rotation":[
				-5.329070518200751e-15,
				7.105427357601002e-15,
				-4.235164736271502e-22,
				1
			],
			"translation":[
				-0.8000015020370483,
				4.768372718899627e-07,
				-2.2649805941910017e-07
			]
		},
		{
			"children":[
				13
			],
			"name":"Arm_1_R",
			"rotation":[
				-3.552713678800501e-15,
				9.177643534030722e-09,
				-2.117582368135751e-22,
				1
			],
			"scale":[
				1,
				0.9999999403953552,
				1
			],
			"translation":[
				-0.7000005841255188,
				-0.10000038146972656,
				-1.944245866525307e-07
			]
		},
		{
			"children":[
				14
			],
			"name":"Clavicle_R",
			"rotation":[
				-2.512147467383986e-15,
				-0.7071066498756409,
				-2.5121476791422227e-15,
				0.70710688829422
			],
			"translation":[
				6.755355741461244e-08,
				0.9000005722045898,
				-0.9999995827674866
			]
		},
		{
			"name":"Ear_1_L",
			"rotation":[
				0,
				-7.105427357601002e-15,
				-3.552713678800501e-15,
				1
			],
			"translation":[
				0.5200004577636719,
				6.400001525878906,
				1.7500015497207642
			]
		},
		{
			"name":"Ear_1_R",
			"rotation":[
				5.293955920339377e-23,
				1.1920928244535389e-07,
				-3.552713678800501e-15,
				1
			],
			"translation":[
				0.5200003981590271,
				6.400001525878906,
				-1.7499994039535522
			]
		},
		{
			"name":"Mouth",
			"rotation":[
				-3.552714525833448e-15,
				-1,
				4.23516625088444e-22,
				1.9470718370939721e-07
			],
			"scale":[
				1,
				0.9999997019767761,
				1
			],
			"translation":[
				-2.000000476837158,
				0.19960960745811462,
				3.1184595172817353e-07
			]
		},
		{
			"name":"Mouth_U",
			"rotation":[
				0,
				-7.2121624725696165e-06,
				-3.552713678800501e-15,
				1
			],
			"translation":[
				-2.900000810623169,
				2.00000262260437,
				8.090290748441475e-07
			]
		},
		{
			"children":[
				18,
				19
			],
			"name":"FaceRoot",
			"rotation":[
				0,
				-7.105427357601002e-15,
				-3.552713678800501e-15,
				1
			],
			"translation":[
				2.4843842261201843e-14,
				9.536744300930877e-07,
				4.974520144765404e-14
			]
		},
		{
			"name":"Feel",
			"rotation":[
				-2.512147467383986e-15,
				-0.7071066498756409,
				-2.512147467383986e-15,
				0.70710688829422
			],
			"translation":[
				2.2432932667015848e-07,
				3.7636194229125977,
				7.851518830648274e-07
			]
		},
		{
			"children":[
				16,
				17,
				20,
				21
			],
			"name":"Head",
			"rotation":[
				0,
				-7.105427357601002e-15,
				-3.552713678800501e-15,
				1
			],
			"translation":[
				1.5705037270663524e-08,
				0.26348876953125,
				5.496797683690602e-08
			]
		},
		{
			"children":[
				22
			],
			"name":"Neck",
			"rotation":[
				0,
				-7.105427357601002e-15,
				-3.552713678800501e-15,
				1
			],
			"translation":[
				9.946889178991114e-08,
				1.668807029724121,
				3.481400767668674e-07
			]
		},
		{
			"children":[
				9,
				15,
				23
			],
			"name":"Spine_3",
			"rotation":[
				0,
				-7.105427357601002e-15,
				-3.552713678800501e-15,
				1
			],
			"translation":[
				1.0452232857005583e-07,
				1.7535924911499023,
				3.658279865703662e-07
			]
		},
		{
			"children":[
				24
			],
			"name":"Spine_2",
			"rotation":[
				-4.235164736271502e-22,
				2.524354896707238e-29,
				-3.552713678800501e-15,
				1
			],
			"translation":[
				1.0870316202726826e-07,
				1.8237366676330566,
				3.80460789983772e-07
			]
		},
		{
			"children":[
				25
			],
			"name":"Spine_1",
			"rotation":[
				0,
				0.7071066498756409,
				0,
				0.70710688829422
			],
			"scale":[
				0.9999999403953552,
				0.9999998807907104,
				0.9999999403953552
			],
			"translation":[
				1.705303650026413e-13,
				7.152557373046875e-07,
				-2.8421712818535796e-14
			]
		},
		{
			"name":"Toe_L",
			"rotation":[
				-4.235164736271502e-22,
				-5.960472293509156e-08,
				5.329070518200751e-15,
				1
			],
			"translation":[
				0.4888564646244049,
				-0.26522454619407654,
				-2.0416958079749747e-07
			]
		},
		{
			"children":[
				27
			],
			"name":"Ankle_L",
			"rotation":[
				-8.470329472543003e-22,
				4.470348358154297e-06,
				5.329070518200751e-15,
				1
			],
			"translation":[
				-0.017513472586870193,
				-0.8450785875320435,
				-2.3836662421672372e-07
			]
		},
		{
			"children":[
				28
			],
			"name":"Leg_2_L_Sub",
			"rotation":[
				1.3552527156068805e-20,
				-4.547473508864641e-13,
				5.329070518200751e-15,
				1
			],
			"translation":[
				-0.0002665240317583084,
				-0.27237415313720703,
				-2.702422250422387e-07
			]
		},
		{
			"children":[
				29
			],
			"name":"Leg_2_L",
			"rotation":[
				1.355252877165594e-20,
				-9.094947017729282e-13,
				3.552713678800501e-15,
				1
			],
			"scale":[
				1,
				0.9999999403953552,
				1
			],
			"translation":[
				0.0153054716065526,
				-1.3548048734664917,
				-5.109600351715926e-07
			]
		},
		{
			"children":[
				30
			],
			"name":"Leg_1_L_Sub",
			"rotation":[
				1.3552527156068805e-20,
				-4.410743713378906e-06,
				3.552713678800501e-15,
				1
			],
			"translation":[
				0.002468741498887539,
				-0.45402956008911133,
				-4.7635651867494744e-07
			]
		},
		{
			"children":[
				31
			],
			"name":"Leg_1_L",
			"rotation":[
				0,
				-5.960463766996327e-08,
				3.552713678800501e-15,
				1
			],
			"translation":[
				1.1000221888934902e-07,
				0.09777569770812988,
				-1.100000023841858
			]
		},
		{
			"name":"Toe_R",
			"rotation":[
				-3.552713678800501e-15,
				1,
				1.334076891925523e-20,
				4.3670324885169975e-06
			],
			"translation":[
				0.4888699948787689,
				-0.2651990056037903,
				-1.9887532687334897e-07
			]
		},
		{
			"children":[
				33
			],
			"name":"Ankle_R",
			"rotation":[
				1.2116903504194741e-27,
				-1.4305115882962127e-06,
				3.552713678800501e-15,
				1
			],
			"translation":[
				-0.017430828884243965,
				-0.8450826406478882,
				1.195235199702438e-07
			]
		},
		{
			"children":[
				34
			],
			"name":"Leg_2_R_Sub",
			"rotation":[
				-3.388130577326851e-21,
				0,
				3.552713678800501e-15,
				1
			],
			"translation":[
				-0.0002497560635674745,
				-0.27237534523010254,
				-7.186488915067457e-08
			]
		},
		{
			"children":[
				35
			],
			"name":"Leg_2_R",
			"rotation":[
				1.2116903504194741e-27,
				2.2737367544323206e-13,
				5.329070518200751e-15,
				1
			],
			"translation":[
				0.015336192212998867,
				-1.354804277420044,
				-7.119103173636177e-08
			]
		},
		{
			"children":[
				36
			],
			"name":"Leg_1_R_Sub",
			"rotation":[
				-6.829203137237796e-21,
				1.3709068298339844e-06,
				3.552713678800501e-15,
				1
			],
			"scale":[
				1,
				0.9999999403953552,
				1
			],
			"translation":[
				0.0024606348015367985,
				-0.4540286064147949,
				-1.1931685151012061e-07
			]
		},
		{
			"children":[
				37
			],
			"name":"Leg_1_R",
			"rotation":[
				1.0587911840678754e-22,
				-1.7881393432617188e-07,
				3.552713678800501e-15,
				1
			],
			"translation":[
				-1.2165817508957844e-07,
				0.0977773666381836,
				1.100000023841858
			]
		},
		{
			"name":"Z_Tail",
			"rotation":[
				0,
				-7.105427357601002e-15,
				-3.552713678800501e-15,
				1
			],
			"translation":[
				1.13289213180542,
				0.3331565856933594,
				-3.576097071800177e-07
			]
		},
		{
			"children":[
				39
			],
			"name":"S_Tail_3",
			"rotation":[
				0,
				-7.105427357601002e-15,
				-3.552713678800501e-15,
				1
			],
			"translation":[
				1.7676352262496948,
				0.6728447675704956,
				-5.898966719541932e-07
			]
		},
		{
			"children":[
				40
			],
			"name":"S_Tail_2",
			"rotation":[
				8.470330482284962e-22,
				5.960460924825384e-08,
				-3.552713678800501e-15,
				1
			],
			"translation":[
				1.3733315467834473,
				0.5101702213287354,
				-6.193978947521828e-07
			]
		},
		{
			"children":[
				41
			],
			"name":"S_Tail_1",
			"rotation":[
				-3.552713678800501e-15,
				1,
				4.235164736271502e-22,
				3.1391647326017846e-07
			],
			"translation":[
				-1.8524600267410278,
				0.6054531335830688,
				-3.4479538157938805e-07
			]
		},
		{
			"children":[
				42
			],
			"name":"TailRoot",
			"rotation":[
				0,
				1.4210854715202004e-14,
				3.552713678800501e-15,
				1
			],
			"translation":[
				-0.027027038857340813,
				0.11377429962158203,
				1.6861859464256668e-08
			]
		},
		{
			"children":[
				32,
				38,
				43
			],
			"name":"Waist",
			"rotation":[
				0,
				-0.7071066498756409,
				0,
				0.70710688829422
			],
			"scale":[
				0.9999999403953552,
				0.9999998807907104,
				0.9999999403953552
			],
			"translation":[
				0,
				2.3841860752327193e-07,
				-2.8421712818535796e-14
			]
		},
		{
			"children":[
				26,
				44
			],
			"name":"Skl_Root",
			"scale":[
				1,
				0.9999999403953552,
				1
			],
			"translation":[
				0,
				3.380242109298706,
				0
			]
		},
		{
			"children":[
				45
			],
			"name":"Trans_Root"
		},
		{
			"children":[
				46
			],
			"name":"Root"
		},
		{
			"children":[
				3,
				47
			],
			"name":"nw4f_root",
			"rotation":[
				-0.7071067690849304,
				0,
				0,
				0.7071067690849304
			]
		},
		{
			"mesh":0,
			"name":"Body__mBody",
			"skin":0
		},
		{
			"mesh":1,
			"name":"Body__mCapVis",
			"skin":0
		},
		{
			"mesh":2,
			"name":"Body__mEye",
			"skin":0
		},
		{
			"mesh":3,
			"name":"FaceBad__mBeak",
			"skin":0
		},
		{
			"mesh":4,
			"name":"FaceGood__mBeak",
			"skin":0
		},
		{
			"mesh":5,
			"name":"FaceNothing__mBeak",
			"skin":0
		},
		{
			"children":[
				49,
				50,
				51,
				52,
				53,
				54,
				48
			],
			"name":"Armature",
			"rotation":[
				0.7071068286895752,
				0,
				0,
				0.7071068286895752
			]
		}
	],
	"materials":[
		{
			"doubleSided":true,
			"name":"mBody.012",
			"pbrMetallicRoughness":{
				"baseColorTexture":{
					"index":0
				},
				"metallicFactor":0,
				"roughnessFactor":0.5
			}
		},
		{
			"doubleSided":true,
			"name":"mCapVis.005",
			"pbrMetallicRoughness":{
				"baseColorTexture":{
					"index":1
				},
				"metallicFactor":0,
				"roughnessFactor":0.5
			}
		},
		{
			"doubleSided":true,
			"name":"mEye.012",
			"pbrMetallicRoughness":{
				"baseColorTexture":{
					"index":2
				},
				"metallicFactor":0,
				"roughnessFactor":0.5
			}
		},
		{
			"doubleSided":true,
			"name":"mBeak.003",
			"pbrMetallicRoughness":{
				"baseColorTexture":{
					"index":3
				},
				"metallicFactor":0,
				"roughnessFactor":0.5
			}
		}
	],
	"meshes":[
		{
			"name":"Body__mBody.011",
			"primitives":[
				{
					"attributes":{
						"POSITION":0,
						"NORMAL":1,
						"TEXCOORD_0":2,
						"COLOR_0":3,
						"COLOR_1":4,
						"JOINTS_0":5,
						"WEIGHTS_0":6
					},
					"indices":7,
					"material":0
				}
			]
		},
		{
			"name":"Body__mCapVis.005",
			"primitives":[
				{
					"attributes":{
						"POSITION":9,
						"NORMAL":10,
						"TEXCOORD_0":11,
						"JOINTS_0":12,
						"WEIGHTS_0":13
					},
					"indices":14,
					"material":1
				}
			]
		},
		{
			"name":"Body__mEye.011",
			"primitives":[
				{
					"attributes":{
						"POSITION":15,
						"NORMAL":16,
						"TEXCOORD_0":17,
						"JOINTS_0":18,
						"WEIGHTS_0":19
					},
					"indices":20,
					"material":2
				}
			]
		},
		{
			"name":"FaceBad__mBeak.003",
			"primitives":[
				{
					"attributes":{
						"POSITION":21,
						"NORMAL":22,
						"TEXCOORD_0":23,
						"JOINTS_0":24,
						"WEIGHTS_0":25
					},
					"indices":26,
					"material":3
				}
			]
		},
		{
			"name":"FaceGood__mBeak.003",
			"primitives":[
				{
					"attributes":{
						"POSITION":27,
						"NORMAL":28,
						"TEXCOORD_0":29,
						"JOINTS_0":30,
						"WEIGHTS_0":31
					},
					"indices":32,
					"material":3
				}
			]
		},
		{
			"name":"FaceNothing__mBeak.003",
			"primitives":[
				{
					"attributes":{
						"POSITION":33,
						"NORMAL":34,
						"TEXCOORD_0":35,
						"JOINTS_0":36,
						"WEIGHTS_0":37
					},
					"indices":38,
					"material":3
				}
			]
		}
	],
	"textures":[
		{
			"sampler":0,
			"source":0
		},
		{
			"sampler":0,
			"source":0
		},
		{
			"sampler":0,
			"source":1
		},
		{
			"sampler":0,
			"source":2
		}
	],
	"images":[
		{
			"mimeType":"image/png",
			"name":"mBody_Alb",
			"uri":"mBody_Alb.png"
		},
		{
			"mimeType":"image/png",
			"name":"mEye_Alb.0",
			"uri":"mEye_Alb_0.png"
		},
		{
			"mimeType":"image/png",
			"name":"mBeak_Alb",
			"uri":"mBeak_Alb.png"
		}
	],
	"skins":[
		{
			"inverseBindMatrices":8,
			"joints":[
				48,
				3,
				0,
				1,
				2,
				47,
				46,
				45,
				26,
				25,
				24,
				9,
				8,
				7,
				6,
				5,
				4,
				15,
				14,
				13,
				12,
				11,
				10,
				23,
				22,
				16,
				17,
				20,
				18,
				19,
				21,
				44,
				32,
				31,
				30,
				29,
				28,
				27,
				38,
				37,
				36,
				35,
				34,
				33,
				43,
				42,
				41,
				40,
				39
			],
			"name":"Armature"
		}
	],
	"accessors":[
		{
			"bufferView":0,
			"componentType":5126,
			"count":1115,
			"max":[
				5.743696212768555,
				15.869019508361816,
				2.1766645908355713
			],
			"min":[
				-5.743696212768555,
				0.00987179484218359,
				-6.828332424163818
			],
			"type":"VEC3"
		},
		{
			"bufferView":1,
			"componentType":5126,
			"count":1115,
			"type":"VEC3"
		},
		{
			"bufferView":2,
			"componentType":5126,
			"count":1115,
			"type":"VEC2"
		},
		{
			"bufferView":3,
			"componentType":5121,
			"count":1115,
			"normalized":true,
			"type":"VEC4"
		},
		{
			"bufferView":4,
			"componentType":5123,
			"count":1115,
			"normalized":true,
			"type":"VEC4"
		},
		{
			"bufferView":5,
			"componentType":5121,
			"count":1115,
			"type":"VEC4"
		},
		{
			"bufferView":6,
			"componentType":5126,
			"count":1115,
			"type":"VEC4"
		},
		{
			"bufferView":7,
			"componentType":5123,
			"count":5364,
			"type":"SCALAR"
		},
		{
			"bufferView":8,
			"componentType":5126,
			"count":49,
			"type":"MAT4"
		},
		{
			"bufferView":9,
			"componentType":5126,
			"count":228,
			"max":[
				3.1210379600524902,
				16.901920318603516,
				0.27358266711235046
			],
			"min":[
				-3.1210379600524902,
				14.873589515686035,
				-1.0644482374191284
			],
			"type":"VEC3"
		},
		{
			"bufferView":10,
			"componentType":5126,
			"count":228,
			"type":"VEC3"
		},
		{
			"bufferView":11,
			"componentType":5126,
			"count":228,
			"type":"VEC2"
		},
		{
			"bufferView":12,
			"componentType":5121,
			"count":228,
			"type":"VEC4"
		},
		{
			"bufferView":13,
			"componentType":5126,
			"count":228,
			"type":"VEC4"
		},
		{
			"bufferView":14,
			"componentType":5123,
			"count":1158,
			"type":"SCALAR"
		},
		{
			"bufferView":15,
			"componentType":5126,
			"count":174,
			"max":[
				3.351125955581665,
				15.869019508361816,
				3.3732190132141113
			],
			"min":[
				-3.351125955581665,
				12.287049293518066,
				0.1709016114473343
			],
			"type":"VEC3"
		},
		{
			"bufferView":16,
			"componentType":5126,
			"count":174,
			"type":"VEC3"
		},
		{
			"bufferView":17,
			"componentType":5126,
			"count":174,
			"type":"VEC2"
		},
		{
			"bufferView":18,
			"componentType":5121,
			"count":174,
			"type":"VEC4"
		},
		{
			"bufferView":19,
			"componentType":5126,
			"count":174,
			"type":"VEC4"
		},
		{
			"bufferView":20,
			"componentType":5123,
			"count":924,
			"type":"SCALAR"
		},
		{
			"bufferView":21,
			"componentType":5126,
			"count":383,
			"max":[
				3.521692991256714,
				12.947239875793457,
				4.997367858886719
			],
			"min":[
				-3.521692991256714,
				8.719738006591797,
				0.03550977632403374
			],
			"type":"VEC3"
		},
		{
			"bufferView":22,
			"componentType":5126,
			"count":383,
			"type":"VEC3"
		},
		{
			"bufferView":23,
			"componentType":5126,
			"count":383,
			"type":"VEC2"
		},
		{
			"bufferView":24,
			"componentType":5121,
			"count":383,
			"type":"VEC4"
		},
		{
			"bufferView":25,
			"componentType":5126,
			"count":383,
			"type":"VEC4"
		},
		{
			"bufferView":26,
			"componentType":5123,
			"count":1830,
			"type":"SCALAR"
		},
		{
			"bufferView":27,
			"componentType":5126,
			"count":383,
			"max":[
				3.521692991256714,
				12.947239875793457,
				4.997367858886719
			],
			"min":[
				-3.521692991256714,
				8.588113784790039,
				0.03550978749990463
			],
			"type":"VEC3"
		},
		{
			"bufferView":28,
			"componentType":5126,
			"count":383,
			"type":"VEC3"
		},
		{
			"bufferView":29,
			"componentType":5126,
			"count":383,
			"type":"VEC2"
		},
		{
			"bufferView":30,
			"componentType":5121,
			"count":383,
			"type":"VEC4"
		},
		{
			"bufferView":31,
			"componentType":5126,
			"count":383,
			"type":"VEC4"
		},
		{
			"bufferView":32,
			"componentType":5123,
			"count":1830,
			"type":"SCALAR"
		},
		{
			"bufferView":33,
			"componentType":5126,
			"count":384,
			"max":[
				3.521692991256714,
				12.947239875793457,
				4.997367858886719
			],
			"min":[
				-3.521692991256714,
				8.516349792480469,
				0.03550978749990463
			],
			"type":"VEC3"
		},
		{
			"bufferView":34,
			"componentType":5126,
			"count":384,
			"type":"VEC3"
		},
		{
			"bufferView":35,
			"componentType":5126,
			"count":384,
			"type":"VEC2"
		},
		{
			"bufferView":36,
			"componentType":5121,
			"count":384,
			"type":"VEC4"
		},
		{
			"bufferView":37,
			"componentType":5126,
			"count":384,
			"type":"VEC4"
		},
		{
			"bufferView":38,
			"componentType":5123,
			"count":1830,
			"type":"SCALAR"
		}
	],
	"bufferViews":[
		{
			"buffer":0,
			"byteLength":13380,
			"byteOffset":0,
			"target":34962
		},
		{
			"buffer":0,
			"byteLength":13380,
			"byteOffset":13380,
			"target":34962
		},
		{
			"buffer":0,
			"byteLength":8920,
			"byteOffset":26760,
			"target":34962
		},
		{
			"buffer":0,
			"byteLength":4460,
			"byteOffset":35680,
			"target":34962
		},
		{
			"buffer":0,
			"byteLength":8920,
			"byteOffset":40140,
			"target":34962
		},
		{
			"buffer":0,
			"byteLength":4460,
			"byteOffset":49060,
			"target":34962
		},
		{
			"buffer":0,
			"byteLength":17840,
			"byteOffset":53520,
			"target":34962
		},
		{
			"buffer":0,
			"byteLength":10728,
			"byteOffset":71360,
			"target":34963
		},
		{
			"buffer":0,
			"byteLength":3136,
			"byteOffset":82088
		},
		{
			"buffer":0,
			"byteLength":2736,
			"byteOffset":85224,
			"target":34962
		},
		{
			"buffer":0,
			"byteLength":2736,
			"byteOffset":87960,
			"target":34962
		},
		{
			"buffer":0,
			"byteLength":1824,
			"byteOffset":90696,
			"target":34962
		},
		{
			"buffer":0,
			"byteLength":912,
			"byteOffset":92520,
			"target":34962
		},
		{
			"buffer":0,
			"byteLength":3648,
			"byteOffset":93432,
			"target":34962
		},
		{
			"buffer":0,
			"byteLength":2316,
			"byteOffset":97080,
			"target":34963
		},
		{
			"buffer":0,
			"byteLength":2088,
			"byteOffset":99396,
			"target":34962
		},
		{
			"buffer":0,
			"byteLength":2088,
			"byteOffset":101484,
			"target":34962
		},
		{
			"buffer":0,
			"byteLength":1392,
			"byteOffset":103572,
			"target":34962
		},
		{
			"buffer":0,
			"byteLength":696,
			"byteOffset":104964,
			"target":34962
		},
		{
			"buffer":0,
			"byteLength":2784,
			"byteOffset":105660,
			"target":34962
		},
		{
			"buffer":0,
			"byteLength":1848,
			"byteOffset":108444,
			"target":34963
		},
		{
			"buffer":0,
			"byteLength":4596,
			"byteOffset":110292,
			"target":34962
		},
		{
			"buffer":0,
			"byteLength":4596,
			"byteOffset":114888,
			"target":34962
		},
		{
			"buffer":0,
			"byteLength":3064,
			"byteOffset":119484,
			"target":34962
		},
		{
			"buffer":0,
			"byteLength":1532,
			"byteOffset":122548,
			"target":34962
		},
		{
			"buffer":0,
			"byteLength":6128,
			"byteOffset":124080,
			"target":34962
		},
		{
			"buffer":0,
			"byteLength":3660,
			"byteOffset":130208,
			"target":34963
		},
		{
			"buffer":0,
			"byteLength":4596,
			"byteOffset":133868,
			"target":34962
		},
		{
			"buffer":0,
			"byteLength":4596,
			"byteOffset":138464,
			"target":34962
		},
		{
			"buffer":0,
			"byteLength":3064,
			"byteOffset":143060,
			"target":34962
		},
		{
			"buffer":0,
			"byteLength":1532,
			"byteOffset":146124,
			"target":34962
		},
		{
			"buffer":0,
			"byteLength":6128,
			"byteOffset":147656,
			"target":34962
		},
		{
			"buffer":0,
			"byteLength":3660,
			"byteOffset":153784,
			"target":34963
		},
		{
			"buffer":0,
			"byteLength":4608,
			"byteOffset":157444,
			"target":34962
		},
		{
			"buffer":0,
			"byteLength":4608,
			"byteOffset":162052,
			"target":34962
		},
		{
			"buffer":0,
			"byteLength":3072,
			"byteOffset":166660,
			"target":34962
		},
		{
			"buffer":0,
			"byteLength":1536,
			"byteOffset":169732,
			"target":34962
		},
		{
			"buffer":0,
			"byteLength":6144,
			"byteOffset":171268,
			"target":34962
		},
		{
			"buffer":0,
			"byteLength":3660,
			"byteOffset":177412,
			"target":34963
		}
	],
	"samplers":[
		{
			"magFilter":9729,
			"minFilter":9987
		}
	],
	"buffers":[
		{
			"byteLength":181072,
			"uri":"Katya.bin"
		}
	]
}
