{
	"asset":{
		"generator":"Khronos glTF Blender I/O v4.3.47",
		"version":"2.0"
	},
	"scene":0,
	"scenes":[
		{
			"name":"Scene",
			"nodes":[
				0,
				1,
				2
			]
		}
	],
	"nodes":[
		{
			"mesh":0,
			"name":"Body__mBody",
			"rotation":[
				0.7071068286895752,
				0,
				0,
				0.7071068286895752
			]
		},
		{
			"mesh":1,
			"name":"Body__mEye",
			"rotation":[
				0.7071068286895752,
				0,
				0,
				0.7071068286895752
			]
		},
		{
			"mesh":2,
			"name":"Body__mMouth",
			"rotation":[
				0.7071068286895752,
				0,
				0,
				0.7071068286895752
			]
		}
	],
	"materials":[
		{
			"doubleSided":true,
			"name":"mBody",
			"pbrMetallicRoughness":{
				"baseColorTexture":{
					"index":0
				},
				"metallicFactor":0,
				"roughnessFactor":0.5
			}
		},
		{
			"doubleSided":true,
			"name":"mEye",
			"pbrMetallicRoughness":{
				"baseColorTexture":{
					"index":1
				},
				"metallicFactor":0,
				"roughnessFactor":0.5
			}
		},
		{
			"doubleSided":true,
			"name":"mMouth",
			"pbrMetallicRoughness":{
				"baseColorTexture":{
					"index":2
				},
				"metallicFactor":0,
				"roughnessFactor":0.5
			}
		}
	],
	"meshes":[
		{
			"name":"Body__mBody",
			"primitives":[
				{
					"attributes":{
						"POSITION":0,
						"NORMAL":1,
						"TEXCOORD_0":2,
						"COLOR_0":3,
						"COLOR_1":4
					},
					"indices":5,
					"material":0
				}
			]
		},
		{
			"name":"Body__mEye",
			"primitives":[
				{
					"attributes":{
						"POSITION":6,
						"NORMAL":7,
						"TEXCOORD_0":8
					},
					"indices":9,
					"material":1
				}
			]
		},
		{
			"name":"Body__mMouth",
			"primitives":[
				{
					"attributes":{
						"POSITION":10,
						"NORMAL":11,
						"TEXCOORD_0":12
					},
					"indices":13,
					"material":2
				}
			]
		}
	],
	"textures":[
		{
			"sampler":0,
			"source":0
		},
		{
			"sampler":0,
			"source":1
		},
		{
			"sampler":0,
			"source":2
		}
	],
	"images":[
		{
			"mimeType":"image/png",
			"name":"mBody_Alb",
			"uri":"mBody_Alb.png"
		},
		{
			"mimeType":"image/png",
			"name":"mEye_Alb.0",
			"uri":"mEye_Alb_0.png"
		},
		{
			"mimeType":"image/png",
			"name":"mMouth_Alb.0",
			"uri":"mMouth_Alb_0.png"
		}
	],
	"accessors":[
		{
			"bufferView":0,
			"componentType":5126,
			"count":911,
			"max":[
				3.3910911083221436,
				1.166627049446106,
				-0.008526436984539032
			],
			"min":[
				-3.3910911083221436,
				-2.9821159839630127,
				-10.881059646606445
			],
			"type":"VEC3"
		},
		{
			"bufferView":1,
			"componentType":5126,
			"count":911,
			"type":"VEC3"
		},
		{
			"bufferView":2,
			"componentType":5126,
			"count":911,
			"type":"VEC2"
		},
		{
			"bufferView":3,
			"componentType":5121,
			"count":911,
			"normalized":true,
			"type":"VEC4"
		},
		{
			"bufferView":4,
			"componentType":5123,
			"count":911,
			"normalized":true,
			"type":"VEC4"
		},
		{
			"bufferView":5,
			"componentType":5123,
			"count":4224,
			"type":"SCALAR"
		},
		{
			"bufferView":6,
			"componentType":5126,
			"count":163,
			"max":[
				2.8385488986968994,
				2.3467679023742676,
				-8.170307159423828
			],
			"min":[
				-2.8385488986968994,
				-0.6828058362007141,
				-10.93567943572998
			],
			"type":"VEC3"
		},
		{
			"bufferView":7,
			"componentType":5126,
			"count":163,
			"type":"VEC3"
		},
		{
			"bufferView":8,
			"componentType":5126,
			"count":163,
			"type":"VEC2"
		},
		{
			"bufferView":9,
			"componentType":5123,
			"count":834,
			"type":"SCALAR"
		},
		{
			"bufferView":10,
			"componentType":5126,
			"count":143,
			"max":[
				3.3910911083221436,
				3.0538179874420166,
				-4.183248996734619
			],
			"min":[
				-3.3910911083221436,
				-0.010358739644289017,
				-8.234461784362793
			],
			"type":"VEC3"
		},
		{
			"bufferView":11,
			"componentType":5126,
			"count":143,
			"type":"VEC3"
		},
		{
			"bufferView":12,
			"componentType":5126,
			"count":143,
			"type":"VEC2"
		},
		{
			"bufferView":13,
			"componentType":5123,
			"count":732,
			"type":"SCALAR"
		}
	],
	"bufferViews":[
		{
			"buffer":0,
			"byteLength":10932,
			"byteOffset":0,
			"target":34962
		},
		{
			"buffer":0,
			"byteLength":10932,
			"byteOffset":10932,
			"target":34962
		},
		{
			"buffer":0,
			"byteLength":7288,
			"byteOffset":21864,
			"target":34962
		},
		{
			"buffer":0,
			"byteLength":3644,
			"byteOffset":29152,
			"target":34962
		},
		{
			"buffer":0,
			"byteLength":7288,
			"byteOffset":32796,
			"target":34962
		},
		{
			"buffer":0,
			"byteLength":8448,
			"byteOffset":40084,
			"target":34963
		},
		{
			"buffer":0,
			"byteLength":1956,
			"byteOffset":48532,
			"target":34962
		},
		{
			"buffer":0,
			"byteLength":1956,
			"byteOffset":50488,
			"target":34962
		},
		{
			"buffer":0,
			"byteLength":1304,
			"byteOffset":52444,
			"target":34962
		},
		{
			"buffer":0,
			"byteLength":1668,
			"byteOffset":53748,
			"target":34963
		},
		{
			"buffer":0,
			"byteLength":1716,
			"byteOffset":55416,
			"target":34962
		},
		{
			"buffer":0,
			"byteLength":1716,
			"byteOffset":57132,
			"target":34962
		},
		{
			"buffer":0,
			"byteLength":1144,
			"byteOffset":58848,
			"target":34962
		},
		{
			"buffer":0,
			"byteLength":1464,
			"byteOffset":59992,
			"target":34963
		}
	],
	"samplers":[
		{
			"magFilter":9729,
			"minFilter":9987
		}
	],
	"buffers":[
		{
			"byteLength":61456,
			"uri":"frog.bin"
		}
	]
}
