{
	"asset":{
		"generator":"Khronos glTF Blender I/O v4.3.47",
		"version":"2.0"
	},
	"scene":0,
	"scenes":[
		{
			"name":"Scene",
			"nodes":[
				51
			]
		}
	],
	"nodes":[
		{
			"name":"FaceBad",
			"translation":[
				0,
				8.790291786193848,
				4.476233959197998
			]
		},
		{
			"name":"FaceGood",
			"translation":[
				0,
				8.790291786193848,
				4.476233959197998
			]
		},
		{
			"name":"FaceNothing",
			"translation":[
				0,
				8.790291786193848,
				4.476233959197998
			]
		},
		{
			"children":[
				0,
				1,
				2
			],
			"name":"Mdl_Root"
		},
		{
			"name":"Hand_L",
			"translation":[
				-0.15065062046051025,
				-7.284550207486973e-08,
				0.9648677706718445
			]
		},
		{
			"children":[
				4
			],
			"name":"Wrist_L",
			"translation":[
				1.0800001621246338,
				-1.5987211554602254e-14,
				9.763098773873935e-08
			]
		},
		{
			"children":[
				5
			],
			"name":"Arm_2_L",
			"translation":[
				1.0000004768371582,
				8.881784197001252e-16,
				9.039924009357492e-08
			]
		},
		{
			"children":[
				6
			],
			"name":"Arm_1_L_Sub",
			"translation":[
				1.0444055795669556,
				1.687538997430238e-14,
				9.441328074899502e-08
			]
		},
		{
			"children":[
				7
			],
			"name":"Arm_1_L",
			"rotation":[
				0,
				4.960618582572351e-10,
				0,
				1
			],
			"translation":[
				0.413822740316391,
				3.2862601528904634e-14,
				3.699863526662739e-08
			]
		},
		{
			"children":[
				8
			],
			"name":"Clavicle_L",
			"rotation":[
				0,
				-0.7071067094802856,
				0,
				0.7071068286895752
			],
			"translation":[
				4.019435095869994e-08,
				0.7511239051818848,
				0.3290002942085266
			]
		},
		{
			"name":"Hand_R",
			"translation":[
				0.15099988877773285,
				-7.285540704060622e-08,
				0.9650002717971802
			]
		},
		{
			"children":[
				10
			],
			"name":"Wrist_R",
			"translation":[
				-1.080000400543213,
				8.881784197001252e-14,
				-3.057717492538359e-07
			]
		},
		{
			"children":[
				11
			],
			"name":"Arm_2_R",
			"translation":[
				-1.0000004768371582,
				7.72715225139109e-14,
				-2.831220911048149e-07
			]
		},
		{
			"children":[
				12
			],
			"name":"Arm_1_R_Sub",
			"translation":[
				-1.044410228729248,
				6.572520305780927e-14,
				-2.956955427180219e-07
			]
		},
		{
			"children":[
				13
			],
			"name":"Arm_1_R",
			"rotation":[
				0,
				9.177639981317043e-09,
				0,
				1
			],
			"translation":[
				-0.41400018334388733,
				5.417888360170764e-14,
				-1.096134596423326e-07
			]
		},
		{
			"children":[
				14
			],
			"name":"Clavicle_R",
			"rotation":[
				0,
				-0.7071066498756409,
				0,
				0.70710688829422
			],
			"translation":[
				4.9346517982939986e-08,
				0.7511234283447266,
				-0.32899999618530273
			]
		},
		{
			"name":"Mouth",
			"rotation":[
				0,
				-1,
				0,
				1.9470718370939721e-07
			],
			"translation":[
				-3.200000762939453,
				2.7958648204803467,
				1.0155903282793588e-06
			]
		},
		{
			"name":"Mouth_U",
			"rotation":[
				0,
				-1,
				0,
				1.9470718370939721e-07
			],
			"translation":[
				-3.200000762939453,
				2.7958648204803467,
				1.0155903282793588e-06
			]
		},
		{
			"children":[
				16,
				17
			],
			"name":"FaceRoot",
			"translation":[
				-4.992493506279783e-15,
				4.973799150320701e-14,
				1.766740643756662e-14
			]
		},
		{
			"name":"Feel",
			"rotation":[
				0,
				-0.7071066498756409,
				0,
				0.70710688829422
			],
			"translation":[
				2.0481662943439005e-07,
				3.436250686645508,
				7.168575848481851e-07
			]
		},
		{
			"children":[
				18,
				19
			],
			"name":"Head",
			"translation":[
				6.633067872741094e-09,
				0.11128425598144531,
				2.3215438460510995e-08
			]
		},
		{
			"children":[
				20
			],
			"name":"Neck",
			"translation":[
				6.437303312623044e-08,
				1.080000400543213,
				2.2530558396738343e-07
			]
		},
		{
			"children":[
				9,
				15,
				21
			],
			"name":"Spine_3",
			"translation":[
				5.960468030252741e-08,
				1,
				2.0861631355728605e-07
			]
		},
		{
			"children":[
				22
			],
			"name":"Spine_2",
			"translation":[
				7.05941047840497e-08,
				1.1843719482421875,
				2.4707927082090464e-07
			]
		},
		{
			"children":[
				23
			],
			"name":"Spine_1",
			"rotation":[
				0,
				0.7071066498756409,
				0,
				0.70710688829422
			],
			"translation":[
				1.136869054842518e-13,
				-2.3841856489070778e-07,
				1.4210854715202004e-14
			]
		},
		{
			"name":"Toe_L",
			"translation":[
				0.5000001192092896,
				-0.2051994800567627,
				-0.20000001788139343
			]
		},
		{
			"children":[
				25
			],
			"name":"Ankle_L",
			"translation":[
				1.2659327694564126e-05,
				-0.6540608406066895,
				-1.806002813964369e-07
			]
		},
		{
			"children":[
				26
			],
			"name":"Leg_2_L_Sub",
			"translation":[
				1.1987431491888856e-08,
				-0.2107630968093872,
				-6.139345032352139e-08
			]
		},
		{
			"children":[
				27
			],
			"name":"Leg_2_L",
			"translation":[
				6.235852367808548e-08,
				-1.0484131574630737,
				-1.8060273987430264e-07
			]
		},
		{
			"children":[
				28
			],
			"name":"Leg_1_L_Sub",
			"rotation":[
				0,
				-5.960464477539063e-08,
				0,
				1
			],
			"translation":[
				1.9731757561203267e-08,
				-0.3513331413269043,
				-1.8169795623634855e-07
			]
		},
		{
			"children":[
				29
			],
			"name":"Leg_1_L",
			"translation":[
				-0.009187065996229649,
				0.07565855979919434,
				-0.5799999833106995
			]
		},
		{
			"name":"Toe_R",
			"rotation":[
				0,
				1,
				0,
				7.549790126404332e-08
			],
			"translation":[
				0.5000001788139343,
				-0.20519942045211792,
				0.20000021159648895
			]
		},
		{
			"children":[
				31
			],
			"name":"Ankle_R",
			"rotation":[
				0,
				-1.7763568394002505e-15,
				0,
				1
			],
			"translation":[
				1.2584789146785624e-05,
				-0.6540629863739014,
				-1.7841290400610887e-07
			]
		},
		{
			"children":[
				32
			],
			"name":"Leg_2_R_Sub",
			"translation":[
				-1.9710725496224768e-08,
				-0.21076321601867676,
				-5.920306023199373e-08
			]
		},
		{
			"children":[
				33
			],
			"name":"Leg_2_R",
			"translation":[
				-9.599948214145115e-08,
				-1.0484132766723633,
				-2.380169945581656e-07
			]
		},
		{
			"children":[
				34
			],
			"name":"Leg_1_R_Sub",
			"rotation":[
				0,
				3.552713678800501e-15,
				0,
				1
			],
			"translation":[
				-3.26789511007064e-08,
				-0.351332426071167,
				4.015783261479555e-10
			]
		},
		{
			"children":[
				35
			],
			"name":"Leg_1_R",
			"rotation":[
				0,
				-1.7881393432617188e-07,
				0,
				1
			],
			"translation":[
				-0.009187187999486923,
				0.07565999031066895,
				0.5799999833106995
			]
		},
		{
			"name":"Z_Tail",
			"translation":[
				1.9710992574691772,
				-0.6641591787338257,
				-3.6271953263167234e-07
			]
		},
		{
			"children":[
				37
			],
			"name":"Tail_2",
			"rotation":[
				0,
				-5.960464477539063e-08,
				0,
				1
			],
			"translation":[
				1.3782594203948975,
				-0.40000155568122864,
				-1.0275969941631047e-07
			]
		},
		{
			"children":[
				38
			],
			"name":"Tail_1",
			"rotation":[
				0,
				1,
				0,
				1.9470718370939721e-07
			],
			"translation":[
				-1.3217418193817139,
				0.48437270522117615,
				-2.3508674473760038e-07
			]
		},
		{
			"children":[
				39
			],
			"name":"TailRoot",
			"translation":[
				0,
				1.509903313490213e-14,
				0
			]
		},
		{
			"children":[
				30,
				36,
				40
			],
			"name":"Waist",
			"rotation":[
				0,
				-0.7071066498756409,
				0,
				0.70710688829422
			],
			"translation":[
				0,
				1.509903313490213e-14,
				0
			]
		},
		{
			"children":[
				24,
				41
			],
			"name":"Skl_Root",
			"translation":[
				0,
				2.6156280040740967,
				0
			]
		},
		{
			"children":[
				42
			],
			"name":"Trans_Root"
		},
		{
			"children":[
				43
			],
			"name":"Root"
		},
		{
			"children":[
				3,
				44
			],
			"name":"nw4f_root",
			"rotation":[
				-0.7071067690849304,
				0,
				0,
				0.7071067690849304
			]
		},
		{
			"mesh":0,
			"name":"Body__mBody",
			"skin":0
		},
		{
			"mesh":1,
			"name":"Body__mEye",
			"skin":0
		},
		{
			"mesh":2,
			"name":"FaceBad__mBeak",
			"skin":0
		},
		{
			"mesh":3,
			"name":"FaceGood__mBeak",
			"skin":0
		},
		{
			"mesh":4,
			"name":"FaceNothing__mBeak",
			"skin":0
		},
		{
			"children":[
				46,
				47,
				48,
				49,
				50,
				45
			],
			"name":"Armature",
			"rotation":[
				0.7071068286895752,
				0,
				0,
				0.7071068286895752
			]
		}
	],
	"materials":[
		{
			"doubleSided":true,
			"name":"mBody",
			"pbrMetallicRoughness":{
				"baseColorTexture":{
					"index":0
				},
				"metallicFactor":0,
				"roughnessFactor":0.5
			}
		},
		{
			"doubleSided":true,
			"name":"mEye",
			"pbrMetallicRoughness":{
				"baseColorTexture":{
					"index":1
				},
				"metallicFactor":0,
				"roughnessFactor":0.5
			}
		},
		{
			"doubleSided":true,
			"name":"mBeak",
			"pbrMetallicRoughness":{
				"baseColorTexture":{
					"index":2
				},
				"metallicFactor":0,
				"roughnessFactor":0.5
			}
		}
	],
	"meshes":[
		{
			"name":"Body__mBody",
			"primitives":[
				{
					"attributes":{
						"POSITION":0,
						"NORMAL":1,
						"TEXCOORD_0":2,
						"COLOR_0":3,
						"COLOR_1":4,
						"JOINTS_0":5,
						"WEIGHTS_0":6
					},
					"indices":7,
					"material":0
				}
			]
		},
		{
			"name":"Body__mEye",
			"primitives":[
				{
					"attributes":{
						"POSITION":9,
						"NORMAL":10,
						"TEXCOORD_0":11,
						"JOINTS_0":12,
						"WEIGHTS_0":13
					},
					"indices":14,
					"material":1
				}
			]
		},
		{
			"name":"FaceBad__mBeak",
			"primitives":[
				{
					"attributes":{
						"POSITION":15,
						"NORMAL":16,
						"TEXCOORD_0":17,
						"JOINTS_0":18,
						"WEIGHTS_0":19
					},
					"indices":20,
					"material":2
				}
			]
		},
		{
			"name":"FaceGood__mBeak",
			"primitives":[
				{
					"attributes":{
						"POSITION":21,
						"NORMAL":22,
						"TEXCOORD_0":23,
						"JOINTS_0":24,
						"WEIGHTS_0":25
					},
					"indices":26,
					"material":2
				}
			]
		},
		{
			"name":"FaceNothing__mBeak",
			"primitives":[
				{
					"attributes":{
						"POSITION":27,
						"NORMAL":28,
						"TEXCOORD_0":29,
						"JOINTS_0":30,
						"WEIGHTS_0":31
					},
					"indices":32,
					"material":2
				}
			]
		}
	],
	"textures":[
		{
			"sampler":0,
			"source":0
		},
		{
			"sampler":0,
			"source":1
		},
		{
			"sampler":0,
			"source":2
		}
	],
	"images":[
		{
			"mimeType":"image/png",
			"name":"mBody_Alb",
			"uri":"mBody_Alb.png"
		},
		{
			"mimeType":"image/png",
			"name":"mEye_Alb.0",
			"uri":"mEye_Alb_0.png"
		},
		{
			"mimeType":"image/png",
			"name":"mBeak_Alb",
			"uri":"mBeak_Alb.png"
		}
	],
	"skins":[
		{
			"inverseBindMatrices":8,
			"joints":[
				45,
				3,
				0,
				1,
				2,
				44,
				43,
				42,
				24,
				23,
				22,
				9,
				8,
				7,
				6,
				5,
				4,
				15,
				14,
				13,
				12,
				11,
				10,
				21,
				20,
				18,
				16,
				17,
				19,
				41,
				30,
				29,
				28,
				27,
				26,
				25,
				36,
				35,
				34,
				33,
				32,
				31,
				40,
				39,
				38,
				37
			],
			"name":"Armature"
		}
	],
	"accessors":[
		{
			"bufferView":0,
			"componentType":5126,
			"count":1469,
			"max":[
				4.30053186416626,
				12.508709907531738,
				3.190321445465088
			],
			"min":[
				-4.30053186416626,
				-2.304997792634822e-08,
				-4.664569854736328
			],
			"type":"VEC3"
		},
		{
			"bufferView":1,
			"componentType":5126,
			"count":1469,
			"type":"VEC3"
		},
		{
			"bufferView":2,
			"componentType":5126,
			"count":1469,
			"type":"VEC2"
		},
		{
			"bufferView":3,
			"componentType":5121,
			"count":1469,
			"normalized":true,
			"type":"VEC4"
		},
		{
			"bufferView":4,
			"componentType":5123,
			"count":1469,
			"normalized":true,
			"type":"VEC4"
		},
		{
			"bufferView":5,
			"componentType":5121,
			"count":1469,
			"type":"VEC4"
		},
		{
			"bufferView":6,
			"componentType":5126,
			"count":1469,
			"type":"VEC4"
		},
		{
			"bufferView":7,
			"componentType":5123,
			"count":6894,
			"type":"SCALAR"
		},
		{
			"bufferView":8,
			"componentType":5126,
			"count":46,
			"type":"MAT4"
		},
		{
			"bufferView":9,
			"componentType":5126,
			"count":104,
			"max":[
				3.354135036468506,
				11.73567008972168,
				3.0427942276000977
			],
			"min":[
				-3.354135036468506,
				8.596376419067383,
				-0.500810980796814
			],
			"type":"VEC3"
		},
		{
			"bufferView":10,
			"componentType":5126,
			"count":104,
			"type":"VEC3"
		},
		{
			"bufferView":11,
			"componentType":5126,
			"count":104,
			"type":"VEC2"
		},
		{
			"bufferView":12,
			"componentType":5121,
			"count":104,
			"type":"VEC4"
		},
		{
			"bufferView":13,
			"componentType":5126,
			"count":104,
			"type":"VEC4"
		},
		{
			"bufferView":14,
			"componentType":5123,
			"count":510,
			"type":"SCALAR"
		},
		{
			"bufferView":15,
			"componentType":5126,
			"count":138,
			"max":[
				1.4869920015335083,
				9.759689331054688,
				6.043781280517578
			],
			"min":[
				-1.4869920015335083,
				7.820893287658691,
				2.871185302734375
			],
			"type":"VEC3"
		},
		{
			"bufferView":16,
			"componentType":5126,
			"count":138,
			"type":"VEC3"
		},
		{
			"bufferView":17,
			"componentType":5126,
			"count":138,
			"type":"VEC2"
		},
		{
			"bufferView":18,
			"componentType":5121,
			"count":138,
			"type":"VEC4"
		},
		{
			"bufferView":19,
			"componentType":5126,
			"count":138,
			"type":"VEC4"
		},
		{
			"bufferView":20,
			"componentType":5123,
			"count":504,
			"type":"SCALAR"
		},
		{
			"bufferView":21,
			"componentType":5126,
			"count":113,
			"max":[
				1.5247939825057983,
				9.759693145751953,
				6.043783664703369
			],
			"min":[
				-1.524791955947876,
				7.820895671844482,
				2.9086861610412598
			],
			"type":"VEC3"
		},
		{
			"bufferView":22,
			"componentType":5126,
			"count":113,
			"type":"VEC3"
		},
		{
			"bufferView":23,
			"componentType":5126,
			"count":113,
			"type":"VEC2"
		},
		{
			"bufferView":24,
			"componentType":5121,
			"count":113,
			"type":"VEC4"
		},
		{
			"bufferView":25,
			"componentType":5126,
			"count":113,
			"type":"VEC4"
		},
		{
			"bufferView":26,
			"componentType":5123,
			"count":414,
			"type":"SCALAR"
		},
		{
			"bufferView":27,
			"componentType":5126,
			"count":134,
			"max":[
				1.524791955947876,
				9.759689331054688,
				6.043781280517578
			],
			"min":[
				-1.524791955947876,
				7.820893287658691,
				2.9086861610412598
			],
			"type":"VEC3"
		},
		{
			"bufferView":28,
			"componentType":5126,
			"count":134,
			"type":"VEC3"
		},
		{
			"bufferView":29,
			"componentType":5126,
			"count":134,
			"type":"VEC2"
		},
		{
			"bufferView":30,
			"componentType":5121,
			"count":134,
			"type":"VEC4"
		},
		{
			"bufferView":31,
			"componentType":5126,
			"count":134,
			"type":"VEC4"
		},
		{
			"bufferView":32,
			"componentType":5123,
			"count":504,
			"type":"SCALAR"
		}
	],
	"bufferViews":[
		{
			"buffer":0,
			"byteLength":17628,
			"byteOffset":0,
			"target":34962
		},
		{
			"buffer":0,
			"byteLength":17628,
			"byteOffset":17628,
			"target":34962
		},
		{
			"buffer":0,
			"byteLength":11752,
			"byteOffset":35256,
			"target":34962
		},
		{
			"buffer":0,
			"byteLength":5876,
			"byteOffset":47008,
			"target":34962
		},
		{
			"buffer":0,
			"byteLength":11752,
			"byteOffset":52884,
			"target":34962
		},
		{
			"buffer":0,
			"byteLength":5876,
			"byteOffset":64636,
			"target":34962
		},
		{
			"buffer":0,
			"byteLength":23504,
			"byteOffset":70512,
			"target":34962
		},
		{
			"buffer":0,
			"byteLength":13788,
			"byteOffset":94016,
			"target":34963
		},
		{
			"buffer":0,
			"byteLength":2944,
			"byteOffset":107804
		},
		{
			"buffer":0,
			"byteLength":1248,
			"byteOffset":110748,
			"target":34962
		},
		{
			"buffer":0,
			"byteLength":1248,
			"byteOffset":111996,
			"target":34962
		},
		{
			"buffer":0,
			"byteLength":832,
			"byteOffset":113244,
			"target":34962
		},
		{
			"buffer":0,
			"byteLength":416,
			"byteOffset":114076,
			"target":34962
		},
		{
			"buffer":0,
			"byteLength":1664,
			"byteOffset":114492,
			"target":34962
		},
		{
			"buffer":0,
			"byteLength":1020,
			"byteOffset":116156,
			"target":34963
		},
		{
			"buffer":0,
			"byteLength":1656,
			"byteOffset":117176,
			"target":34962
		},
		{
			"buffer":0,
			"byteLength":1656,
			"byteOffset":118832,
			"target":34962
		},
		{
			"buffer":0,
			"byteLength":1104,
			"byteOffset":120488,
			"target":34962
		},
		{
			"buffer":0,
			"byteLength":552,
			"byteOffset":121592,
			"target":34962
		},
		{
			"buffer":0,
			"byteLength":2208,
			"byteOffset":122144,
			"target":34962
		},
		{
			"buffer":0,
			"byteLength":1008,
			"byteOffset":124352,
			"target":34963
		},
		{
			"buffer":0,
			"byteLength":1356,
			"byteOffset":125360,
			"target":34962
		},
		{
			"buffer":0,
			"byteLength":1356,
			"byteOffset":126716,
			"target":34962
		},
		{
			"buffer":0,
			"byteLength":904,
			"byteOffset":128072,
			"target":34962
		},
		{
			"buffer":0,
			"byteLength":452,
			"byteOffset":128976,
			"target":34962
		},
		{
			"buffer":0,
			"byteLength":1808,
			"byteOffset":129428,
			"target":34962
		},
		{
			"buffer":0,
			"byteLength":828,
			"byteOffset":131236,
			"target":34963
		},
		{
			"buffer":0,
			"byteLength":1608,
			"byteOffset":132064,
			"target":34962
		},
		{
			"buffer":0,
			"byteLength":1608,
			"byteOffset":133672,
			"target":34962
		},
		{
			"buffer":0,
			"byteLength":1072,
			"byteOffset":135280,
			"target":34962
		},
		{
			"buffer":0,
			"byteLength":536,
			"byteOffset":136352,
			"target":34962
		},
		{
			"buffer":0,
			"byteLength":2144,
			"byteOffset":136888,
			"target":34962
		},
		{
			"buffer":0,
			"byteLength":1008,
			"byteOffset":139032,
			"target":34963
		}
	],
	"samplers":[
		{
			"magFilter":9729,
			"minFilter":9987
		}
	],
	"buffers":[
		{
			"byteLength":140040,
			"uri":"Vasya.bin"
		}
	]
}
