{
	"asset":{
		"generator":"Khronos glTF Blender I/O v4.3.47",
		"version":"2.0"
	},
	"scene":0,
	"scenes":[
		{
			"name":"Scene",
			"nodes":[
				45
			]
		}
	],
	"nodes":[
		{
			"name":"Hand_L",
			"translation":[
				0.9730005860328674,
				4.436177505340311e-07,
				0.4500003159046173
			]
		},
		{
			"children":[
				0
			],
			"name":"Wrist_L",
			"translation":[
				0.9747302532196045,
				4.775918114319211e-07,
				8.739812074054498e-08
			]
		},
		{
			"children":[
				1
			],
			"name":"Arm_2_L",
			"translation":[
				0.9466006755828857,
				4.7759186827534e-07,
				8.528130024387792e-08
			]
		},
		{
			"children":[
				2
			],
			"name":"Arm_1_L_Sub",
			"translation":[
				0.9860501289367676,
				4.7759186827534e-07,
				8.915233706829895e-08
			]
		},
		{
			"children":[
				3
			],
			"name":"Arm_1_L",
			"rotation":[
				0,
				4.960618582572351e-10,
				0,
				1
			],
			"translation":[
				0.35577285289764404,
				-0.5049195289611816,
				6.205711144957604e-08
			]
		},
		{
			"children":[
				4
			],
			"name":"Clavicle_L",
			"rotation":[
				0,
				-0.7071067094802856,
				0,
				0.7071068286895752
			],
			"translation":[
				0.009996205568313599,
				1.1093449592590332,
				0.8244374990463257
			]
		},
		{
			"name":"Hand_R",
			"translation":[
				-0.9725475907325745,
				4.4361789264257823e-07,
				0.45000001788139343
			]
		},
		{
			"children":[
				6
			],
			"name":"Wrist_R",
			"translation":[
				-0.9747247695922852,
				4.775919819621777e-07,
				-2.757392394414637e-07
			]
		},
		{
			"children":[
				7
			],
			"name":"Arm_2_R",
			"translation":[
				-0.9465997219085693,
				4.775919251187588e-07,
				-2.6831150989892194e-07
			]
		},
		{
			"children":[
				8
			],
			"name":"Arm_1_R_Sub",
			"translation":[
				-0.9860553741455078,
				4.775919251187588e-07,
				-2.796539604332793e-07
			]
		},
		{
			"children":[
				9
			],
			"name":"Arm_1_R",
			"rotation":[
				0,
				9.177639981317043e-09,
				0,
				1
			],
			"translation":[
				-0.35577207803726196,
				-0.5049271583557129,
				-1.4003975934429036e-07
			]
		},
		{
			"children":[
				10
			],
			"name":"Clavicle_R",
			"rotation":[
				0,
				-0.7071066498756409,
				0,
				0.70710688829422
			],
			"translation":[
				0.009996241889894009,
				1.1093506813049316,
				-0.8244370818138123
			]
		},
		{
			"name":"Z_Ear_L",
			"translation":[
				0.7072448134422302,
				0.10350234806537628,
				2.0896503925323486
			]
		},
		{
			"children":[
				12
			],
			"name":"Ear_1_L",
			"translation":[
				0.259823203086853,
				3.4932355880737305,
				2.90743088722229
			]
		},
		{
			"name":"Z_Ear_R",
			"rotation":[
				5.293955920339377e-23,
				-3.552713678800501e-15,
				0,
				1
			],
			"translation":[
				0.7072458863258362,
				0.1035061627626419,
				-2.089651346206665
			]
		},
		{
			"children":[
				14
			],
			"name":"Ear_1_R",
			"rotation":[
				5.293955920339377e-23,
				1.1920928955078125e-07,
				0,
				1
			],
			"translation":[
				0.25982311367988586,
				3.493265151977539,
				-2.907426357269287
			]
		},
		{
			"name":"Feel",
			"rotation":[
				0,
				-0.7071066498756409,
				0,
				0.70710688829422
			],
			"translation":[
				1.7112544981046085e-07,
				2.865178108215332,
				5.977225896458549e-07
			]
		},
		{
			"children":[
				13,
				15,
				16
			],
			"name":"Head",
			"translation":[
				1.3048559566186668e-08,
				0.20818758010864258,
				4.343143800156213e-08
			]
		},
		{
			"children":[
				17
			],
			"name":"Neck",
			"translation":[
				0.02015030011534691,
				1.571700096130371,
				3.251596467634954e-07
			]
		},
		{
			"children":[
				5,
				11,
				18
			],
			"name":"Spine_3",
			"translation":[
				9.844012538451352e-08,
				1.6515517234802246,
				3.445402398938313e-07
			]
		},
		{
			"children":[
				19
			],
			"name":"Spine_2",
			"translation":[
				1.0237781111754884e-07,
				1.7176125049591064,
				3.583218415315059e-07
			]
		},
		{
			"children":[
				20
			],
			"name":"Spine_1",
			"rotation":[
				0,
				0.7071066498756409,
				0,
				0.70710688829422
			],
			"translation":[
				-5.68434527421259e-14,
				-4.7683712978141557e-07,
				9.947598300641403e-14
			]
		},
		{
			"name":"Toe_L",
			"rotation":[
				-5.048709793414476e-29,
				0,
				0,
				1
			],
			"scale":[
				1,
				0.9999999403953552,
				1
			],
			"translation":[
				0.39353668689727783,
				-0.21346798539161682,
				1.3437075097044726e-07
			]
		},
		{
			"children":[
				22
			],
			"name":"Ankle_L",
			"rotation":[
				4.235164736271502e-22,
				-2.524354896707238e-29,
				1.7763568394002505e-15,
				1
			],
			"translation":[
				1.320033425145084e-05,
				-0.6804190874099731,
				-1.2106761460017879e-07
			]
		},
		{
			"children":[
				23
			],
			"name":"Leg_2_L_Sub",
			"rotation":[
				-5.048709793414476e-29,
				0,
				0,
				1
			],
			"scale":[
				1,
				0.9999999403953552,
				1
			],
			"translation":[
				1.2953684347394301e-08,
				-0.21926021575927734,
				-6.146553488406425e-08
			]
		},
		{
			"children":[
				24
			],
			"name":"Leg_2_L",
			"rotation":[
				4.235164736271502e-22,
				-2.524354896707238e-29,
				1.7763568394002505e-15,
				1
			],
			"translation":[
				6.489760551176005e-08,
				-1.090650200843811,
				-2.4027946210480877e-07
			]
		},
		{
			"children":[
				25
			],
			"name":"Leg_1_L_Sub",
			"rotation":[
				0,
				-2.524354896707238e-29,
				0,
				1
			],
			"scale":[
				1,
				0.9999999403953552,
				1
			],
			"translation":[
				2.151080025214469e-08,
				-0.3654911518096924,
				-6.146554909491897e-08
			]
		},
		{
			"children":[
				26
			],
			"name":"Leg_1_L",
			"rotation":[
				0,
				7.105427357601002e-15,
				0,
				1
			],
			"translation":[
				-0.009557327255606651,
				0.07870793342590332,
				-0.7881022691726685
			]
		},
		{
			"name":"Toe_R",
			"rotation":[
				0,
				1,
				0,
				7.549789415861596e-08
			],
			"scale":[
				1,
				0.9999997019767761,
				1
			],
			"translation":[
				0.39353668689727783,
				-0.21346810460090637,
				-7.63894902888751e-08
			]
		},
		{
			"children":[
				28
			],
			"name":"Ankle_R",
			"rotation":[
				0,
				0,
				1.7763568394002505e-15,
				1
			],
			"translation":[
				1.3098097042529844e-05,
				-0.6804180145263672,
				-1.1879210148890706e-07
			]
		},
		{
			"children":[
				29
			],
			"name":"Leg_2_R_Sub",
			"rotation":[
				6.310887241768095e-30,
				0,
				0,
				1
			],
			"scale":[
				1,
				0.9999999403953552,
				1
			],
			"translation":[
				-2.036492929846645e-08,
				-0.21925616264343262,
				-5.9186881173900474e-08
			]
		},
		{
			"children":[
				30
			],
			"name":"Leg_2_R",
			"rotation":[
				5.293955920339377e-23,
				0,
				1.7763568394002505e-15,
				1
			],
			"translation":[
				-9.973778958283219e-08,
				-1.0906583070755005,
				-2.380008226054997e-07
			]
		},
		{
			"children":[
				31
			],
			"name":"Leg_1_R_Sub",
			"rotation":[
				0,
				-5.329070518200751e-15,
				0,
				1
			],
			"scale":[
				1,
				0.9999999403953552,
				1
			],
			"translation":[
				-3.322785602222211e-08,
				-0.36548924446105957,
				-5.918688827932783e-08
			]
		},
		{
			"children":[
				32
			],
			"name":"Leg_1_R",
			"rotation":[
				0,
				-1.1920928244535389e-07,
				0,
				1
			],
			"translation":[
				-0.00955730490386486,
				0.07870912551879883,
				0.7881022691726685
			]
		},
		{
			"name":"Tail_2",
			"rotation":[
				4.235164736271502e-22,
				-2.842170943040401e-14,
				0,
				1
			],
			"translation":[
				0.6146341562271118,
				-1.2736755934383837e-06,
				-1.5630845950909134e-07
			]
		},
		{
			"children":[
				34
			],
			"name":"Tail_1",
			"rotation":[
				0,
				1,
				4.23516574601346e-22,
				1.947071694985425e-07
			],
			"scale":[
				1,
				0.9999997615814209,
				1
			],
			"translation":[
				-1.4627188444137573,
				0.8223789930343628,
				-2.6055767321508938e-08
			]
		},
		{
			"children":[
				35
			],
			"name":"TailRoot",
			"rotation":[
				0,
				7.105427357601002e-15,
				0,
				1
			],
			"translation":[
				-1.0389562821178089e-10,
				0.0017430782318115234,
				3.636181633570601e-10
			]
		},
		{
			"children":[
				27,
				33,
				36
			],
			"name":"Waist",
			"rotation":[
				0,
				-0.7071066498756409,
				0,
				0.70710688829422
			],
			"translation":[
				5.68434527421259e-14,
				-4.7683712978141557e-07,
				9.947598300641403e-14
			]
		},
		{
			"children":[
				21,
				37
			],
			"name":"Skl_Root",
			"scale":[
				1,
				0.9999999403953552,
				1
			],
			"translation":[
				0,
				2.7210230827331543,
				0
			]
		},
		{
			"children":[
				38
			],
			"name":"Trans_Root"
		},
		{
			"children":[
				39
			],
			"name":"Root",
			"rotation":[
				-0.7071067690849304,
				0,
				0,
				0.7071067690849304
			]
		},
		{
			"mesh":0,
			"name":"Body__mBody",
			"skin":0
		},
		{
			"mesh":1,
			"name":"Body__mCapVis",
			"skin":0
		},
		{
			"mesh":2,
			"name":"Body__mEye",
			"skin":0
		},
		{
			"mesh":3,
			"name":"Body__mMouth",
			"skin":0
		},
		{
			"children":[
				41,
				42,
				43,
				44,
				40
			],
			"name":"Armature",
			"rotation":[
				0.7071068286895752,
				0,
				0,
				0.7071068286895752
			]
		}
	],
	"materials":[
		{
			"doubleSided":true,
			"name":"mBody.003",
			"pbrMetallicRoughness":{
				"baseColorTexture":{
					"index":0
				},
				"metallicFactor":0,
				"roughnessFactor":0.5
			}
		},
		{
			"doubleSided":true,
			"name":"mCapVis",
			"pbrMetallicRoughness":{
				"baseColorTexture":{
					"index":1
				},
				"metallicFactor":0,
				"roughnessFactor":0.5
			}
		},
		{
			"doubleSided":true,
			"name":"mEye.003",
			"pbrMetallicRoughness":{
				"baseColorTexture":{
					"index":2
				},
				"metallicFactor":0,
				"roughnessFactor":0.5
			}
		},
		{
			"doubleSided":true,
			"name":"mMouth.003",
			"pbrMetallicRoughness":{
				"baseColorTexture":{
					"index":3
				},
				"metallicFactor":0,
				"roughnessFactor":0.5
			}
		}
	],
	"meshes":[
		{
			"name":"Body__mBody.003",
			"primitives":[
				{
					"attributes":{
						"POSITION":0,
						"NORMAL":1,
						"TEXCOORD_0":2,
						"COLOR_0":3,
						"COLOR_1":4,
						"JOINTS_0":5,
						"WEIGHTS_0":6
					},
					"indices":7,
					"material":0
				}
			]
		},
		{
			"name":"Body__mCapVis",
			"primitives":[
				{
					"attributes":{
						"POSITION":9,
						"NORMAL":10,
						"TEXCOORD_0":11,
						"JOINTS_0":12,
						"WEIGHTS_0":13
					},
					"indices":14,
					"material":1
				}
			]
		},
		{
			"name":"Body__mEye.003",
			"primitives":[
				{
					"attributes":{
						"POSITION":15,
						"NORMAL":16,
						"TEXCOORD_0":17,
						"JOINTS_0":18,
						"WEIGHTS_0":19
					},
					"indices":20,
					"material":2
				}
			]
		},
		{
			"name":"Body__mMouth.003",
			"primitives":[
				{
					"attributes":{
						"POSITION":21,
						"NORMAL":22,
						"TEXCOORD_0":23,
						"JOINTS_0":24,
						"WEIGHTS_0":25
					},
					"indices":26,
					"material":3
				}
			]
		}
	],
	"textures":[
		{
			"sampler":0,
			"source":0
		},
		{
			"sampler":0,
			"source":0
		},
		{
			"sampler":0,
			"source":1
		},
		{
			"sampler":0,
			"source":2
		}
	],
	"images":[
		{
			"mimeType":"image/png",
			"name":"mBody_Alb",
			"uri":"mBody_Alb.png"
		},
		{
			"mimeType":"image/png",
			"name":"mEye_Alb.0",
			"uri":"mEye_Alb_0.png"
		},
		{
			"mimeType":"image/png",
			"name":"mMouth_Alb.0",
			"uri":"mMouth_Alb_0.png"
		}
	],
	"skins":[
		{
			"inverseBindMatrices":8,
			"joints":[
				40,
				39,
				38,
				21,
				20,
				19,
				5,
				4,
				3,
				2,
				1,
				0,
				11,
				10,
				9,
				8,
				7,
				6,
				18,
				17,
				13,
				12,
				15,
				14,
				16,
				37,
				27,
				26,
				25,
				24,
				23,
				22,
				33,
				32,
				31,
				30,
				29,
				28,
				36,
				35,
				34
			],
			"name":"Armature"
		}
	],
	"accessors":[
		{
			"bufferView":0,
			"componentType":5126,
			"count":1372,
			"max":[
				5.121882915496826,
				13.398629188537598,
				1.7365056276321411
			],
			"min":[
				-5.121882915496826,
				0.03126652538776398,
				-2.77626633644104
			],
			"type":"VEC3"
		},
		{
			"bufferView":1,
			"componentType":5126,
			"count":1372,
			"type":"VEC3"
		},
		{
			"bufferView":2,
			"componentType":5126,
			"count":1372,
			"type":"VEC2"
		},
		{
			"bufferView":3,
			"componentType":5121,
			"count":1372,
			"normalized":true,
			"type":"VEC4"
		},
		{
			"bufferView":4,
			"componentType":5123,
			"count":1372,
			"normalized":true,
			"type":"VEC4"
		},
		{
			"bufferView":5,
			"componentType":5121,
			"count":1372,
			"type":"VEC4"
		},
		{
			"bufferView":6,
			"componentType":5126,
			"count":1372,
			"type":"VEC4"
		},
		{
			"bufferView":7,
			"componentType":5123,
			"count":6498,
			"type":"SCALAR"
		},
		{
			"bufferView":8,
			"componentType":5126,
			"count":41,
			"type":"MAT4"
		},
		{
			"bufferView":9,
			"componentType":5126,
			"count":234,
			"max":[
				2.382495880126953,
				14.073869705200195,
				-0.3900349736213684
			],
			"min":[
				-2.382495880126953,
				12.154369354248047,
				-3.7550368309020996
			],
			"type":"VEC3"
		},
		{
			"bufferView":10,
			"componentType":5126,
			"count":234,
			"type":"VEC3"
		},
		{
			"bufferView":11,
			"componentType":5126,
			"count":234,
			"type":"VEC2"
		},
		{
			"bufferView":12,
			"componentType":5121,
			"count":234,
			"type":"VEC4"
		},
		{
			"bufferView":13,
			"componentType":5126,
			"count":234,
			"type":"VEC4"
		},
		{
			"bufferView":14,
			"componentType":5123,
			"count":1140,
			"type":"SCALAR"
		},
		{
			"bufferView":15,
			"componentType":5126,
			"count":135,
			"max":[
				3.060959815979004,
				13.308769226074219,
				4.001441955566406
			],
			"min":[
				-3.0609591007232666,
				9.484167098999023,
				0.27494537830352783
			],
			"type":"VEC3"
		},
		{
			"bufferView":16,
			"componentType":5126,
			"count":135,
			"type":"VEC3"
		},
		{
			"bufferView":17,
			"componentType":5126,
			"count":135,
			"type":"VEC2"
		},
		{
			"bufferView":18,
			"componentType":5121,
			"count":135,
			"type":"VEC4"
		},
		{
			"bufferView":19,
			"componentType":5126,
			"count":135,
			"type":"VEC4"
		},
		{
			"bufferView":20,
			"componentType":5123,
			"count":678,
			"type":"SCALAR"
		},
		{
			"bufferView":21,
			"componentType":5126,
			"count":114,
			"max":[
				2.827375888824463,
				9.494423866271973,
				4.001441955566406
			],
			"min":[
				-2.8273749351501465,
				7.469901084899902,
				0.29401808977127075
			],
			"type":"VEC3"
		},
		{
			"bufferView":22,
			"componentType":5126,
			"count":114,
			"type":"VEC3"
		},
		{
			"bufferView":23,
			"componentType":5126,
			"count":114,
			"type":"VEC2"
		},
		{
			"bufferView":24,
			"componentType":5121,
			"count":114,
			"type":"VEC4"
		},
		{
			"bufferView":25,
			"componentType":5126,
			"count":114,
			"type":"VEC4"
		},
		{
			"bufferView":26,
			"componentType":5123,
			"count":582,
			"type":"SCALAR"
		}
	],
	"bufferViews":[
		{
			"buffer":0,
			"byteLength":16464,
			"byteOffset":0,
			"target":34962
		},
		{
			"buffer":0,
			"byteLength":16464,
			"byteOffset":16464,
			"target":34962
		},
		{
			"buffer":0,
			"byteLength":10976,
			"byteOffset":32928,
			"target":34962
		},
		{
			"buffer":0,
			"byteLength":5488,
			"byteOffset":43904,
			"target":34962
		},
		{
			"buffer":0,
			"byteLength":10976,
			"byteOffset":49392,
			"target":34962
		},
		{
			"buffer":0,
			"byteLength":5488,
			"byteOffset":60368,
			"target":34962
		},
		{
			"buffer":0,
			"byteLength":21952,
			"byteOffset":65856,
			"target":34962
		},
		{
			"buffer":0,
			"byteLength":12996,
			"byteOffset":87808,
			"target":34963
		},
		{
			"buffer":0,
			"byteLength":2624,
			"byteOffset":100804
		},
		{
			"buffer":0,
			"byteLength":2808,
			"byteOffset":103428,
			"target":34962
		},
		{
			"buffer":0,
			"byteLength":2808,
			"byteOffset":106236,
			"target":34962
		},
		{
			"buffer":0,
			"byteLength":1872,
			"byteOffset":109044,
			"target":34962
		},
		{
			"buffer":0,
			"byteLength":936,
			"byteOffset":110916,
			"target":34962
		},
		{
			"buffer":0,
			"byteLength":3744,
			"byteOffset":111852,
			"target":34962
		},
		{
			"buffer":0,
			"byteLength":2280,
			"byteOffset":115596,
			"target":34963
		},
		{
			"buffer":0,
			"byteLength":1620,
			"byteOffset":117876,
			"target":34962
		},
		{
			"buffer":0,
			"byteLength":1620,
			"byteOffset":119496,
			"target":34962
		},
		{
			"buffer":0,
			"byteLength":1080,
			"byteOffset":121116,
			"target":34962
		},
		{
			"buffer":0,
			"byteLength":540,
			"byteOffset":122196,
			"target":34962
		},
		{
			"buffer":0,
			"byteLength":2160,
			"byteOffset":122736,
			"target":34962
		},
		{
			"buffer":0,
			"byteLength":1356,
			"byteOffset":124896,
			"target":34963
		},
		{
			"buffer":0,
			"byteLength":1368,
			"byteOffset":126252,
			"target":34962
		},
		{
			"buffer":0,
			"byteLength":1368,
			"byteOffset":127620,
			"target":34962
		},
		{
			"buffer":0,
			"byteLength":912,
			"byteOffset":128988,
			"target":34962
		},
		{
			"buffer":0,
			"byteLength":456,
			"byteOffset":129900,
			"target":34962
		},
		{
			"buffer":0,
			"byteLength":1824,
			"byteOffset":130356,
			"target":34962
		},
		{
			"buffer":0,
			"byteLength":1164,
			"byteOffset":132180,
			"target":34963
		}
	],
	"samplers":[
		{
			"magFilter":9729,
			"minFilter":9987
		}
	],
	"buffers":[
		{
			"byteLength":133344,
			"uri":"Tori.bin"
		}
	]
}
