{
	"asset":{
		"generator":"Khronos glTF Blender I/O v4.3.47",
		"version":"2.0"
	},
	"scene":0,
	"scenes":[
		{
			"name":"Scene",
			"nodes":[
				48
			]
		}
	],
	"nodes":[
		{
			"name":"Hand_L",
			"translation":[
				0.05300005152821541,
				-5.0271353302377975e-08,
				0.7830002307891846
			]
		},
		{
			"children":[
				0
			],
			"name":"Wrist_L",
			"translation":[
				1.3731484413146973,
				8.843520582502151e-09,
				1.1964755231019808e-07
			]
		},
		{
			"children":[
				1
			],
			"name":"Arm_2_L",
			"translation":[
				1.0789809226989746,
				8.843541898784224e-09,
				1.0316333032278635e-07
			]
		},
		{
			"children":[
				2
			],
			"name":"Arm_1_L_Sub",
			"translation":[
				0.9590942859649658,
				8.843559662352618e-09,
				8.170576393240481e-08
			]
		},
		{
			"children":[
				3
			],
			"name":"Arm_1_L",
			"rotation":[
				0,
				4.960618582572351e-10,
				0,
				1
			],
			"translation":[
				0.7000004053115845,
				-0.09999894350767136,
				7.419127712182672e-08
			]
		},
		{
			"children":[
				4
			],
			"name":"Clavicle_L",
			"rotation":[
				0,
				-0.7071067094802856,
				0,
				0.7071068286895752
			],
			"translation":[
				0.11713624745607376,
				0.7568182945251465,
				1.0000003576278687
			]
		},
		{
			"name":"Hand_R",
			"translation":[
				-0.0525117851793766,
				-5.024687510513104e-08,
				0.7826777100563049
			]
		},
		{
			"children":[
				6
			],
			"name":"Wrist_R",
			"translation":[
				-1.3731403350830078,
				8.843647592016168e-09,
				-3.8902271626284346e-07
			]
		},
		{
			"children":[
				7
			],
			"name":"Arm_2_R",
			"translation":[
				-1.078991413116455,
				8.843631604804614e-09,
				-3.044353888981277e-07
			]
		},
		{
			"children":[
				8
			],
			"name":"Arm_1_R_Sub",
			"translation":[
				-0.9590904712677002,
				8.843620058485158e-09,
				-2.752136936123861e-07
			]
		},
		{
			"children":[
				9
			],
			"name":"Arm_1_R",
			"rotation":[
				0,
				9.177639981317043e-09,
				0,
				1
			],
			"translation":[
				-0.6999992728233337,
				-0.09999989718198776,
				-1.8657866007742996e-07
			]
		},
		{
			"children":[
				10
			],
			"name":"Clavicle_R",
			"rotation":[
				0,
				-0.7071066498756409,
				0,
				0.70710688829422
			],
			"translation":[
				0.11713606864213943,
				0.7568206787109375,
				-1.0000005960464478
			]
		},
		{
			"name":"Ear_1_L",
			"translation":[
				0.3361262083053589,
				7.147963523864746,
				1.8736895322799683
			]
		},
		{
			"name":"Ear_1_R",
			"rotation":[
				0,
				1.1920928955078125e-07,
				0,
				1
			],
			"translation":[
				0.336126446723938,
				7.147934913635254,
				-1.8736891746520996
			]
		},
		{
			"name":"Mouth",
			"rotation":[
				0,
				-7.212162017822266e-06,
				0,
				1
			],
			"translation":[
				-2.000000476837158,
				0.1996077001094818,
				3.118466906926187e-07
			]
		},
		{
			"name":"Mouth_U",
			"rotation":[
				0,
				-7.212162017822266e-06,
				0,
				1
			],
			"translation":[
				-2.900001049041748,
				2.0000007152557373,
				8.090302685559436e-07
			]
		},
		{
			"children":[
				14,
				15
			],
			"name":"FaceRoot",
			"translation":[
				-3.5778400641478525e-15,
				7.460698725481052e-14,
				4.9745187895126886e-14
			]
		},
		{
			"name":"Feel",
			"translation":[
				2.243290708747736e-07,
				3.763617515563965,
				7.851517693779897e-07
			]
		},
		{
			"children":[
				12,
				13,
				16,
				17
			],
			"name":"Head",
			"translation":[
				1.5705065692372955e-08,
				0.2634878158569336,
				5.49678631500683e-08
			]
		},
		{
			"children":[
				18
			],
			"name":"Neck",
			"translation":[
				9.946872125965456e-08,
				1.668806552886963,
				3.481401336102863e-07
			]
		},
		{
			"children":[
				5,
				11,
				19
			],
			"name":"Spine_3",
			"translation":[
				1.045223001483464e-07,
				1.7535920143127441,
				3.658279865703662e-07
			]
		},
		{
			"children":[
				20
			],
			"name":"Spine_2",
			"translation":[
				1.0870313360555883e-07,
				1.8237359523773193,
				3.8046076156206254e-07
			]
		},
		{
			"children":[
				21
			],
			"name":"Spine_1",
			"rotation":[
				0,
				0.7071066498756409,
				0,
				0.70710688829422
			],
			"translation":[
				1.705303650026413e-13,
				4.76837158203125e-07,
				0
			]
		},
		{
			"name":"Toe_L",
			"translation":[
				0.4888781011104584,
				-0.2651844620704651,
				9.51912468849514e-08
			]
		},
		{
			"children":[
				23
			],
			"name":"Ankle_L",
			"translation":[
				1.6361247617169283e-05,
				-0.8452591896057129,
				-1.1920612763560712e-07
			]
		},
		{
			"children":[
				24
			],
			"name":"Leg_2_L_Sub",
			"translation":[
				1.6234821487159934e-08,
				-0.2723747491836548,
				-1.1920931797249068e-07
			]
		},
		{
			"children":[
				25
			],
			"name":"Leg_2_L",
			"translation":[
				8.075785729033669e-08,
				-1.3548917770385742,
				-3.576278970740532e-07
			]
		},
		{
			"children":[
				26
			],
			"name":"Leg_1_L_Sub",
			"translation":[
				2.706269697227981e-08,
				-0.45403623580932617,
				-2.3841860752327193e-07
			]
		},
		{
			"children":[
				27
			],
			"name":"Leg_1_L",
			"translation":[
				-2.1127846139279427e-08,
				0.09777569770812988,
				-1.100000262260437
			]
		},
		{
			"name":"Toe_R",
			"rotation":[
				0,
				1,
				0,
				7.549789415861596e-08
			],
			"translation":[
				0.4888778328895569,
				-0.2651841640472412,
				-2.1370240688156628e-08
			]
		},
		{
			"children":[
				29
			],
			"name":"Ankle_R",
			"translation":[
				1.626524499442894e-05,
				-0.8452632427215576,
				-1.19210000093517e-07
			]
		},
		{
			"children":[
				30
			],
			"name":"Leg_2_R_Sub",
			"translation":[
				-2.4892685246413748e-08,
				-0.27237391471862793,
				-1.1920928955078125e-07
			]
		},
		{
			"children":[
				31
			],
			"name":"Leg_2_R",
			"translation":[
				-1.238251030599713e-07,
				-1.3548917770385742,
				-2.384185791015625e-07
			]
		},
		{
			"children":[
				32
			],
			"name":"Leg_1_R_Sub",
			"rotation":[
				0,
				3.552713678800501e-15,
				0,
				1
			],
			"translation":[
				-4.1494850222534296e-08,
				-0.45403504371643066,
				-5.960464477539062e-07
			]
		},
		{
			"children":[
				33
			],
			"name":"Leg_1_R",
			"rotation":[
				0,
				-1.1920928955078125e-07,
				0,
				1
			],
			"translation":[
				9.471975204178307e-09,
				0.0977773666381836,
				1.100000262260437
			]
		},
		{
			"name":"Z_Tail",
			"rotation":[
				-8.673617379884035e-19,
				0,
				-3.552713678800501e-15,
				1
			],
			"translation":[
				-2.6198363304138184,
				0.014374705031514168,
				0.0011199008440598845
			]
		},
		{
			"children":[
				35
			],
			"name":"Tail_2",
			"rotation":[
				0,
				1.4551915228366852e-11,
				-3.552713678800501e-15,
				1
			],
			"translation":[
				-1.1785509586334229,
				0.001150620519183576,
				0.0005037938826717436
			]
		},
		{
			"children":[
				36
			],
			"name":"Tail_1",
			"rotation":[
				0,
				-0.00021386149455793202,
				0,
				1
			],
			"scale":[
				0.9999999403953552,
				1,
				0.9999999403953552
			],
			"translation":[
				-2.144435405731201,
				0.45535483956336975,
				-4.50361170578617e-07
			]
		},
		{
			"children":[
				37
			],
			"name":"TailRoot",
			"rotation":[
				0,
				5.960464477539063e-08,
				0,
				1
			],
			"translation":[
				1.038499409666184e-23,
				1.9095836023552692e-14,
				-3.3881317890172014e-21
			]
		},
		{
			"children":[
				28,
				34,
				38
			],
			"name":"Waist",
			"rotation":[
				0,
				-0.7071066498756409,
				0,
				0.70710688829422
			],
			"translation":[
				-1.705303650026413e-13,
				4.76837158203125e-07,
				0
			]
		},
		{
			"children":[
				22,
				39
			],
			"name":"Skl_Root",
			"translation":[
				0,
				3.380242109298706,
				0
			]
		},
		{
			"children":[
				40
			],
			"name":"Trans_Root"
		},
		{
			"children":[
				41
			],
			"name":"Root",
			"rotation":[
				-0.7071067690849304,
				0,
				0,
				0.7071067690849304
			]
		},
		{
			"mesh":0,
			"name":"Body__mBody",
			"skin":0
		},
		{
			"mesh":1,
			"name":"Body__mCapVis",
			"skin":0
		},
		{
			"mesh":2,
			"name":"Body__mEye",
			"skin":0
		},
		{
			"mesh":3,
			"name":"Body__mMouth",
			"skin":0
		},
		{
			"mesh":4,
			"name":"FlameModel__mGlass",
			"skin":0
		},
		{
			"children":[
				43,
				44,
				45,
				46,
				47,
				42
			],
			"name":"Armature",
			"rotation":[
				0.7071068286895752,
				0,
				0,
				0.7071068286895752
			]
		}
	],
	"materials":[
		{
			"doubleSided":true,
			"name":"mBody.006",
			"pbrMetallicRoughness":{
				"baseColorTexture":{
					"index":0
				},
				"metallicFactor":0,
				"roughnessFactor":0.5
			}
		},
		{
			"doubleSided":true,
			"name":"mCapVis.002",
			"pbrMetallicRoughness":{
				"baseColorTexture":{
					"index":1
				},
				"metallicFactor":0,
				"roughnessFactor":0.5
			}
		},
		{
			"doubleSided":true,
			"name":"mEye.006",
			"pbrMetallicRoughness":{
				"baseColorTexture":{
					"index":2
				},
				"metallicFactor":0,
				"roughnessFactor":0.5
			}
		},
		{
			"doubleSided":true,
			"name":"mMouth.005",
			"pbrMetallicRoughness":{
				"baseColorTexture":{
					"index":3
				},
				"metallicFactor":0,
				"roughnessFactor":0.5
			}
		},
		{
			"doubleSided":true,
			"name":"mGlass",
			"pbrMetallicRoughness":{
				"baseColorTexture":{
					"index":4
				},
				"metallicFactor":0,
				"roughnessFactor":0.5
			}
		}
	],
	"meshes":[
		{
			"name":"Body__mBody.006",
			"primitives":[
				{
					"attributes":{
						"POSITION":0,
						"NORMAL":1,
						"TEXCOORD_0":2,
						"COLOR_0":3,
						"COLOR_1":4,
						"JOINTS_0":5,
						"WEIGHTS_0":6
					},
					"indices":7,
					"material":0
				}
			]
		},
		{
			"name":"Body__mCapVis.002",
			"primitives":[
				{
					"attributes":{
						"POSITION":9,
						"NORMAL":10,
						"TEXCOORD_0":11,
						"JOINTS_0":12,
						"WEIGHTS_0":13
					},
					"indices":14,
					"material":1
				}
			]
		},
		{
			"name":"Body__mEye.006",
			"primitives":[
				{
					"attributes":{
						"POSITION":15,
						"NORMAL":16,
						"TEXCOORD_0":17,
						"JOINTS_0":18,
						"WEIGHTS_0":19
					},
					"indices":20,
					"material":2
				}
			]
		},
		{
			"name":"Body__mMouth.005",
			"primitives":[
				{
					"attributes":{
						"POSITION":21,
						"NORMAL":22,
						"TEXCOORD_0":23,
						"JOINTS_0":24,
						"WEIGHTS_0":25
					},
					"indices":26,
					"material":3
				}
			]
		},
		{
			"name":"FlameModel__mGlass",
			"primitives":[
				{
					"attributes":{
						"POSITION":27,
						"NORMAL":28,
						"TEXCOORD_0":29,
						"JOINTS_0":30,
						"WEIGHTS_0":31
					},
					"indices":32,
					"material":4
				}
			]
		}
	],
	"textures":[
		{
			"sampler":0,
			"source":0
		},
		{
			"sampler":0,
			"source":0
		},
		{
			"sampler":0,
			"source":1
		},
		{
			"sampler":0,
			"source":2
		},
		{
			"sampler":0,
			"source":3
		}
	],
	"images":[
		{
			"mimeType":"image/png",
			"name":"mBody_Alb",
			"uri":"mBody_Alb.png"
		},
		{
			"mimeType":"image/png",
			"name":"mEye_Alb.0",
			"uri":"mEye_Alb_0.png"
		},
		{
			"mimeType":"image/png",
			"name":"mMouth_Alb.0",
			"uri":"mMouth_Alb_0.png"
		},
		{
			"mimeType":"image/png",
			"name":"mGlass_Alb",
			"uri":"mGlass_Alb.png"
		}
	],
	"skins":[
		{
			"inverseBindMatrices":8,
			"joints":[
				42,
				41,
				40,
				22,
				21,
				20,
				5,
				4,
				3,
				2,
				1,
				0,
				11,
				10,
				9,
				8,
				7,
				6,
				19,
				18,
				12,
				13,
				16,
				14,
				15,
				17,
				39,
				28,
				27,
				26,
				25,
				24,
				23,
				34,
				33,
				32,
				31,
				30,
				29,
				38,
				37,
				36,
				35
			],
			"name":"Armature"
		}
	],
	"accessors":[
		{
			"bufferView":0,
			"componentType":5126,
			"count":1940,
			"max":[
				5.813076972961426,
				16.43916893005371,
				3.0937952995300293
			],
			"min":[
				-5.813077926635742,
				0.009871793910861015,
				-6.017855644226074
			],
			"type":"VEC3"
		},
		{
			"bufferView":1,
			"componentType":5126,
			"count":1940,
			"type":"VEC3"
		},
		{
			"bufferView":2,
			"componentType":5126,
			"count":1940,
			"type":"VEC2"
		},
		{
			"bufferView":3,
			"componentType":5121,
			"count":1940,
			"normalized":true,
			"type":"VEC4"
		},
		{
			"bufferView":4,
			"componentType":5123,
			"count":1940,
			"normalized":true,
			"type":"VEC4"
		},
		{
			"bufferView":5,
			"componentType":5121,
			"count":1940,
			"type":"VEC4"
		},
		{
			"bufferView":6,
			"componentType":5126,
			"count":1940,
			"type":"VEC4"
		},
		{
			"bufferView":7,
			"componentType":5123,
			"count":9546,
			"type":"SCALAR"
		},
		{
			"bufferView":8,
			"componentType":5126,
			"count":43,
			"type":"MAT4"
		},
		{
			"bufferView":9,
			"componentType":5126,
			"count":632,
			"max":[
				3.860261917114258,
				17.246198654174805,
				1.6353708505630493
			],
			"min":[
				-3.860261917114258,
				12.733499526977539,
				-4.984004020690918
			],
			"type":"VEC3"
		},
		{
			"bufferView":10,
			"componentType":5126,
			"count":632,
			"type":"VEC3"
		},
		{
			"bufferView":11,
			"componentType":5126,
			"count":632,
			"type":"VEC2"
		},
		{
			"bufferView":12,
			"componentType":5121,
			"count":632,
			"type":"VEC4"
		},
		{
			"bufferView":13,
			"componentType":5126,
			"count":632,
			"type":"VEC4"
		},
		{
			"bufferView":14,
			"componentType":5123,
			"count":3132,
			"type":"SCALAR"
		},
		{
			"bufferView":15,
			"componentType":5126,
			"count":149,
			"max":[
				2.946835994720459,
				15.780799865722656,
				3.873832941055298
			],
			"min":[
				-2.946835994720459,
				12.672479629516602,
				1.211689829826355
			],
			"type":"VEC3"
		},
		{
			"bufferView":16,
			"componentType":5126,
			"count":149,
			"type":"VEC3"
		},
		{
			"bufferView":17,
			"componentType":5126,
			"count":149,
			"type":"VEC2"
		},
		{
			"bufferView":18,
			"componentType":5121,
			"count":149,
			"type":"VEC4"
		},
		{
			"bufferView":19,
			"componentType":5126,
			"count":149,
			"type":"VEC4"
		},
		{
			"bufferView":20,
			"componentType":5123,
			"count":744,
			"type":"SCALAR"
		},
		{
			"bufferView":21,
			"componentType":5126,
			"count":276,
			"max":[
				3.365947961807251,
				12.900919914245605,
				4.311047077178955
			],
			"min":[
				-3.365947961807251,
				9.41162109375,
				1.1965962648391724
			],
			"type":"VEC3"
		},
		{
			"bufferView":22,
			"componentType":5126,
			"count":276,
			"type":"VEC3"
		},
		{
			"bufferView":23,
			"componentType":5126,
			"count":276,
			"type":"VEC2"
		},
		{
			"bufferView":24,
			"componentType":5121,
			"count":276,
			"type":"VEC4"
		},
		{
			"bufferView":25,
			"componentType":5126,
			"count":276,
			"type":"VEC4"
		},
		{
			"bufferView":26,
			"componentType":5123,
			"count":1470,
			"type":"SCALAR"
		},
		{
			"bufferView":27,
			"componentType":5126,
			"count":464,
			"max":[
				2.250082015991211,
				14.18196964263916,
				3.558856964111328
			],
			"min":[
				-2.25028395652771,
				12.936100006103516,
				2.2494900226593018
			],
			"type":"VEC3"
		},
		{
			"bufferView":28,
			"componentType":5126,
			"count":464,
			"type":"VEC3"
		},
		{
			"bufferView":29,
			"componentType":5126,
			"count":464,
			"type":"VEC2"
		},
		{
			"bufferView":30,
			"componentType":5121,
			"count":464,
			"type":"VEC4"
		},
		{
			"bufferView":31,
			"componentType":5126,
			"count":464,
			"type":"VEC4"
		},
		{
			"bufferView":32,
			"componentType":5123,
			"count":1992,
			"type":"SCALAR"
		}
	],
	"bufferViews":[
		{
			"buffer":0,
			"byteLength":23280,
			"byteOffset":0,
			"target":34962
		},
		{
			"buffer":0,
			"byteLength":23280,
			"byteOffset":23280,
			"target":34962
		},
		{
			"buffer":0,
			"byteLength":15520,
			"byteOffset":46560,
			"target":34962
		},
		{
			"buffer":0,
			"byteLength":7760,
			"byteOffset":62080,
			"target":34962
		},
		{
			"buffer":0,
			"byteLength":15520,
			"byteOffset":69840,
			"target":34962
		},
		{
			"buffer":0,
			"byteLength":7760,
			"byteOffset":85360,
			"target":34962
		},
		{
			"buffer":0,
			"byteLength":31040,
			"byteOffset":93120,
			"target":34962
		},
		{
			"buffer":0,
			"byteLength":19092,
			"byteOffset":124160,
			"target":34963
		},
		{
			"buffer":0,
			"byteLength":2752,
			"byteOffset":143252
		},
		{
			"buffer":0,
			"byteLength":7584,
			"byteOffset":146004,
			"target":34962
		},
		{
			"buffer":0,
			"byteLength":7584,
			"byteOffset":153588,
			"target":34962
		},
		{
			"buffer":0,
			"byteLength":5056,
			"byteOffset":161172,
			"target":34962
		},
		{
			"buffer":0,
			"byteLength":2528,
			"byteOffset":166228,
			"target":34962
		},
		{
			"buffer":0,
			"byteLength":10112,
			"byteOffset":168756,
			"target":34962
		},
		{
			"buffer":0,
			"byteLength":6264,
			"byteOffset":178868,
			"target":34963
		},
		{
			"buffer":0,
			"byteLength":1788,
			"byteOffset":185132,
			"target":34962
		},
		{
			"buffer":0,
			"byteLength":1788,
			"byteOffset":186920,
			"target":34962
		},
		{
			"buffer":0,
			"byteLength":1192,
			"byteOffset":188708,
			"target":34962
		},
		{
			"buffer":0,
			"byteLength":596,
			"byteOffset":189900,
			"target":34962
		},
		{
			"buffer":0,
			"byteLength":2384,
			"byteOffset":190496,
			"target":34962
		},
		{
			"buffer":0,
			"byteLength":1488,
			"byteOffset":192880,
			"target":34963
		},
		{
			"buffer":0,
			"byteLength":3312,
			"byteOffset":194368,
			"target":34962
		},
		{
			"buffer":0,
			"byteLength":3312,
			"byteOffset":197680,
			"target":34962
		},
		{
			"buffer":0,
			"byteLength":2208,
			"byteOffset":200992,
			"target":34962
		},
		{
			"buffer":0,
			"byteLength":1104,
			"byteOffset":203200,
			"target":34962
		},
		{
			"buffer":0,
			"byteLength":4416,
			"byteOffset":204304,
			"target":34962
		},
		{
			"buffer":0,
			"byteLength":2940,
			"byteOffset":208720,
			"target":34963
		},
		{
			"buffer":0,
			"byteLength":5568,
			"byteOffset":211660,
			"target":34962
		},
		{
			"buffer":0,
			"byteLength":5568,
			"byteOffset":217228,
			"target":34962
		},
		{
			"buffer":0,
			"byteLength":3712,
			"byteOffset":222796,
			"target":34962
		},
		{
			"buffer":0,
			"byteLength":1856,
			"byteOffset":226508,
			"target":34962
		},
		{
			"buffer":0,
			"byteLength":7424,
			"byteOffset":228364,
			"target":34962
		},
		{
			"buffer":0,
			"byteLength":3984,
			"byteOffset":235788,
			"target":34963
		}
	],
	"samplers":[
		{
			"magFilter":9729,
			"minFilter":9987
		}
	],
	"buffers":[
		{
			"byteLength":239772,
			"uri":"Kostya.bin"
		}
	]
}
