{
	"asset":{
		"generator":"Khronos glTF Blender I/O v4.3.47",
		"version":"2.0"
	},
	"scene":0,
	"scenes":[
		{
			"name":"Scene",
			"nodes":[
				43
			]
		}
	],
	"nodes":[
		{
			"name":"Hand_L",
			"translation":[
				6.052081147345234e-08,
				-3.86508354210946e-08,
				0.47100016474723816
			]
		},
		{
			"children":[
				0
			],
			"name":"Wrist_L",
			"translation":[
				0.7159707546234131,
				-3.091312983372063e-09,
				6.738778779435961e-08
			]
		},
		{
			"children":[
				1
			],
			"name":"Arm_2_L",
			"translation":[
				0.48560571670532227,
				-3.091301437052607e-09,
				4.399439035296382e-08
			]
		},
		{
			"children":[
				2
			],
			"name":"Arm_1_L_Sub",
			"translation":[
				0.5058441162109375,
				-3.0912938875360396e-09,
				3.8071362951086485e-08
			]
		},
		{
			"children":[
				3
			],
			"name":"Arm_1_L",
			"rotation":[
				0,
				4.960618582572351e-10,
				0,
				1
			],
			"translation":[
				0.32930946350097656,
				-3.091286338019472e-09,
				2.8435778176572057e-08
			]
		},
		{
			"children":[
				4
			],
			"name":"Clavicle_L",
			"rotation":[
				0,
				-0.7071067094802856,
				0,
				0.7071068286895752
			],
			"translation":[
				-0.04094523563981056,
				0.09319543838500977,
				2.069420099258423
			]
		},
		{
			"name":"Hand_R",
			"translation":[
				-7.048591754710287e-08,
				-3.868391473815791e-08,
				0.4714398980140686
			]
		},
		{
			"children":[
				6
			],
			"name":"Wrist_R",
			"translation":[
				-0.715970516204834,
				-3.091194411553033e-09,
				-2.0204552697578038e-07
			]
		},
		{
			"children":[
				7
			],
			"name":"Arm_2_R",
			"translation":[
				-0.4856100082397461,
				-3.0912024051588105e-09,
				-1.37080974127457e-07
			]
		},
		{
			"children":[
				8
			],
			"name":"Arm_1_R_Sub",
			"translation":[
				-0.5058400630950928,
				-3.0912077342293287e-09,
				-1.3733347259403672e-07
			]
		},
		{
			"children":[
				9
			],
			"name":"Arm_1_R",
			"rotation":[
				0,
				9.177639981317043e-09,
				0,
				1
			],
			"translation":[
				-0.32930946350097656,
				-3.091213063299847e-09,
				-8.704836318429443e-08
			]
		},
		{
			"children":[
				10
			],
			"name":"Clavicle_R",
			"rotation":[
				0,
				-0.7071066498756409,
				0,
				0.70710688829422
			],
			"translation":[
				-0.040945179760456085,
				0.09319400787353516,
				-2.0694210529327393
			]
		},
		{
			"name":"Ear_1_L",
			"rotation":[
				0,
				-7.105427357601002e-15,
				0,
				1
			],
			"scale":[
				1,
				0.9999999403953552,
				1
			],
			"translation":[
				0.8039678931236267,
				4.66635799407959,
				1.6123476028442383
			]
		},
		{
			"name":"Ear_1_R",
			"rotation":[
				0,
				1.1920928244535389e-07,
				0,
				1
			],
			"scale":[
				1,
				0.9999999403953552,
				1
			],
			"translation":[
				0.8039684295654297,
				4.666359901428223,
				-1.612349033355713
			]
		},
		{
			"name":"Feel",
			"rotation":[
				0,
				-0.7071066498756409,
				0,
				0.70710688829422
			],
			"translation":[
				2.0482960394474503e-07,
				3.436250686645508,
				7.168576985350228e-07
			]
		},
		{
			"children":[
				12,
				13,
				14
			],
			"name":"Head",
			"translation":[
				7.096224496905279e-09,
				0.11831235885620117,
				2.4681906296564193e-08
			]
		},
		{
			"children":[
				15
			],
			"name":"Neck",
			"translation":[
				0.001554277609102428,
				0.9547791481018066,
				1.989723870110538e-07
			]
		},
		{
			"children":[
				5,
				11,
				16
			],
			"name":"Spine_3",
			"translation":[
				5.095110466868391e-08,
				0.8548169136047363,
				1.783286904810666e-07
			]
		},
		{
			"children":[
				17
			],
			"name":"Spine_2",
			"translation":[
				6.00549157070418e-08,
				1.0075539350509644,
				2.1019212681494537e-07
			]
		},
		{
			"children":[
				18
			],
			"name":"Spine_1",
			"rotation":[
				0,
				0.7071066498756409,
				0,
				0.70710688829422
			],
			"translation":[
				1.136869054842518e-13,
				4.76837158203125e-07,
				-1.4210854715202004e-14
			]
		},
		{
			"name":"Toe_L",
			"translation":[
				0.23116998374462128,
				-0.11907421052455902,
				4.170515310875089e-08
			]
		},
		{
			"children":[
				20
			],
			"name":"Ankle_L",
			"translation":[
				2.3383761799777858e-05,
				-0.3795414865016937,
				-1.2251459224899008e-07
			]
		},
		{
			"children":[
				21
			],
			"name":"Leg_2_L_Sub",
			"translation":[
				1.0476355782884639e-06,
				-0.1223028302192688,
				-3.309855278743612e-09
			]
		},
		{
			"children":[
				22
			],
			"name":"Leg_2_L",
			"translation":[
				3.61396779169354e-08,
				-0.6083780527114868,
				-2.417286282252462e-07
			]
		},
		{
			"children":[
				23
			],
			"name":"Leg_1_L_Sub",
			"translation":[
				1.3153027111911797e-08,
				-0.20387303829193115,
				-3.3100662211182907e-09
			]
		},
		{
			"children":[
				24
			],
			"name":"Leg_1_L",
			"translation":[
				-0.017000021412968636,
				0.04390311241149902,
				-1.1195038557052612
			]
		},
		{
			"name":"Toe_R",
			"rotation":[
				0,
				1,
				0,
				7.549789415861596e-08
			],
			"translation":[
				0.2311696857213974,
				-0.1190740317106247,
				-9.362725705841513e-09
			]
		},
		{
			"children":[
				26
			],
			"name":"Ankle_R",
			"translation":[
				2.3365595552604645e-05,
				-0.3795419931411743,
				-1.1846726977182698e-07
			]
		},
		{
			"children":[
				27
			],
			"name":"Leg_2_R_Sub",
			"translation":[
				9.903537829814013e-07,
				-0.12230312824249268,
				7.430436266275819e-10
			]
		},
		{
			"children":[
				28
			],
			"name":"Leg_2_R",
			"translation":[
				-5.4669786919703256e-08,
				-0.6083785891532898,
				-2.376754935085046e-07
			]
		},
		{
			"children":[
				29
			],
			"name":"Leg_1_R_Sub",
			"rotation":[
				0,
				3.552713678800501e-15,
				0,
				1
			],
			"translation":[
				-1.8051686367925868e-08,
				-0.20387005805969238,
				7.430844828348881e-10
			]
		},
		{
			"children":[
				30
			],
			"name":"Leg_1_R",
			"rotation":[
				0,
				-1.1920928955078125e-07,
				0,
				1
			],
			"translation":[
				-0.0169999860227108,
				0.04390084743499756,
				1.1195005178451538
			]
		},
		{
			"name":"Tail_2",
			"translation":[
				0.9119478464126587,
				-1.933758255745488e-07,
				-2.31919088378163e-07
			]
		},
		{
			"children":[
				32
			],
			"name":"Tail_1",
			"rotation":[
				0,
				1,
				0,
				1.9470718370939721e-07
			],
			"translation":[
				-1.2636363506317139,
				0.19504854083061218,
				-1.3003014487367182e-07
			]
		},
		{
			"children":[
				33
			],
			"name":"TailRoot",
			"translation":[
				-1.1911400820763599e-22,
				8.659739592076221e-15,
				-1.6940658945086007e-21
			]
		},
		{
			"children":[
				25,
				31,
				34
			],
			"name":"Waist",
			"rotation":[
				0,
				-0.7071066498756409,
				0,
				0.70710688829422
			],
			"translation":[
				-1.136869054842518e-13,
				4.76837158203125e-07,
				-1.4210854715202004e-14
			]
		},
		{
			"children":[
				19,
				35
			],
			"name":"Skl_Root",
			"translation":[
				0,
				1.5178090333938599,
				0
			]
		},
		{
			"children":[
				36
			],
			"name":"Trans_Root"
		},
		{
			"children":[
				37
			],
			"name":"Root",
			"rotation":[
				-0.7071067690849304,
				0,
				0,
				0.7071067690849304
			]
		},
		{
			"mesh":0,
			"name":"Body__mBody",
			"skin":0
		},
		{
			"mesh":1,
			"name":"Body__mCapVis",
			"skin":0
		},
		{
			"mesh":2,
			"name":"Body__mEye",
			"skin":0
		},
		{
			"mesh":3,
			"name":"Body__mMouth",
			"skin":0
		},
		{
			"children":[
				39,
				40,
				41,
				42,
				38
			],
			"name":"Armature",
			"rotation":[
				0.7071068286895752,
				0,
				0,
				0.7071068286895752
			]
		}
	],
	"materials":[
		{
			"doubleSided":true,
			"name":"mBody.005",
			"pbrMetallicRoughness":{
				"baseColorTexture":{
					"index":0
				},
				"metallicFactor":0,
				"roughnessFactor":0.5
			}
		},
		{
			"doubleSided":true,
			"name":"mCapVis.001",
			"pbrMetallicRoughness":{
				"baseColorTexture":{
					"index":1
				},
				"metallicFactor":0,
				"roughnessFactor":0.5
			}
		},
		{
			"doubleSided":true,
			"name":"mEye.005",
			"pbrMetallicRoughness":{
				"baseColorTexture":{
					"index":2
				},
				"metallicFactor":0,
				"roughnessFactor":0.5
			}
		},
		{
			"doubleSided":true,
			"name":"mMouth.004",
			"pbrMetallicRoughness":{
				"baseColorTexture":{
					"index":3
				},
				"metallicFactor":0,
				"roughnessFactor":0.5
			}
		}
	],
	"meshes":[
		{
			"name":"Body__mBody.005",
			"primitives":[
				{
					"attributes":{
						"POSITION":0,
						"NORMAL":1,
						"TEXCOORD_0":2,
						"COLOR_0":3,
						"COLOR_1":4,
						"JOINTS_0":5,
						"WEIGHTS_0":6
					},
					"indices":7,
					"material":0
				}
			]
		},
		{
			"name":"Body__mCapVis.001",
			"primitives":[
				{
					"attributes":{
						"POSITION":9,
						"NORMAL":10,
						"TEXCOORD_0":11,
						"JOINTS_0":12,
						"WEIGHTS_0":13
					},
					"indices":14,
					"material":1
				}
			]
		},
		{
			"name":"Body__mEye.005",
			"primitives":[
				{
					"attributes":{
						"POSITION":15,
						"NORMAL":16,
						"TEXCOORD_0":17,
						"JOINTS_0":18,
						"WEIGHTS_0":19
					},
					"indices":20,
					"material":2
				}
			]
		},
		{
			"name":"Body__mMouth.004",
			"primitives":[
				{
					"attributes":{
						"POSITION":21,
						"NORMAL":22,
						"TEXCOORD_0":23,
						"JOINTS_0":24,
						"WEIGHTS_0":25
					},
					"indices":26,
					"material":3
				}
			]
		}
	],
	"textures":[
		{
			"sampler":0,
			"source":0
		},
		{
			"sampler":0,
			"source":0
		},
		{
			"sampler":0,
			"source":1
		},
		{
			"sampler":0,
			"source":2
		}
	],
	"images":[
		{
			"mimeType":"image/png",
			"name":"mBody_Alb",
			"uri":"mBody_Alb.png"
		},
		{
			"mimeType":"image/png",
			"name":"mEye_Alb.0",
			"uri":"mEye_Alb_0.png"
		},
		{
			"mimeType":"image/png",
			"name":"mMouth_Alb.0",
			"uri":"mMouth_Alb_0.png"
		}
	],
	"skins":[
		{
			"inverseBindMatrices":8,
			"joints":[
				38,
				37,
				36,
				19,
				18,
				17,
				5,
				4,
				3,
				2,
				1,
				0,
				11,
				10,
				9,
				8,
				7,
				6,
				16,
				15,
				12,
				13,
				14,
				35,
				25,
				24,
				23,
				22,
				21,
				20,
				31,
				30,
				29,
				28,
				27,
				26,
				34,
				33,
				32
			],
			"name":"Armature"
		}
	],
	"accessors":[
		{
			"bufferView":0,
			"componentType":5126,
			"count":1269,
			"max":[
				4.411631107330322,
				9.703192710876465,
				2.687905788421631
			],
			"min":[
				-4.411631107330322,
				0.03671348839998245,
				-3.3590354919433594
			],
			"type":"VEC3"
		},
		{
			"bufferView":1,
			"componentType":5126,
			"count":1269,
			"type":"VEC3"
		},
		{
			"bufferView":2,
			"componentType":5126,
			"count":1269,
			"type":"VEC2"
		},
		{
			"bufferView":3,
			"componentType":5121,
			"count":1269,
			"normalized":true,
			"type":"VEC4"
		},
		{
			"bufferView":4,
			"componentType":5123,
			"count":1269,
			"normalized":true,
			"type":"VEC4"
		},
		{
			"bufferView":5,
			"componentType":5121,
			"count":1269,
			"type":"VEC4"
		},
		{
			"bufferView":6,
			"componentType":5126,
			"count":1269,
			"type":"VEC4"
		},
		{
			"bufferView":7,
			"componentType":5123,
			"count":6480,
			"type":"SCALAR"
		},
		{
			"bufferView":8,
			"componentType":5126,
			"count":39,
			"type":"MAT4"
		},
		{
			"bufferView":9,
			"componentType":5126,
			"count":356,
			"max":[
				3.14764404296875,
				10.727729797363281,
				-0.2832479476928711
			],
			"min":[
				-3.14764404296875,
				8.416400909423828,
				-1.60165274143219
			],
			"type":"VEC3"
		},
		{
			"bufferView":10,
			"componentType":5126,
			"count":356,
			"type":"VEC3"
		},
		{
			"bufferView":11,
			"componentType":5126,
			"count":356,
			"type":"VEC2"
		},
		{
			"bufferView":12,
			"componentType":5121,
			"count":356,
			"type":"VEC4"
		},
		{
			"bufferView":13,
			"componentType":5126,
			"count":356,
			"type":"VEC4"
		},
		{
			"bufferView":14,
			"componentType":5123,
			"count":1764,
			"type":"SCALAR"
		},
		{
			"bufferView":15,
			"componentType":5126,
			"count":335,
			"max":[
				3.0587220191955566,
				9.711808204650879,
				3.578683614730835
			],
			"min":[
				-3.0587220191955566,
				6.292301177978516,
				-1.0373506546020508
			],
			"type":"VEC3"
		},
		{
			"bufferView":16,
			"componentType":5126,
			"count":335,
			"type":"VEC3"
		},
		{
			"bufferView":17,
			"componentType":5126,
			"count":335,
			"type":"VEC2"
		},
		{
			"bufferView":18,
			"componentType":5121,
			"count":335,
			"type":"VEC4"
		},
		{
			"bufferView":19,
			"componentType":5126,
			"count":335,
			"type":"VEC4"
		},
		{
			"bufferView":20,
			"componentType":5123,
			"count":1788,
			"type":"SCALAR"
		},
		{
			"bufferView":21,
			"componentType":5126,
			"count":209,
			"max":[
				3.130542039871216,
				6.294247627258301,
				3.631098508834839
			],
			"min":[
				-3.130542039871216,
				4.314448833465576,
				0.19463422894477844
			],
			"type":"VEC3"
		},
		{
			"bufferView":22,
			"componentType":5126,
			"count":209,
			"type":"VEC3"
		},
		{
			"bufferView":23,
			"componentType":5126,
			"count":209,
			"type":"VEC2"
		},
		{
			"bufferView":24,
			"componentType":5121,
			"count":209,
			"type":"VEC4"
		},
		{
			"bufferView":25,
			"componentType":5126,
			"count":209,
			"type":"VEC4"
		},
		{
			"bufferView":26,
			"componentType":5123,
			"count":1092,
			"type":"SCALAR"
		}
	],
	"bufferViews":[
		{
			"buffer":0,
			"byteLength":15228,
			"byteOffset":0,
			"target":34962
		},
		{
			"buffer":0,
			"byteLength":15228,
			"byteOffset":15228,
			"target":34962
		},
		{
			"buffer":0,
			"byteLength":10152,
			"byteOffset":30456,
			"target":34962
		},
		{
			"buffer":0,
			"byteLength":5076,
			"byteOffset":40608,
			"target":34962
		},
		{
			"buffer":0,
			"byteLength":10152,
			"byteOffset":45684,
			"target":34962
		},
		{
			"buffer":0,
			"byteLength":5076,
			"byteOffset":55836,
			"target":34962
		},
		{
			"buffer":0,
			"byteLength":20304,
			"byteOffset":60912,
			"target":34962
		},
		{
			"buffer":0,
			"byteLength":12960,
			"byteOffset":81216,
			"target":34963
		},
		{
			"buffer":0,
			"byteLength":2496,
			"byteOffset":94176
		},
		{
			"buffer":0,
			"byteLength":4272,
			"byteOffset":96672,
			"target":34962
		},
		{
			"buffer":0,
			"byteLength":4272,
			"byteOffset":100944,
			"target":34962
		},
		{
			"buffer":0,
			"byteLength":2848,
			"byteOffset":105216,
			"target":34962
		},
		{
			"buffer":0,
			"byteLength":1424,
			"byteOffset":108064,
			"target":34962
		},
		{
			"buffer":0,
			"byteLength":5696,
			"byteOffset":109488,
			"target":34962
		},
		{
			"buffer":0,
			"byteLength":3528,
			"byteOffset":115184,
			"target":34963
		},
		{
			"buffer":0,
			"byteLength":4020,
			"byteOffset":118712,
			"target":34962
		},
		{
			"buffer":0,
			"byteLength":4020,
			"byteOffset":122732,
			"target":34962
		},
		{
			"buffer":0,
			"byteLength":2680,
			"byteOffset":126752,
			"target":34962
		},
		{
			"buffer":0,
			"byteLength":1340,
			"byteOffset":129432,
			"target":34962
		},
		{
			"buffer":0,
			"byteLength":5360,
			"byteOffset":130772,
			"target":34962
		},
		{
			"buffer":0,
			"byteLength":3576,
			"byteOffset":136132,
			"target":34963
		},
		{
			"buffer":0,
			"byteLength":2508,
			"byteOffset":139708,
			"target":34962
		},
		{
			"buffer":0,
			"byteLength":2508,
			"byteOffset":142216,
			"target":34962
		},
		{
			"buffer":0,
			"byteLength":1672,
			"byteOffset":144724,
			"target":34962
		},
		{
			"buffer":0,
			"byteLength":836,
			"byteOffset":146396,
			"target":34962
		},
		{
			"buffer":0,
			"byteLength":3344,
			"byteOffset":147232,
			"target":34962
		},
		{
			"buffer":0,
			"byteLength":2184,
			"byteOffset":150576,
			"target":34963
		}
	],
	"samplers":[
		{
			"magFilter":9729,
			"minFilter":9987
		}
	],
	"buffers":[
		{
			"byteLength":152760,
			"uri":"NastyaSemen.bin"
		}
	]
}
