{
	"asset":{
		"generator":"Khronos glTF Blender I/O v4.3.47",
		"version":"2.0"
	},
	"scene":0,
	"scenes":[
		{
			"name":"Scene",
			"nodes":[
				49
			]
		}
	],
	"nodes":[
		{
			"name":"Hand_L",
			"translation":[
				0.3100001811981201,
				-1.9539925233402755e-14,
				2.802369181154063e-08
			]
		},
		{
			"children":[
				0
			],
			"name":"Wrist_L",
			"translation":[
				1.2300002574920654,
				-1.4210854715202004e-14,
				1.1119087162114738e-07
			]
		},
		{
			"name":"Wrist_L_Sub",
			"translation":[
				0.7500002384185791,
				-7.105427357601002e-15,
				6.7799277303493e-08
			]
		},
		{
			"children":[
				1,
				2
			],
			"name":"Arm_2_L",
			"translation":[
				0.6700001955032349,
				4.440892098500626e-15,
				6.056758650174743e-08
			]
		},
		{
			"children":[
				3
			],
			"name":"Arm_1_L_Sub",
			"translation":[
				0.6700000762939453,
				-9.5367431640625e-07,
				6.056738754978142e-08
			]
		},
		{
			"children":[
				4
			],
			"name":"Arm_1_L",
			"rotation":[
				0,
				4.960618582572351e-10,
				0,
				1
			],
			"translation":[
				0.4500000476837158,
				-0.5,
				7.003546897976776e-08
			]
		},
		{
			"children":[
				5
			],
			"name":"Clavicle_L",
			"rotation":[
				0,
				-0.7071067094802856,
				0,
				0.7071068286895752
			],
			"translation":[
				4.762289051996049e-08,
				0.9623293876647949,
				0.7000004053115845
			]
		},
		{
			"name":"Hand_R",
			"translation":[
				-0.309999942779541,
				9.769962616701378e-14,
				-8.776788718023454e-08
			]
		},
		{
			"children":[
				7
			],
			"name":"Wrist_R",
			"translation":[
				-1.2300004959106445,
				9.414691248821327e-14,
				-3.4824029171431903e-07
			]
		},
		{
			"name":"Wrist_R_Sub",
			"translation":[
				-0.7500004768371582,
				8.881784197001252e-14,
				-2.123415470123291e-07
			]
		},
		{
			"children":[
				8,
				9
			],
			"name":"Arm_2_R",
			"translation":[
				-0.6700001955032349,
				8.08242361927114e-14,
				-1.8969203097185527e-07
			]
		},
		{
			"children":[
				10
			],
			"name":"Arm_1_R_Sub",
			"translation":[
				-0.6700003147125244,
				7.283063041541027e-14,
				-1.896914909593761e-07
			]
		},
		{
			"children":[
				11
			],
			"name":"Arm_1_R",
			"rotation":[
				0,
				9.177639981317043e-09,
				0,
				1
			],
			"translation":[
				-0.45000016689300537,
				-0.5000004768371582,
				-1.645836533725742e-07
			]
		},
		{
			"children":[
				12
			],
			"name":"Clavicle_R",
			"rotation":[
				0,
				-0.7071066498756409,
				0,
				0.70710688829422
			],
			"translation":[
				6.709554156714148e-08,
				0.9623298645019531,
				-0.7000000476837158
			]
		},
		{
			"name":"Z_Ear_L",
			"translation":[
				2.2614125327891088e-07,
				3.555436134338379,
				7.176406029429927e-07
			]
		},
		{
			"children":[
				14
			],
			"name":"Ear_1_L",
			"translation":[
				0.6000003814697266,
				4.683644771575928,
				1.7000007629394531
			]
		},
		{
			"name":"Z_Ear_R",
			"rotation":[
				0,
				-3.552713678800501e-15,
				0,
				1
			],
			"translation":[
				-2.6897072302745073e-07,
				3.555436134338379,
				7.41482608646038e-07
			]
		},
		{
			"children":[
				16
			],
			"name":"Ear_1_R",
			"rotation":[
				0,
				1.1920928955078125e-07,
				0,
				1
			],
			"translation":[
				0.6000005006790161,
				4.683644771575928,
				-1.6999998092651367
			]
		},
		{
			"name":"Feel",
			"rotation":[
				0,
				-0.7071066498756409,
				0,
				0.70710688829422
			],
			"translation":[
				-0.24999994039535522,
				2.000000476837158,
				4.510082192155096e-07
			]
		},
		{
			"children":[
				15,
				17,
				18
			],
			"name":"Head",
			"translation":[
				2.1353534052082068e-08,
				0.35825300216674805,
				7.473745711195079e-08
			]
		},
		{
			"children":[
				19
			],
			"name":"Neck",
			"translation":[
				7.229353826687657e-08,
				1.2128849029541016,
				2.5302730932708073e-07
			]
		},
		{
			"children":[
				6,
				13,
				20
			],
			"name":"Spine_3",
			"translation":[
				7.152566894319534e-08,
				1.200000286102295,
				2.5033949668795685e-07
			]
		},
		{
			"children":[
				21
			],
			"name":"Spine_2",
			"translation":[
				7.152561209977648e-08,
				1.200000286102295,
				2.5033958195308514e-07
			]
		},
		{
			"children":[
				22
			],
			"name":"Spine_1",
			"rotation":[
				0,
				0.7071066498756409,
				0,
				0.70710688829422
			],
			"translation":[
				0,
				-7.152557373046875e-07,
				2.842170943040401e-14
			]
		},
		{
			"name":"Toe_L",
			"translation":[
				0.2301005870103836,
				-0.12022262811660767,
				4.484484250610876e-08
			]
		},
		{
			"children":[
				24
			],
			"name":"Ankle_L",
			"translation":[
				3.101777679148654e-08,
				-0.5205137729644775,
				-1.1916668540834507e-07
			]
		},
		{
			"children":[
				25
			],
			"name":"Leg_2_L_Sub",
			"translation":[
				3.090798372795689e-06,
				-0.3055119514465332,
				-5.956204418566813e-08
			]
		},
		{
			"children":[
				26
			],
			"name":"Leg_2_L",
			"translation":[
				0.00021580193424597383,
				-0.7657172679901123,
				-1.7877194125048845e-07
			]
		},
		{
			"children":[
				27
			],
			"name":"Leg_1_L_Sub",
			"translation":[
				5.524951518509624e-08,
				-0.9269323348999023,
				-1.788139485370266e-07
			]
		},
		{
			"children":[
				28
			],
			"name":"Leg_1_L",
			"translation":[
				-2.6871518343796197e-08,
				0.28750038146972656,
				-0.6999154686927795
			]
		},
		{
			"name":"Toe_R",
			"rotation":[
				0,
				1,
				0,
				7.549789415861596e-08
			],
			"translation":[
				0.23010064661502838,
				-0.12022262811660767,
				-1.0065127398206641e-08
			]
		},
		{
			"children":[
				30
			],
			"name":"Ankle_R",
			"translation":[
				1.0961664997921616e-07,
				-0.5205131769180298,
				-1.1921639497813885e-07
			]
		},
		{
			"children":[
				31
			],
			"name":"Leg_2_R_Sub",
			"translation":[
				6.42367083969475e-08,
				-0.30551207065582275,
				-5.961175020274823e-08
			]
		},
		{
			"children":[
				32
			],
			"name":"Leg_2_R",
			"translation":[
				0.00016212563787121326,
				-0.7657172679901123,
				-1.7882103975352948e-07
			]
		},
		{
			"children":[
				33
			],
			"name":"Leg_1_R_Sub",
			"rotation":[
				0,
				3.552713678800501e-15,
				0,
				1
			],
			"translation":[
				1.952122374859755e-07,
				-0.9269323348999023,
				-1.788139485370266e-07
			]
		},
		{
			"children":[
				34
			],
			"name":"Leg_1_R",
			"rotation":[
				0,
				-1.1920928955078125e-07,
				0,
				1
			],
			"translation":[
				-7.42963379707362e-09,
				0.28800034523010254,
				0.7000002861022949
			]
		},
		{
			"name":"Z_S_Tail",
			"translation":[
				1.100756287574768,
				0.4217638075351715,
				-3.679220412777795e-07
			]
		},
		{
			"children":[
				36
			],
			"name":"S_Tail_3",
			"translation":[
				1.558061957359314,
				0.547953188419342,
				-5.105455898046785e-07
			]
		},
		{
			"children":[
				37
			],
			"name":"S_Tail_2",
			"translation":[
				1.328783631324768,
				0.43951651453971863,
				-4.296157385397237e-07
			]
		},
		{
			"children":[
				38
			],
			"name":"S_Tail_1",
			"rotation":[
				0,
				1,
				0,
				1.9470718370939721e-07
			],
			"translation":[
				-1.307815670967102,
				0.4162810742855072,
				-8.984653732113657e-08
			]
		},
		{
			"children":[
				39
			],
			"name":"TailRoot",
			"translation":[
				0,
				1.4654943925052066e-14,
				1.2423525786336224e-21
			]
		},
		{
			"children":[
				29,
				35,
				40
			],
			"name":"Waist",
			"rotation":[
				0,
				-0.7071066498756409,
				0,
				0.70710688829422
			],
			"translation":[
				0,
				-7.152557373046875e-07,
				2.842170943040401e-14
			]
		},
		{
			"children":[
				23,
				41
			],
			"name":"Skl_Root",
			"translation":[
				0,
				2.6000001430511475,
				0
			]
		},
		{
			"children":[
				42
			],
			"name":"Trans_Root"
		},
		{
			"children":[
				43
			],
			"name":"Root",
			"rotation":[
				-0.7071067690849304,
				0,
				0,
				0.7071067690849304
			]
		},
		{
			"mesh":0,
			"name":"Body__mBody",
			"skin":0
		},
		{
			"mesh":1,
			"name":"Body__mCapVis",
			"skin":0
		},
		{
			"mesh":2,
			"name":"Body__mEye",
			"skin":0
		},
		{
			"mesh":3,
			"name":"Body__mMouth",
			"skin":0
		},
		{
			"children":[
				45,
				46,
				47,
				48,
				44
			],
			"name":"Armature",
			"rotation":[
				0.7071068286895752,
				0,
				0,
				0.7071068286895752
			]
		}
	],
	"materials":[
		{
			"doubleSided":true,
			"name":"mBody.002",
			"pbrMetallicRoughness":{
				"baseColorTexture":{
					"index":0
				},
				"metallicFactor":0,
				"roughnessFactor":0.5
			}
		},
		{
			"doubleSided":true,
			"name":"mCapVis.002",
			"pbrMetallicRoughness":{
				"baseColorTexture":{
					"index":1
				},
				"metallicFactor":0,
				"roughnessFactor":0.5
			}
		},
		{
			"doubleSided":true,
			"name":"mEye.002",
			"pbrMetallicRoughness":{
				"baseColorTexture":{
					"index":2
				},
				"metallicFactor":0,
				"roughnessFactor":0.5
			}
		},
		{
			"doubleSided":true,
			"name":"mMouth.002",
			"pbrMetallicRoughness":{
				"baseColorTexture":{
					"index":3
				},
				"metallicFactor":0,
				"roughnessFactor":0.5
			}
		}
	],
	"meshes":[
		{
			"name":"Body__mBody.002",
			"primitives":[
				{
					"attributes":{
						"POSITION":0,
						"NORMAL":1,
						"TEXCOORD_0":2,
						"COLOR_0":3,
						"COLOR_1":4,
						"JOINTS_0":5,
						"WEIGHTS_0":6
					},
					"indices":7,
					"material":0
				}
			]
		},
		{
			"name":"Body__mCapVis.002",
			"primitives":[
				{
					"attributes":{
						"POSITION":9,
						"NORMAL":10,
						"TEXCOORD_0":11,
						"JOINTS_0":12,
						"WEIGHTS_0":13
					},
					"indices":14,
					"material":1
				}
			]
		},
		{
			"name":"Body__mEye.002",
			"primitives":[
				{
					"attributes":{
						"POSITION":15,
						"NORMAL":16,
						"TEXCOORD_0":17,
						"JOINTS_0":18,
						"WEIGHTS_0":19
					},
					"indices":20,
					"material":2
				}
			]
		},
		{
			"name":"Body__mMouth.002",
			"primitives":[
				{
					"attributes":{
						"POSITION":21,
						"NORMAL":22,
						"TEXCOORD_0":23,
						"JOINTS_0":24,
						"WEIGHTS_0":25
					},
					"indices":26,
					"material":3
				}
			]
		}
	],
	"textures":[
		{
			"sampler":0,
			"source":0
		},
		{
			"sampler":0,
			"source":0
		},
		{
			"sampler":0,
			"source":1
		},
		{
			"sampler":0,
			"source":2
		}
	],
	"images":[
		{
			"mimeType":"image/png",
			"name":"mBody_Alb",
			"uri":"mBody_Alb.png"
		},
		{
			"mimeType":"image/png",
			"name":"mEye_Alb.0",
			"uri":"mEye_Alb_0.png"
		},
		{
			"mimeType":"image/png",
			"name":"mMouth_Alb.0",
			"uri":"mMouth_Alb_0.png"
		}
	],
	"skins":[
		{
			"inverseBindMatrices":8,
			"joints":[
				44,
				43,
				42,
				23,
				22,
				21,
				6,
				5,
				4,
				3,
				1,
				0,
				2,
				13,
				12,
				11,
				10,
				8,
				7,
				9,
				20,
				19,
				15,
				14,
				17,
				16,
				18,
				41,
				29,
				28,
				27,
				26,
				25,
				24,
				35,
				34,
				33,
				32,
				31,
				30,
				40,
				39,
				38,
				37,
				36
			],
			"name":"Armature"
		}
	],
	"accessors":[
		{
			"bufferView":0,
			"componentType":5126,
			"count":1211,
			"max":[
				4.276280879974365,
				11.952499389648438,
				3.041856288909912
			],
			"min":[
				-4.276280879974365,
				-3.454196573215995e-08,
				-5.313190460205078
			],
			"type":"VEC3"
		},
		{
			"bufferView":1,
			"componentType":5126,
			"count":1211,
			"type":"VEC3"
		},
		{
			"bufferView":2,
			"componentType":5126,
			"count":1211,
			"type":"VEC2"
		},
		{
			"bufferView":3,
			"componentType":5121,
			"count":1211,
			"normalized":true,
			"type":"VEC4"
		},
		{
			"bufferView":4,
			"componentType":5123,
			"count":1211,
			"normalized":true,
			"type":"VEC4"
		},
		{
			"bufferView":5,
			"componentType":5121,
			"count":1211,
			"type":"VEC4"
		},
		{
			"bufferView":6,
			"componentType":5126,
			"count":1211,
			"type":"VEC4"
		},
		{
			"bufferView":7,
			"componentType":5123,
			"count":5322,
			"type":"SCALAR"
		},
		{
			"bufferView":8,
			"componentType":5126,
			"count":45,
			"type":"MAT4"
		},
		{
			"bufferView":9,
			"componentType":5126,
			"count":501,
			"max":[
				3.104506015777588,
				14.861899375915527,
				3.146820068359375
			],
			"min":[
				-3.104506015777588,
				10.147850036621094,
				-1.914645791053772
			],
			"type":"VEC3"
		},
		{
			"bufferView":10,
			"componentType":5126,
			"count":501,
			"type":"VEC3"
		},
		{
			"bufferView":11,
			"componentType":5126,
			"count":501,
			"type":"VEC2"
		},
		{
			"bufferView":12,
			"componentType":5121,
			"count":501,
			"type":"VEC4"
		},
		{
			"bufferView":13,
			"componentType":5126,
			"count":501,
			"type":"VEC4"
		},
		{
			"bufferView":14,
			"componentType":5123,
			"count":2130,
			"type":"SCALAR"
		},
		{
			"bufferView":15,
			"componentType":5126,
			"count":167,
			"max":[
				3.521461009979248,
				11.886449813842773,
				3.087987184524536
			],
			"min":[
				-3.521461009979248,
				8.416902542114258,
				-0.05815662443637848
			],
			"type":"VEC3"
		},
		{
			"bufferView":16,
			"componentType":5126,
			"count":167,
			"type":"VEC3"
		},
		{
			"bufferView":17,
			"componentType":5126,
			"count":167,
			"type":"VEC2"
		},
		{
			"bufferView":18,
			"componentType":5121,
			"count":167,
			"type":"VEC4"
		},
		{
			"bufferView":19,
			"componentType":5126,
			"count":167,
			"type":"VEC4"
		},
		{
			"bufferView":20,
			"componentType":5123,
			"count":822,
			"type":"SCALAR"
		},
		{
			"bufferView":21,
			"componentType":5126,
			"count":126,
			"max":[
				3.521461009979248,
				8.42982292175293,
				3.087987184524536
			],
			"min":[
				-3.521461009979248,
				6.321624755859375,
				-0.17478597164154053
			],
			"type":"VEC3"
		},
		{
			"bufferView":22,
			"componentType":5126,
			"count":126,
			"type":"VEC3"
		},
		{
			"bufferView":23,
			"componentType":5126,
			"count":126,
			"type":"VEC2"
		},
		{
			"bufferView":24,
			"componentType":5121,
			"count":126,
			"type":"VEC4"
		},
		{
			"bufferView":25,
			"componentType":5126,
			"count":126,
			"type":"VEC4"
		},
		{
			"bufferView":26,
			"componentType":5123,
			"count":636,
			"type":"SCALAR"
		}
	],
	"bufferViews":[
		{
			"buffer":0,
			"byteLength":14532,
			"byteOffset":0,
			"target":34962
		},
		{
			"buffer":0,
			"byteLength":14532,
			"byteOffset":14532,
			"target":34962
		},
		{
			"buffer":0,
			"byteLength":9688,
			"byteOffset":29064,
			"target":34962
		},
		{
			"buffer":0,
			"byteLength":4844,
			"byteOffset":38752,
			"target":34962
		},
		{
			"buffer":0,
			"byteLength":9688,
			"byteOffset":43596,
			"target":34962
		},
		{
			"buffer":0,
			"byteLength":4844,
			"byteOffset":53284,
			"target":34962
		},
		{
			"buffer":0,
			"byteLength":19376,
			"byteOffset":58128,
			"target":34962
		},
		{
			"buffer":0,
			"byteLength":10644,
			"byteOffset":77504,
			"target":34963
		},
		{
			"buffer":0,
			"byteLength":2880,
			"byteOffset":88148
		},
		{
			"buffer":0,
			"byteLength":6012,
			"byteOffset":91028,
			"target":34962
		},
		{
			"buffer":0,
			"byteLength":6012,
			"byteOffset":97040,
			"target":34962
		},
		{
			"buffer":0,
			"byteLength":4008,
			"byteOffset":103052,
			"target":34962
		},
		{
			"buffer":0,
			"byteLength":2004,
			"byteOffset":107060,
			"target":34962
		},
		{
			"buffer":0,
			"byteLength":8016,
			"byteOffset":109064,
			"target":34962
		},
		{
			"buffer":0,
			"byteLength":4260,
			"byteOffset":117080,
			"target":34963
		},
		{
			"buffer":0,
			"byteLength":2004,
			"byteOffset":121340,
			"target":34962
		},
		{
			"buffer":0,
			"byteLength":2004,
			"byteOffset":123344,
			"target":34962
		},
		{
			"buffer":0,
			"byteLength":1336,
			"byteOffset":125348,
			"target":34962
		},
		{
			"buffer":0,
			"byteLength":668,
			"byteOffset":126684,
			"target":34962
		},
		{
			"buffer":0,
			"byteLength":2672,
			"byteOffset":127352,
			"target":34962
		},
		{
			"buffer":0,
			"byteLength":1644,
			"byteOffset":130024,
			"target":34963
		},
		{
			"buffer":0,
			"byteLength":1512,
			"byteOffset":131668,
			"target":34962
		},
		{
			"buffer":0,
			"byteLength":1512,
			"byteOffset":133180,
			"target":34962
		},
		{
			"buffer":0,
			"byteLength":1008,
			"byteOffset":134692,
			"target":34962
		},
		{
			"buffer":0,
			"byteLength":504,
			"byteOffset":135700,
			"target":34962
		},
		{
			"buffer":0,
			"byteLength":2016,
			"byteOffset":136204,
			"target":34962
		},
		{
			"buffer":0,
			"byteLength":1272,
			"byteOffset":138220,
			"target":34963
		}
	],
	"samplers":[
		{
			"magFilter":9729,
			"minFilter":9987
		}
	],
	"buffers":[
		{
			"byteLength":139492,
			"uri":"PolyaKostya.bin"
		}
	]
}
