{
	"asset":{
		"generator":"Khronos glTF Blender I/O v4.3.47",
		"version":"2.0"
	},
	"scene":0,
	"scenes":[
		{
			"name":"Scene",
			"nodes":[
				46
			]
		}
	],
	"nodes":[
		{
			"name":"Hand_L",
			"translation":[
				0.7831040024757385,
				-3.7051606227578304e-08,
				0.49076318740844727
			]
		},
		{
			"children":[
				0
			],
			"name":"Wrist_L",
			"translation":[
				0.9000003337860107,
				-7.993605777301127e-15,
				8.135921802931989e-08
			]
		},
		{
			"children":[
				1
			],
			"name":"Arm_2_L",
			"translation":[
				0.5820004940032959,
				6.217248937900877e-15,
				5.261210844764719e-08
			]
		},
		{
			"children":[
				2
			],
			"name":"Arm_1_L_Sub",
			"translation":[
				0.6782581806182861,
				1.509903313490213e-14,
				6.131388374797098e-08
			]
		},
		{
			"children":[
				3
			],
			"name":"Arm_1_L",
			"rotation":[
				0,
				4.960618582572351e-10,
				0,
				1
			],
			"translation":[
				0.630000114440918,
				2.5757174171303632e-14,
				5.6326399544559536e-08
			]
		},
		{
			"children":[
				4
			],
			"name":"Clavicle_L",
			"rotation":[
				0,
				-0.7071067094802856,
				0,
				0.7071068286895752
			],
			"translation":[
				5.406843683886109e-08,
				1.1824755668640137,
				1.1800004243850708
			]
		},
		{
			"name":"Hand_R",
			"translation":[
				-0.7830005288124084,
				-3.706936624325863e-08,
				0.49099990725517273
			]
		},
		{
			"children":[
				6
			],
			"name":"Wrist_R",
			"translation":[
				-0.9000003337860107,
				1.0391687510491465e-13,
				-2.548098336774274e-07
			]
		},
		{
			"children":[
				7
			],
			"name":"Arm_2_R",
			"translation":[
				-0.5819125175476074,
				9.414691248821327e-14,
				-1.6475209463351348e-07
			]
		},
		{
			"children":[
				8
			],
			"name":"Arm_1_R_Sub",
			"translation":[
				-0.6782612800598145,
				8.704148513061227e-14,
				-1.9203056922378892e-07
			]
		},
		{
			"children":[
				9
			],
			"name":"Arm_1_R",
			"rotation":[
				0,
				9.177639981317043e-09,
				0,
				1
			],
			"translation":[
				-0.6300002336502075,
				7.993605777301127e-14,
				-1.668030620294303e-07
			]
		},
		{
			"children":[
				10
			],
			"name":"Clavicle_R",
			"rotation":[
				0,
				-0.7071066498756409,
				0,
				0.70710688829422
			],
			"translation":[
				8.689364960901003e-08,
				1.1824769973754883,
				-1.1800000667572021
			]
		},
		{
			"name":"Z_Ear_L",
			"translation":[
				-1.1995068788528442,
				0.03441137075424194,
				1.55669681589643e-07
			]
		},
		{
			"children":[
				12
			],
			"name":"Ear_1_L",
			"translation":[
				0.4000003933906555,
				6.86747407913208,
				2.2000014781951904
			]
		},
		{
			"name":"Z_Ear_R",
			"rotation":[
				0,
				-3.552713678800501e-15,
				0,
				1
			],
			"translation":[
				-1.1995066404342651,
				0.03441709280014038,
				-3.494750444588135e-08
			]
		},
		{
			"children":[
				14
			],
			"name":"Ear_1_R",
			"rotation":[
				0,
				1.1920928955078125e-07,
				0,
				1
			],
			"translation":[
				0.40000030398368835,
				6.86747407913208,
				-2.199998378753662
			]
		},
		{
			"name":"Feel",
			"rotation":[
				0,
				-0.7071066498756409,
				0,
				0.70710688829422
			],
			"translation":[
				-0.17598937451839447,
				3.0832772254943848,
				6.669984600193857e-07
			]
		},
		{
			"children":[
				13,
				15,
				16
			],
			"name":"Head",
			"translation":[
				2.9802553758173644e-09,
				0.05000019073486328,
				1.043077180185037e-08
			]
		},
		{
			"children":[
				17
			],
			"name":"Neck",
			"translation":[
				1.020715743038636e-07,
				1.7124757766723633,
				3.5725031466427026e-07
			]
		},
		{
			"children":[
				5,
				11,
				18
			],
			"name":"Spine_3",
			"translation":[
				7.968026238813763e-08,
				1.3368124961853027,
				2.7888074782822514e-07
			]
		},
		{
			"children":[
				19
			],
			"name":"Spine_2",
			"translation":[
				8.286750130537257e-08,
				1.3902854919433594,
				2.9003601298427384e-07
			]
		},
		{
			"children":[
				20
			],
			"name":"Spine_1",
			"rotation":[
				0,
				0.7071066498756409,
				0,
				0.70710688829422
			],
			"translation":[
				1.136869054842518e-13,
				-4.7683712978141557e-07,
				2.842170943040401e-14
			]
		},
		{
			"name":"Toe_L",
			"translation":[
				0.3686372637748718,
				-0.19996173679828644,
				-4.743059278666806e-08
			]
		},
		{
			"children":[
				22
			],
			"name":"Ankle_L",
			"translation":[
				1.2337158295849804e-05,
				-0.6373659372329712,
				-1.1920690923261645e-07
			]
		},
		{
			"children":[
				23
			],
			"name":"Leg_2_L_Sub",
			"translation":[
				1.2241784475008899e-08,
				-0.20538318157196045,
				-2.531308496145357e-14
			]
		},
		{
			"children":[
				24
			],
			"name":"Leg_2_L",
			"translation":[
				6.089526749519791e-08,
				-1.021652102470398,
				-2.3841860752327193e-07
			]
		},
		{
			"children":[
				25
			],
			"name":"Leg_1_L_Sub",
			"rotation":[
				0,
				-5.960464477539063e-08,
				0,
				1
			],
			"translation":[
				2.040663105162821e-08,
				-0.3423647880554199,
				-7.152557941481064e-07
			]
		},
		{
			"children":[
				26
			],
			"name":"Leg_1_L",
			"translation":[
				1.0617068824103626e-07,
				0.07372736930847168,
				-1.0499999523162842
			]
		},
		{
			"name":"Toe_R",
			"rotation":[
				0,
				1,
				0,
				7.549789415861596e-08
			],
			"translation":[
				0.36863699555397034,
				-0.19996146857738495,
				-1.3532346088140912e-07
			]
		},
		{
			"children":[
				28
			],
			"name":"Ankle_R",
			"translation":[
				1.226476797455689e-05,
				-0.6373682618141174,
				-1.1920982956326043e-07
			]
		},
		{
			"children":[
				29
			],
			"name":"Leg_2_R_Sub",
			"translation":[
				-1.8770197840467517e-08,
				-0.2053830623626709,
				-3.1086244689504383e-15
			]
		},
		{
			"children":[
				30
			],
			"name":"Leg_2_R",
			"translation":[
				-9.337000506093318e-08,
				-1.021652340888977,
				-2.384185791015625e-07
			]
		},
		{
			"children":[
				31
			],
			"name":"Leg_1_R_Sub",
			"rotation":[
				0,
				3.552713678800501e-15,
				0,
				1
			],
			"translation":[
				-3.1289125956845965e-08,
				-0.3423643112182617,
				-3.5762786865234375e-07
			]
		},
		{
			"children":[
				32
			],
			"name":"Leg_1_R",
			"rotation":[
				0,
				-1.7881393432617188e-07,
				0,
				1
			],
			"translation":[
				-1.1495974661102082e-07,
				0.07372879981994629,
				1.0499999523162842
			]
		},
		{
			"name":"Z_Tail",
			"translation":[
				1.000000238418579,
				-2.0504461417658604e-07,
				-2.5431182848478784e-07
			]
		},
		{
			"children":[
				34
			],
			"name":"Tail_2",
			"rotation":[
				0,
				-5.960464477539063e-08,
				0,
				1
			],
			"translation":[
				1.0000001192092896,
				-2.8054253675691143e-07,
				-1.3510252472315187e-07
			]
		},
		{
			"children":[
				35
			],
			"name":"Tail_1",
			"rotation":[
				0,
				1,
				0,
				1.9470718370939721e-07
			],
			"translation":[
				-1.6000007390975952,
				-1.0712961966419243e-06,
				-4.0689940306037897e-07
			]
		},
		{
			"children":[
				36
			],
			"name":"TailRoot",
			"translation":[
				0,
				1.4654943925052066e-14,
				0
			]
		},
		{
			"children":[
				27,
				33,
				37
			],
			"name":"Waist",
			"rotation":[
				0,
				-0.7071066498756409,
				0,
				0.70710688829422
			],
			"translation":[
				0,
				1.4654943925052066e-14,
				0
			]
		},
		{
			"children":[
				21,
				38
			],
			"name":"Skl_Root",
			"translation":[
				0,
				2.548862934112549,
				0
			]
		},
		{
			"children":[
				39
			],
			"name":"Trans_Root"
		},
		{
			"children":[
				40
			],
			"name":"Root",
			"rotation":[
				-0.7071067690849304,
				0,
				0,
				0.7071067690849304
			]
		},
		{
			"mesh":0,
			"name":"Body__mBody",
			"skin":0
		},
		{
			"mesh":1,
			"name":"Body__mCapVis",
			"skin":0
		},
		{
			"mesh":2,
			"name":"Body__mEye",
			"skin":0
		},
		{
			"mesh":3,
			"name":"Body__mMouth",
			"skin":0
		},
		{
			"children":[
				42,
				43,
				44,
				45,
				41
			],
			"name":"Armature",
			"rotation":[
				0.7071068286895752,
				0,
				0,
				0.7071068286895752
			]
		}
	],
	"materials":[
		{
			"doubleSided":true,
			"name":"mBody.010",
			"pbrMetallicRoughness":{
				"baseColorTexture":{
					"index":0
				},
				"metallicFactor":0,
				"roughnessFactor":0.5
			}
		},
		{
			"doubleSided":true,
			"name":"mCapVis.004",
			"pbrMetallicRoughness":{
				"baseColorTexture":{
					"index":1
				},
				"metallicFactor":0,
				"roughnessFactor":0.5
			}
		},
		{
			"doubleSided":true,
			"name":"mEye.010",
			"pbrMetallicRoughness":{
				"baseColorTexture":{
					"index":2
				},
				"metallicFactor":0,
				"roughnessFactor":0.5
			}
		},
		{
			"doubleSided":true,
			"name":"mMouth.007",
			"pbrMetallicRoughness":{
				"baseColorTexture":{
					"index":3
				},
				"metallicFactor":0,
				"roughnessFactor":0.5
			}
		}
	],
	"meshes":[
		{
			"name":"Body__mBody.010",
			"primitives":[
				{
					"attributes":{
						"POSITION":0,
						"NORMAL":1,
						"TEXCOORD_0":2,
						"COLOR_0":3,
						"COLOR_1":4,
						"JOINTS_0":5,
						"WEIGHTS_0":6
					},
					"indices":7,
					"material":0
				}
			]
		},
		{
			"name":"Body__mCapVis.004",
			"primitives":[
				{
					"attributes":{
						"POSITION":9,
						"NORMAL":10,
						"TEXCOORD_0":11,
						"JOINTS_0":12,
						"WEIGHTS_0":13
					},
					"indices":14,
					"material":1
				}
			]
		},
		{
			"name":"Body__mEye.010",
			"primitives":[
				{
					"attributes":{
						"POSITION":15,
						"NORMAL":16,
						"TEXCOORD_0":17,
						"JOINTS_0":18,
						"WEIGHTS_0":19
					},
					"indices":20,
					"material":2
				}
			]
		},
		{
			"name":"Body__mMouth.007",
			"primitives":[
				{
					"attributes":{
						"POSITION":21,
						"NORMAL":22,
						"TEXCOORD_0":23,
						"JOINTS_0":24,
						"WEIGHTS_0":25
					},
					"indices":26,
					"material":3
				}
			]
		}
	],
	"textures":[
		{
			"sampler":0,
			"source":0
		},
		{
			"sampler":0,
			"source":0
		},
		{
			"sampler":0,
			"source":1
		},
		{
			"sampler":0,
			"source":2
		}
	],
	"images":[
		{
			"mimeType":"image/png",
			"name":"mBody_Alb",
			"uri":"mBody_Alb.png"
		},
		{
			"mimeType":"image/png",
			"name":"mEye_Alb.0",
			"uri":"mEye_Alb_0.png"
		},
		{
			"mimeType":"image/png",
			"name":"mMouth_Alb.0",
			"uri":"mMouth_Alb_0.png"
		}
	],
	"skins":[
		{
			"inverseBindMatrices":8,
			"joints":[
				41,
				40,
				39,
				21,
				20,
				19,
				5,
				4,
				3,
				2,
				1,
				0,
				11,
				10,
				9,
				8,
				7,
				6,
				18,
				17,
				13,
				12,
				15,
				14,
				16,
				38,
				27,
				26,
				25,
				24,
				23,
				22,
				33,
				32,
				31,
				30,
				29,
				28,
				37,
				36,
				35,
				34
			],
			"name":"Armature"
		}
	],
	"accessors":[
		{
			"bufferView":0,
			"componentType":5126,
			"count":1392,
			"max":[
				4.788473129272461,
				13.660809516906738,
				4.4575910568237305
			],
			"min":[
				-4.788473129272461,
				0.003595959162339568,
				-3.9006667137145996
			],
			"type":"VEC3"
		},
		{
			"bufferView":1,
			"componentType":5126,
			"count":1392,
			"type":"VEC3"
		},
		{
			"bufferView":2,
			"componentType":5126,
			"count":1392,
			"type":"VEC2"
		},
		{
			"bufferView":3,
			"componentType":5121,
			"count":1392,
			"normalized":true,
			"type":"VEC4"
		},
		{
			"bufferView":4,
			"componentType":5123,
			"count":1392,
			"normalized":true,
			"type":"VEC4"
		},
		{
			"bufferView":5,
			"componentType":5121,
			"count":1392,
			"type":"VEC4"
		},
		{
			"bufferView":6,
			"componentType":5126,
			"count":1392,
			"type":"VEC4"
		},
		{
			"bufferView":7,
			"componentType":5123,
			"count":6816,
			"type":"SCALAR"
		},
		{
			"bufferView":8,
			"componentType":5126,
			"count":42,
			"type":"MAT4"
		},
		{
			"bufferView":9,
			"componentType":5126,
			"count":294,
			"max":[
				3.0037059783935547,
				14.321379661560059,
				1.0455769300460815
			],
			"min":[
				-3.0037059783935547,
				12.38523006439209,
				-1.6621359586715698
			],
			"type":"VEC3"
		},
		{
			"bufferView":10,
			"componentType":5126,
			"count":294,
			"type":"VEC3"
		},
		{
			"bufferView":11,
			"componentType":5126,
			"count":294,
			"type":"VEC2"
		},
		{
			"bufferView":12,
			"componentType":5121,
			"count":294,
			"type":"VEC4"
		},
		{
			"bufferView":13,
			"componentType":5126,
			"count":294,
			"type":"VEC4"
		},
		{
			"bufferView":14,
			"componentType":5123,
			"count":1428,
			"type":"SCALAR"
		},
		{
			"bufferView":15,
			"componentType":5126,
			"count":206,
			"max":[
				3.8448679447174072,
				13.660809516906738,
				4.318850040435791
			],
			"min":[
				-3.8448679447174072,
				9.300966262817383,
				-0.41222283244132996
			],
			"type":"VEC3"
		},
		{
			"bufferView":16,
			"componentType":5126,
			"count":206,
			"type":"VEC3"
		},
		{
			"bufferView":17,
			"componentType":5126,
			"count":206,
			"type":"VEC2"
		},
		{
			"bufferView":18,
			"componentType":5121,
			"count":206,
			"type":"VEC4"
		},
		{
			"bufferView":19,
			"componentType":5126,
			"count":206,
			"type":"VEC4"
		},
		{
			"bufferView":20,
			"componentType":5123,
			"count":1056,
			"type":"SCALAR"
		},
		{
			"bufferView":21,
			"componentType":5126,
			"count":129,
			"max":[
				3.8357949256896973,
				9.460636138916016,
				4.187448501586914
			],
			"min":[
				-3.8357949256896973,
				7.0973639488220215,
				-0.1727954000234604
			],
			"type":"VEC3"
		},
		{
			"bufferView":22,
			"componentType":5126,
			"count":129,
			"type":"VEC3"
		},
		{
			"bufferView":23,
			"componentType":5126,
			"count":129,
			"type":"VEC2"
		},
		{
			"bufferView":24,
			"componentType":5121,
			"count":129,
			"type":"VEC4"
		},
		{
			"bufferView":25,
			"componentType":5126,
			"count":129,
			"type":"VEC4"
		},
		{
			"bufferView":26,
			"componentType":5123,
			"count":624,
			"type":"SCALAR"
		}
	],
	"bufferViews":[
		{
			"buffer":0,
			"byteLength":16704,
			"byteOffset":0,
			"target":34962
		},
		{
			"buffer":0,
			"byteLength":16704,
			"byteOffset":16704,
			"target":34962
		},
		{
			"buffer":0,
			"byteLength":11136,
			"byteOffset":33408,
			"target":34962
		},
		{
			"buffer":0,
			"byteLength":5568,
			"byteOffset":44544,
			"target":34962
		},
		{
			"buffer":0,
			"byteLength":11136,
			"byteOffset":50112,
			"target":34962
		},
		{
			"buffer":0,
			"byteLength":5568,
			"byteOffset":61248,
			"target":34962
		},
		{
			"buffer":0,
			"byteLength":22272,
			"byteOffset":66816,
			"target":34962
		},
		{
			"buffer":0,
			"byteLength":13632,
			"byteOffset":89088,
			"target":34963
		},
		{
			"buffer":0,
			"byteLength":2688,
			"byteOffset":102720
		},
		{
			"buffer":0,
			"byteLength":3528,
			"byteOffset":105408,
			"target":34962
		},
		{
			"buffer":0,
			"byteLength":3528,
			"byteOffset":108936,
			"target":34962
		},
		{
			"buffer":0,
			"byteLength":2352,
			"byteOffset":112464,
			"target":34962
		},
		{
			"buffer":0,
			"byteLength":1176,
			"byteOffset":114816,
			"target":34962
		},
		{
			"buffer":0,
			"byteLength":4704,
			"byteOffset":115992,
			"target":34962
		},
		{
			"buffer":0,
			"byteLength":2856,
			"byteOffset":120696,
			"target":34963
		},
		{
			"buffer":0,
			"byteLength":2472,
			"byteOffset":123552,
			"target":34962
		},
		{
			"buffer":0,
			"byteLength":2472,
			"byteOffset":126024,
			"target":34962
		},
		{
			"buffer":0,
			"byteLength":1648,
			"byteOffset":128496,
			"target":34962
		},
		{
			"buffer":0,
			"byteLength":824,
			"byteOffset":130144,
			"target":34962
		},
		{
			"buffer":0,
			"byteLength":3296,
			"byteOffset":130968,
			"target":34962
		},
		{
			"buffer":0,
			"byteLength":2112,
			"byteOffset":134264,
			"target":34963
		},
		{
			"buffer":0,
			"byteLength":1548,
			"byteOffset":136376,
			"target":34962
		},
		{
			"buffer":0,
			"byteLength":1548,
			"byteOffset":137924,
			"target":34962
		},
		{
			"buffer":0,
			"byteLength":1032,
			"byteOffset":139472,
			"target":34962
		},
		{
			"buffer":0,
			"byteLength":516,
			"byteOffset":140504,
			"target":34962
		},
		{
			"buffer":0,
			"byteLength":2064,
			"byteOffset":141020,
			"target":34962
		},
		{
			"buffer":0,
			"byteLength":1248,
			"byteOffset":143084,
			"target":34963
		}
	],
	"samplers":[
		{
			"magFilter":9729,
			"minFilter":9987
		}
	],
	"buffers":[
		{
			"byteLength":144332,
			"uri":"VikaBovsh.bin"
		}
	]
}
