{
	"asset":{
		"generator":"Khronos glTF Blender I/O v4.3.47",
		"version":"2.0"
	},
	"scene":0,
	"scenes":[
		{
			"name":"Scene",
			"nodes":[
				57
			]
		}
	],
	"nodes":[
		{
			"name":"FaceBad",
			"scale":[
				1,
				0.9999999403953552,
				1
			],
			"translation":[
				0,
				12.316080093383789,
				4.392422199249268
			]
		},
		{
			"name":"FaceGood",
			"scale":[
				1,
				0.9999999403953552,
				1
			],
			"translation":[
				0,
				12.316080093383789,
				4.392422199249268
			]
		},
		{
			"name":"FaceNothing",
			"scale":[
				1,
				0.9999999403953552,
				1
			],
			"translation":[
				0,
				12.316080093383789,
				4.392422199249268
			]
		},
		{
			"children":[
				0,
				1,
				2
			],
			"name":"Mdl_Root"
		},
		{
			"name":"Hand_L",
			"rotation":[
				3.552713678800501e-15,
				0,
				-2.117582368135751e-22,
				1
			],
			"translation":[
				2.2680038114231138e-07,
				3.3199393101313035e-07,
				1.0000003576278687
			]
		},
		{
			"children":[
				4
			],
			"name":"Wrist_L",
			"rotation":[
				3.552713678800501e-15,
				0,
				-2.117582368135751e-22,
				1
			],
			"translation":[
				1.1000005006790161,
				4.074918820151652e-07,
				9.722651839183527e-08
			]
		},
		{
			"children":[
				5
			],
			"name":"Arm_2_L",
			"rotation":[
				3.552713678800501e-15,
				0,
				-2.117582368135751e-22,
				1
			],
			"translation":[
				0.9500004053115845,
				4.074919104368746e-07,
				4.8451482825839776e-08
			]
		},
		{
			"children":[
				6
			],
			"name":"Arm_1_L_Sub",
			"rotation":[
				3.552713678800501e-15,
				0,
				-2.117582368135751e-22,
				1
			],
			"translation":[
				0.9500001668930054,
				4.074919104368746e-07,
				1.011531765016116e-07
			]
		},
		{
			"children":[
				7
			],
			"name":"Arm_1_L",
			"rotation":[
				3.552713678800501e-15,
				4.960654109709139e-10,
				-4.235164736271502e-22,
				1
			],
			"translation":[
				0.7500008940696716,
				4.0749193885858404e-07,
				0.6000003218650818
			]
		},
		{
			"children":[
				8
			],
			"name":"Clavicle_L",
			"rotation":[
				-5.024295358284445e-15,
				-0.7071067094802856,
				-2.512147467383986e-15,
				0.7071068286895752
			],
			"scale":[
				1,
				0.9999998807907104,
				1
			],
			"translation":[
				-1.375255465063674e-09,
				0.900001049041748,
				0.8148574829101562
			]
		},
		{
			"name":"Hand_R",
			"rotation":[
				3.552713678800501e-15,
				1.262177448353619e-29,
				2.117582368135751e-22,
				1
			],
			"translation":[
				-2.6391825258542667e-07,
				3.3199404469996807e-07,
				1.0000004768371582
			]
		},
		{
			"children":[
				10
			],
			"name":"Wrist_R",
			"rotation":[
				3.552713678800501e-15,
				1.262177448353619e-29,
				2.117582368135751e-22,
				1
			],
			"translation":[
				-1.1000005006790161,
				4.074920241237123e-07,
				-3.4873903587140376e-07
			]
		},
		{
			"children":[
				11
			],
			"name":"Arm_2_R",
			"rotation":[
				3.552713678800501e-15,
				1.262177448353619e-29,
				2.117582368135751e-22,
				1
			],
			"translation":[
				-0.9499994516372681,
				4.074919957020029e-07,
				-2.570226058651315e-07
			]
		},
		{
			"children":[
				12
			],
			"name":"Arm_1_R_Sub",
			"rotation":[
				3.552713678800501e-15,
				1.262177448353619e-29,
				2.117582368135751e-22,
				1
			],
			"translation":[
				-0.95000159740448,
				4.074919957020029e-07,
				-2.455456069583306e-07
			]
		},
		{
			"children":[
				13
			],
			"name":"Arm_1_R",
			"rotation":[
				3.552713678800501e-15,
				9.177632875889685e-09,
				4.235164736271502e-22,
				1
			],
			"translation":[
				-0.7500001192092896,
				4.074919957020029e-07,
				0.5999998450279236
			]
		},
		{
			"children":[
				14
			],
			"name":"Clavicle_R",
			"rotation":[
				-5.024294934767972e-15,
				-0.7071066498756409,
				-2.512148314416933e-15,
				0.70710688829422
			],
			"scale":[
				1,
				0.9999998807907104,
				1
			],
			"translation":[
				-8.030174569739756e-08,
				0.9000015258789062,
				-0.8150002360343933
			]
		},
		{
			"name":"Z_Mouth",
			"rotation":[
				-4.235164736271502e-22,
				3.552713678800501e-14,
				5.329070518200751e-15,
				1
			],
			"translation":[
				1.8620145320892334,
				1.5076172985573066e-06,
				4.735319976134633e-07
			]
		},
		{
			"children":[
				16
			],
			"name":"Mouth",
			"rotation":[
				-3.552714525833448e-15,
				-1,
				0,
				1.9470718370939721e-07
			],
			"scale":[
				1,
				0.9999997019767761,
				1
			],
			"translation":[
				-2.954829216003418,
				2.1450564861297607,
				8.466976737508958e-07
			]
		},
		{
			"name":"Z_Mouth_U",
			"rotation":[
				-4.235164736271502e-22,
				3.552713678800501e-14,
				5.329070518200751e-15,
				1
			],
			"translation":[
				1.8620145320892334,
				1.5076172985573066e-06,
				4.735319976134633e-07
			]
		},
		{
			"children":[
				18
			],
			"name":"Mouth_U",
			"rotation":[
				-3.552714525833448e-15,
				-1,
				0,
				1.9470718370939721e-07
			],
			"scale":[
				1,
				0.9999997019767761,
				1
			],
			"translation":[
				-2.954829216003418,
				2.705777883529663,
				9.636726190365152e-07
			]
		},
		{
			"children":[
				17,
				19
			],
			"name":"FaceRoot",
			"rotation":[
				-4.235164736271502e-22,
				-7.105427357601002e-15,
				-3.552713678800501e-15,
				1
			],
			"translation":[
				-1.9563449527026933e-08,
				9.176047228720563e-07,
				1.501800664079414e-13
			]
		},
		{
			"name":"Feel",
			"rotation":[
				-2.512147467383986e-15,
				-0.7071066498756409,
				-2.5121481026586963e-15,
				0.70710688829422
			],
			"scale":[
				1,
				0.9999998211860657,
				1
			],
			"translation":[
				-0.3277570605278015,
				2.930694580078125,
				6.55671044569317e-07
			]
		},
		{
			"name":"Z_Head",
			"rotation":[
				-8.470329472543003e-22,
				-7.105427357601002e-15,
				-3.552713678800501e-15,
				1
			],
			"scale":[
				1,
				0.9999999403953552,
				1
			],
			"translation":[
				3.148882399273134e-07,
				5.833396911621094,
				1.2169404044470866e-06
			]
		},
		{
			"children":[
				20,
				21,
				22
			],
			"name":"Head",
			"rotation":[
				-4.235164736271502e-22,
				-7.105427357601002e-15,
				-3.552713678800501e-15,
				1
			],
			"translation":[
				9.964583824739748e-08,
				2.018657684326172,
				4.2112489495593763e-07
			]
		},
		{
			"children":[
				23
			],
			"name":"Neck",
			"rotation":[
				-8.470329472543003e-22,
				-7.105427357601002e-15,
				-5.329070518200751e-15,
				1
			],
			"translation":[
				-0.1592521220445633,
				1.7576842308044434,
				3.881963834828639e-07
			]
		},
		{
			"children":[
				9,
				15,
				24
			],
			"name":"Spine_3",
			"rotation":[
				-1.2705494208814505e-21,
				-7.105427357601002e-15,
				-5.329070518200751e-15,
				1
			],
			"translation":[
				-0.15925298631191254,
				0.9749741554260254,
				2.2491073536912154e-07
			]
		},
		{
			"children":[
				25
			],
			"name":"Spine_2",
			"rotation":[
				-1.2705495218556464e-21,
				-7.105427357601002e-15,
				-3.552713678800501e-15,
				1
			],
			"scale":[
				1,
				0.9999999403953552,
				1
			],
			"translation":[
				-0.15925192832946777,
				1.2140545845031738,
				2.747868279584509e-07
			]
		},
		{
			"children":[
				26
			],
			"name":"Spine_1",
			"rotation":[
				0,
				0.7071066498756409,
				0,
				0.70710688829422
			],
			"scale":[
				0.9999999403953552,
				0.9999998807907104,
				0.9999999403953552
			],
			"translation":[
				5.68434527421259e-14,
				-2.3841855067985307e-07,
				5.684341886080802e-14
			]
		},
		{
			"name":"Toe_L",
			"rotation":[
				-8.470329472543003e-22,
				7.105427357601002e-15,
				3.552713678800501e-15,
				1
			],
			"scale":[
				1,
				0.9999999403953552,
				1
			],
			"translation":[
				0.5449022054672241,
				-0.2955738306045532,
				-0.23982736468315125
			]
		},
		{
			"children":[
				28
			],
			"name":"Ankle_L",
			"rotation":[
				-4.235164736271502e-22,
				7.105427357601002e-15,
				3.552713678800501e-15,
				1
			],
			"translation":[
				1.8304521290701814e-05,
				-0.9421246647834778,
				-2.590782344213949e-07
			]
		},
		{
			"children":[
				29
			],
			"name":"Leg_2_L_Sub",
			"rotation":[
				-4.235164736271502e-22,
				1.4210854715202004e-14,
				5.329070518200751e-15,
				1
			],
			"translation":[
				3.231941292369811e-08,
				-0.303587943315506,
				-1.9947714235968306e-07
			]
		},
		{
			"children":[
				30
			],
			"name":"Leg_2_L",
			"rotation":[
				-8.47033149202692e-22,
				-7.105427357601002e-15,
				5.329070518200751e-15,
				1
			],
			"translation":[
				1.1484431183816923e-07,
				-1.5101585388183594,
				-3.7829107668585493e-07
			]
		},
		{
			"children":[
				31
			],
			"name":"Leg_1_L_Sub",
			"rotation":[
				0,
				-5.960460924825384e-08,
				3.552713678800501e-15,
				1
			],
			"scale":[
				1,
				0.9999999403953552,
				1
			],
			"translation":[
				6.35596677511785e-08,
				-0.5060687065124512,
				-2.352399661731397e-07
			]
		},
		{
			"children":[
				32
			],
			"name":"Leg_1_L",
			"rotation":[
				0,
				0,
				3.552713678800501e-15,
				1
			],
			"translation":[
				0.2000001072883606,
				0.10897992551326752,
				-0.8633769750595093
			]
		},
		{
			"name":"Toe_R",
			"rotation":[
				-1.7763568394002505e-15,
				1,
				5.293955920339377e-22,
				7.549790836947068e-08
			],
			"translation":[
				0.5449023842811584,
				-0.2955741584300995,
				0.2401338517665863
			]
		},
		{
			"children":[
				34
			],
			"name":"Ankle_R",
			"rotation":[
				1.5881867761018131e-22,
				-6.310887241768095e-30,
				1.7763568394002505e-15,
				1
			],
			"translation":[
				-6.48737170649838e-08,
				-0.9421277642250061,
				-1.2795156578704336e-07
			]
		},
		{
			"children":[
				35
			],
			"name":"Leg_2_R_Sub",
			"rotation":[
				1.5881867761018131e-22,
				-1.7763568394002505e-15,
				3.552713678800501e-15,
				1
			],
			"scale":[
				1,
				0.9999999403953552,
				1
			],
			"translation":[
				6.254929019178235e-09,
				-0.30358901619911194,
				-6.834692101165274e-08
			]
		},
		{
			"children":[
				36
			],
			"name":"Leg_2_R",
			"rotation":[
				2.117582368135751e-22,
				1.7763568394002505e-15,
				3.552713678800501e-15,
				1
			],
			"translation":[
				-1.1983634351508954e-07,
				-1.510158658027649,
				-1.2795156578704336e-07
			]
		},
		{
			"children":[
				37
			],
			"name":"Leg_1_R_Sub",
			"rotation":[
				1.0587911840678754e-22,
				-1.2434497875801753e-14,
				5.329070518200751e-15,
				1
			],
			"translation":[
				-3.5624889704877205e-08,
				-0.5060665607452393,
				5.086236498641483e-08
			]
		},
		{
			"children":[
				38
			],
			"name":"Leg_1_R",
			"rotation":[
				-3.7057696491085433e-22,
				-1.7881392011531716e-07,
				3.552713678800501e-15,
				1
			],
			"scale":[
				1,
				0.9999999403953552,
				1
			],
			"translation":[
				0.19999991357326508,
				0.10898207128047943,
				0.8632301092147827
			]
		},
		{
			"name":"Z_Tail",
			"rotation":[
				0,
				-7.105427357601002e-15,
				0,
				1
			],
			"translation":[
				2.9549968242645264,
				2.0448434352874756,
				-1.1780778095271671e-06
			]
		},
		{
			"children":[
				40
			],
			"name":"Tail_2",
			"rotation":[
				0,
				5.960457372111705e-08,
				0,
				1
			],
			"translation":[
				0.08292627334594727,
				0.4031282663345337,
				-1.1507378161468296e-07
			]
		},
		{
			"name":"Z_Tail_2_D",
			"rotation":[
				0,
				-7.105427357601002e-15,
				0,
				1
			],
			"translation":[
				3.7763240337371826,
				0.7265767455101013,
				-1.111939695874753e-06
			]
		},
		{
			"children":[
				42
			],
			"name":"Tail_2_D",
			"rotation":[
				0,
				5.960457372111705e-08,
				0,
				1
			],
			"translation":[
				0.21406345069408417,
				-0.11451565474271774,
				-5.606736763752451e-08
			]
		},
		{
			"children":[
				41,
				43
			],
			"name":"Tail_1",
			"rotation":[
				-5.329070941717225e-15,
				1,
				4.235163726529543e-22,
				3.1391644483846903e-07
			],
			"scale":[
				1,
				0.9999997615814209,
				1
			],
			"translation":[
				-1.5056575536727905,
				2.1538145542144775,
				6.641366212534194e-08
			]
		},
		{
			"children":[
				44
			],
			"name":"TailRoot",
			"rotation":[
				-4.235165241142481e-22,
				1.4210854715202004e-14,
				3.552713678800501e-15,
				1
			],
			"scale":[
				1,
				0.9999999403953552,
				1
			],
			"translation":[
				-2.842170943040401e-14,
				2.1316282072803006e-14,
				0
			]
		},
		{
			"children":[
				33,
				39,
				45
			],
			"name":"Waist",
			"rotation":[
				0,
				-0.7071066498756409,
				0,
				0.70710688829422
			],
			"scale":[
				0.9999999403953552,
				0.9999998807907104,
				0.9999999403953552
			],
			"translation":[
				0,
				2.3841860752327193e-07,
				0
			]
		},
		{
			"children":[
				27,
				46
			],
			"name":"Skl_Root",
			"scale":[
				1,
				0.9999999403953552,
				1
			],
			"translation":[
				0,
				3.767611026763916,
				0
			]
		},
		{
			"children":[
				47
			],
			"name":"Trans_Root"
		},
		{
			"children":[
				48
			],
			"name":"Root"
		},
		{
			"children":[
				3,
				49
			],
			"name":"nw4f_root",
			"rotation":[
				-0.7071067690849304,
				0,
				0,
				0.7071067690849304
			]
		},
		{
			"mesh":0,
			"name":"Body__mBody",
			"skin":0
		},
		{
			"mesh":1,
			"name":"Body__mCapVis",
			"skin":0
		},
		{
			"mesh":2,
			"name":"Body__mEye",
			"skin":0
		},
		{
			"mesh":3,
			"name":"FaceBad__mBeak",
			"skin":0
		},
		{
			"mesh":4,
			"name":"FaceGood__mBeak",
			"skin":0
		},
		{
			"mesh":5,
			"name":"FaceNothing__mBeak",
			"skin":0
		},
		{
			"children":[
				51,
				52,
				53,
				54,
				55,
				56,
				50
			],
			"name":"Armature",
			"rotation":[
				0.7071068286895752,
				0,
				0,
				0.7071068286895752
			]
		}
	],
	"materials":[
		{
			"doubleSided":true,
			"name":"mBody.008",
			"pbrMetallicRoughness":{
				"baseColorTexture":{
					"index":0
				},
				"metallicFactor":0,
				"roughnessFactor":0.5
			}
		},
		{
			"doubleSided":true,
			"name":"mCapVis.003",
			"pbrMetallicRoughness":{
				"baseColorTexture":{
					"index":1
				},
				"metallicFactor":0,
				"roughnessFactor":0.5
			}
		},
		{
			"doubleSided":true,
			"name":"mEye.008",
			"pbrMetallicRoughness":{
				"baseColorTexture":{
					"index":2
				},
				"metallicFactor":0,
				"roughnessFactor":0.5
			}
		},
		{
			"doubleSided":true,
			"name":"mBeak.001",
			"pbrMetallicRoughness":{
				"baseColorTexture":{
					"index":3
				},
				"metallicFactor":0,
				"roughnessFactor":0.5
			}
		}
	],
	"meshes":[
		{
			"name":"Body__mBody.008",
			"primitives":[
				{
					"attributes":{
						"POSITION":0,
						"NORMAL":1,
						"TEXCOORD_0":2,
						"COLOR_0":3,
						"COLOR_1":4,
						"JOINTS_0":5,
						"WEIGHTS_0":6
					},
					"indices":7,
					"material":0
				}
			]
		},
		{
			"name":"Body__mCapVis.003",
			"primitives":[
				{
					"attributes":{
						"POSITION":9,
						"NORMAL":10,
						"TEXCOORD_0":11,
						"JOINTS_0":12,
						"WEIGHTS_0":13
					},
					"indices":14,
					"material":1
				}
			]
		},
		{
			"name":"Body__mEye.008",
			"primitives":[
				{
					"attributes":{
						"POSITION":15,
						"NORMAL":16,
						"TEXCOORD_0":17,
						"JOINTS_0":18,
						"WEIGHTS_0":19
					},
					"indices":20,
					"material":2
				}
			]
		},
		{
			"name":"FaceBad__mBeak.001",
			"primitives":[
				{
					"attributes":{
						"POSITION":21,
						"NORMAL":22,
						"TEXCOORD_0":23,
						"JOINTS_0":24,
						"WEIGHTS_0":25
					},
					"indices":26,
					"material":3
				}
			]
		},
		{
			"name":"FaceGood__mBeak.001",
			"primitives":[
				{
					"attributes":{
						"POSITION":27,
						"NORMAL":28,
						"TEXCOORD_0":29,
						"JOINTS_0":30,
						"WEIGHTS_0":31
					},
					"indices":26,
					"material":3
				}
			]
		},
		{
			"name":"FaceNothing__mBeak.001",
			"primitives":[
				{
					"attributes":{
						"POSITION":32,
						"NORMAL":33,
						"TEXCOORD_0":34,
						"JOINTS_0":35,
						"WEIGHTS_0":36
					},
					"indices":37,
					"material":3
				}
			]
		}
	],
	"textures":[
		{
			"sampler":0,
			"source":0
		},
		{
			"sampler":0,
			"source":0
		},
		{
			"sampler":0,
			"source":1
		},
		{
			"sampler":0,
			"source":2
		}
	],
	"images":[
		{
			"mimeType":"image/png",
			"name":"mBody_Alb",
			"uri":"mBody_Alb.png"
		},
		{
			"mimeType":"image/png",
			"name":"mEye_Alb.0",
			"uri":"mEye_Alb_0.png"
		},
		{
			"mimeType":"image/png",
			"name":"mBeak_Alb",
			"uri":"mBeak_Alb.png"
		}
	],
	"skins":[
		{
			"inverseBindMatrices":8,
			"joints":[
				50,
				3,
				0,
				1,
				2,
				49,
				48,
				47,
				27,
				26,
				25,
				9,
				8,
				7,
				6,
				5,
				4,
				15,
				14,
				13,
				12,
				11,
				10,
				24,
				23,
				20,
				17,
				16,
				19,
				18,
				21,
				22,
				46,
				33,
				32,
				31,
				30,
				29,
				28,
				39,
				38,
				37,
				36,
				35,
				34,
				45,
				44,
				41,
				40,
				43,
				42
			],
			"name":"Armature"
		}
	],
	"accessors":[
		{
			"bufferView":0,
			"componentType":5126,
			"count":2266,
			"max":[
				5.032341957092285,
				15.496959686279297,
				3.602893114089966
			],
			"min":[
				-5.032341957092285,
				-0.02106141671538353,
				-6.250490188598633
			],
			"type":"VEC3"
		},
		{
			"bufferView":1,
			"componentType":5126,
			"count":2266,
			"type":"VEC3"
		},
		{
			"bufferView":2,
			"componentType":5126,
			"count":2266,
			"type":"VEC2"
		},
		{
			"bufferView":3,
			"componentType":5121,
			"count":2266,
			"normalized":true,
			"type":"VEC4"
		},
		{
			"bufferView":4,
			"componentType":5123,
			"count":2266,
			"normalized":true,
			"type":"VEC4"
		},
		{
			"bufferView":5,
			"componentType":5121,
			"count":2266,
			"type":"VEC4"
		},
		{
			"bufferView":6,
			"componentType":5126,
			"count":2266,
			"type":"VEC4"
		},
		{
			"bufferView":7,
			"componentType":5123,
			"count":10362,
			"type":"SCALAR"
		},
		{
			"bufferView":8,
			"componentType":5126,
			"count":51,
			"type":"MAT4"
		},
		{
			"bufferView":9,
			"componentType":5126,
			"count":132,
			"max":[
				0.7787709832191467,
				16.396709442138672,
				0.11358752846717834
			],
			"min":[
				-0.7787709832191467,
				13.42544937133789,
				-4.112546920776367
			],
			"type":"VEC3"
		},
		{
			"bufferView":10,
			"componentType":5126,
			"count":132,
			"type":"VEC3"
		},
		{
			"bufferView":11,
			"componentType":5126,
			"count":132,
			"type":"VEC2"
		},
		{
			"bufferView":12,
			"componentType":5121,
			"count":132,
			"type":"VEC4"
		},
		{
			"bufferView":13,
			"componentType":5126,
			"count":132,
			"type":"VEC4"
		},
		{
			"bufferView":14,
			"componentType":5123,
			"count":576,
			"type":"SCALAR"
		},
		{
			"bufferView":15,
			"componentType":5126,
			"count":162,
			"max":[
				3.1148159503936768,
				15.38794994354248,
				3.602893114089966
			],
			"min":[
				-3.1148159503936768,
				11.399829864501953,
				-0.2791268229484558
			],
			"type":"VEC3"
		},
		{
			"bufferView":16,
			"componentType":5126,
			"count":162,
			"type":"VEC3"
		},
		{
			"bufferView":17,
			"componentType":5126,
			"count":162,
			"type":"VEC2"
		},
		{
			"bufferView":18,
			"componentType":5121,
			"count":162,
			"type":"VEC4"
		},
		{
			"bufferView":19,
			"componentType":5126,
			"count":162,
			"type":"VEC4"
		},
		{
			"bufferView":20,
			"componentType":5123,
			"count":828,
			"type":"SCALAR"
		},
		{
			"bufferView":21,
			"componentType":5126,
			"count":203,
			"max":[
				1.482835054397583,
				13.263239860534668,
				5.537320137023926
			],
			"min":[
				-1.482835054397583,
				11.368919372558594,
				3.115968942642212
			],
			"type":"VEC3"
		},
		{
			"bufferView":22,
			"componentType":5126,
			"count":203,
			"type":"VEC3"
		},
		{
			"bufferView":23,
			"componentType":5126,
			"count":203,
			"type":"VEC2"
		},
		{
			"bufferView":24,
			"componentType":5121,
			"count":203,
			"type":"VEC4"
		},
		{
			"bufferView":25,
			"componentType":5126,
			"count":203,
			"type":"VEC4"
		},
		{
			"bufferView":26,
			"componentType":5123,
			"count":900,
			"type":"SCALAR"
		},
		{
			"bufferView":27,
			"componentType":5126,
			"count":203,
			"max":[
				1.482835054397583,
				13.263239860534668,
				5.537320137023926
			],
			"min":[
				-1.482835054397583,
				11.368919372558594,
				3.115968942642212
			],
			"type":"VEC3"
		},
		{
			"bufferView":28,
			"componentType":5126,
			"count":203,
			"type":"VEC3"
		},
		{
			"bufferView":29,
			"componentType":5126,
			"count":203,
			"type":"VEC2"
		},
		{
			"bufferView":30,
			"componentType":5121,
			"count":203,
			"type":"VEC4"
		},
		{
			"bufferView":31,
			"componentType":5126,
			"count":203,
			"type":"VEC4"
		},
		{
			"bufferView":32,
			"componentType":5126,
			"count":229,
			"max":[
				1.482835054397583,
				13.263239860534668,
				5.537320137023926
			],
			"min":[
				-1.482835054397583,
				11.368919372558594,
				3.115968942642212
			],
			"type":"VEC3"
		},
		{
			"bufferView":33,
			"componentType":5126,
			"count":229,
			"type":"VEC3"
		},
		{
			"bufferView":34,
			"componentType":5126,
			"count":229,
			"type":"VEC2"
		},
		{
			"bufferView":35,
			"componentType":5121,
			"count":229,
			"type":"VEC4"
		},
		{
			"bufferView":36,
			"componentType":5126,
			"count":229,
			"type":"VEC4"
		},
		{
			"bufferView":37,
			"componentType":5123,
			"count":1032,
			"type":"SCALAR"
		}
	],
	"bufferViews":[
		{
			"buffer":0,
			"byteLength":27192,
			"byteOffset":0,
			"target":34962
		},
		{
			"buffer":0,
			"byteLength":27192,
			"byteOffset":27192,
			"target":34962
		},
		{
			"buffer":0,
			"byteLength":18128,
			"byteOffset":54384,
			"target":34962
		},
		{
			"buffer":0,
			"byteLength":9064,
			"byteOffset":72512,
			"target":34962
		},
		{
			"buffer":0,
			"byteLength":18128,
			"byteOffset":81576,
			"target":34962
		},
		{
			"buffer":0,
			"byteLength":9064,
			"byteOffset":99704,
			"target":34962
		},
		{
			"buffer":0,
			"byteLength":36256,
			"byteOffset":108768,
			"target":34962
		},
		{
			"buffer":0,
			"byteLength":20724,
			"byteOffset":145024,
			"target":34963
		},
		{
			"buffer":0,
			"byteLength":3264,
			"byteOffset":165748
		},
		{
			"buffer":0,
			"byteLength":1584,
			"byteOffset":169012,
			"target":34962
		},
		{
			"buffer":0,
			"byteLength":1584,
			"byteOffset":170596,
			"target":34962
		},
		{
			"buffer":0,
			"byteLength":1056,
			"byteOffset":172180,
			"target":34962
		},
		{
			"buffer":0,
			"byteLength":528,
			"byteOffset":173236,
			"target":34962
		},
		{
			"buffer":0,
			"byteLength":2112,
			"byteOffset":173764,
			"target":34962
		},
		{
			"buffer":0,
			"byteLength":1152,
			"byteOffset":175876,
			"target":34963
		},
		{
			"buffer":0,
			"byteLength":1944,
			"byteOffset":177028,
			"target":34962
		},
		{
			"buffer":0,
			"byteLength":1944,
			"byteOffset":178972,
			"target":34962
		},
		{
			"buffer":0,
			"byteLength":1296,
			"byteOffset":180916,
			"target":34962
		},
		{
			"buffer":0,
			"byteLength":648,
			"byteOffset":182212,
			"target":34962
		},
		{
			"buffer":0,
			"byteLength":2592,
			"byteOffset":182860,
			"target":34962
		},
		{
			"buffer":0,
			"byteLength":1656,
			"byteOffset":185452,
			"target":34963
		},
		{
			"buffer":0,
			"byteLength":2436,
			"byteOffset":187108,
			"target":34962
		},
		{
			"buffer":0,
			"byteLength":2436,
			"byteOffset":189544,
			"target":34962
		},
		{
			"buffer":0,
			"byteLength":1624,
			"byteOffset":191980,
			"target":34962
		},
		{
			"buffer":0,
			"byteLength":812,
			"byteOffset":193604,
			"target":34962
		},
		{
			"buffer":0,
			"byteLength":3248,
			"byteOffset":194416,
			"target":34962
		},
		{
			"buffer":0,
			"byteLength":1800,
			"byteOffset":197664,
			"target":34963
		},
		{
			"buffer":0,
			"byteLength":2436,
			"byteOffset":199464,
			"target":34962
		},
		{
			"buffer":0,
			"byteLength":2436,
			"byteOffset":201900,
			"target":34962
		},
		{
			"buffer":0,
			"byteLength":1624,
			"byteOffset":204336,
			"target":34962
		},
		{
			"buffer":0,
			"byteLength":812,
			"byteOffset":205960,
			"target":34962
		},
		{
			"buffer":0,
			"byteLength":3248,
			"byteOffset":206772,
			"target":34962
		},
		{
			"buffer":0,
			"byteLength":2748,
			"byteOffset":210020,
			"target":34962
		},
		{
			"buffer":0,
			"byteLength":2748,
			"byteOffset":212768,
			"target":34962
		},
		{
			"buffer":0,
			"byteLength":1832,
			"byteOffset":215516,
			"target":34962
		},
		{
			"buffer":0,
			"byteLength":916,
			"byteOffset":217348,
			"target":34962
		},
		{
			"buffer":0,
			"byteLength":3664,
			"byteOffset":218264,
			"target":34962
		},
		{
			"buffer":0,
			"byteLength":2064,
			"byteOffset":221928,
			"target":34963
		}
	],
	"samplers":[
		{
			"magFilter":9729,
			"minFilter":9987
		}
	],
	"buffers":[
		{
			"byteLength":223992,
			"uri":"Lesya.bin"
		}
	]
}
