{
	"asset":{
		"generator":"Khronos glTF Blender I/O v4.3.47",
		"version":"2.0"
	},
	"scene":0,
	"scenes":[
		{
			"name":"Scene",
			"nodes":[
				47
			]
		}
	],
	"nodes":[
		{
			"name":"Hand_L",
			"translation":[
				0.02458624541759491,
				-2.9035827964207783e-08,
				0.38459110260009766
			]
		},
		{
			"children":[
				0
			],
			"name":"Wrist_L",
			"translation":[
				0.44000017642974854,
				-7.549516567451064e-15,
				3.9775599702807085e-08
			]
		},
		{
			"children":[
				1
			],
			"name":"Arm_2_L",
			"translation":[
				0.4000002145767212,
				-8.881784197001252e-16,
				3.6159619298814505e-08
			]
		},
		{
			"children":[
				2
			],
			"name":"Arm_1_L_Sub",
			"translation":[
				0.3999999761581421,
				5.773159728050814e-15,
				3.615965482595129e-08
			]
		},
		{
			"children":[
				3
			],
			"name":"Arm_1_L",
			"rotation":[
				0,
				4.960618582572351e-10,
				0,
				1
			],
			"translation":[
				0.32000017166137695,
				-0.14999985694885254,
				3.7550936582420036e-08
			]
		},
		{
			"children":[
				4
			],
			"name":"Clavicle_L",
			"rotation":[
				0,
				-0.7071067094802856,
				0,
				0.7071068286895752
			],
			"translation":[
				1.1622368845110032e-08,
				0.3000001907348633,
				0.450000137090683
			]
		},
		{
			"name":"Hand_R",
			"translation":[
				0.02499992400407791,
				-2.9066651308085056e-08,
				0.3850001096725464
			]
		},
		{
			"children":[
				6
			],
			"name":"Wrist_R",
			"translation":[
				-0.4400002956390381,
				5.0182080713057076e-14,
				-1.2457367404294928e-07
			]
		},
		{
			"children":[
				7
			],
			"name":"Arm_2_R",
			"translation":[
				-0.4000002145767212,
				4.529709940470639e-14,
				-1.1324878812501993e-07
			]
		},
		{
			"children":[
				8
			],
			"name":"Arm_1_R_Sub",
			"translation":[
				-0.4000006318092346,
				4.085620730620576e-14,
				-1.1324907234211423e-07
			]
		},
		{
			"children":[
				9
			],
			"name":"Arm_1_R",
			"rotation":[
				0,
				9.177639981317043e-09,
				0,
				1
			],
			"translation":[
				-0.3200002610683441,
				-0.14999961853027344,
				-9.835684267045508e-08
			]
		},
		{
			"children":[
				10
			],
			"name":"Clavicle_R",
			"rotation":[
				0,
				-0.7071066498756409,
				0,
				0.70710688829422
			],
			"translation":[
				2.4145684562881797e-08,
				0.3000006675720215,
				-0.450376033782959
			]
		},
		{
			"name":"Z_Ear_L",
			"translation":[
				1.000000238418579,
				3.000000238418579,
				2.0000009536743164
			]
		},
		{
			"children":[
				12
			],
			"name":"Ear_1_L",
			"translation":[
				0.8700005412101746,
				4.999999046325684,
				1.2000014781951904
			]
		},
		{
			"name":"Z_Ear_R",
			"rotation":[
				0,
				-3.552713678800501e-15,
				0,
				1
			],
			"translation":[
				1.000001311302185,
				3.000000238418579,
				-1.9999995231628418
			]
		},
		{
			"children":[
				14
			],
			"name":"Ear_1_R",
			"rotation":[
				0,
				1.1920928955078125e-07,
				0,
				1
			],
			"translation":[
				0.8700006008148193,
				4.999999046325684,
				-1.1999990940093994
			]
		},
		{
			"name":"Nose",
			"translation":[
				-7.670886930100096e-07,
				2.805426788654586e-07,
				1.9643818906581179e-13
			]
		},
		{
			"children":[
				16
			],
			"name":"FaceRoot",
			"rotation":[
				0,
				-1,
				0,
				1.9470718370939721e-07
			],
			"translation":[
				-2.6000006198883057,
				1.9300007820129395,
				7.538961313002801e-07
			]
		},
		{
			"name":"Feel",
			"rotation":[
				0,
				-0.7071066498756409,
				0,
				0.70710688829422
			],
			"translation":[
				1.591050704519148e-07,
				2.6693389415740967,
				5.56867234990932e-07
			]
		},
		{
			"children":[
				13,
				15,
				17,
				18
			],
			"name":"Head",
			"translation":[
				2.9802169621007124e-09,
				0.04999995231628418,
				1.043077091367195e-08
			]
		},
		{
			"children":[
				19
			],
			"name":"Neck",
			"translation":[
				4.5124338043933676e-08,
				0.7570600509643555,
				1.5793500551808393e-07
			]
		},
		{
			"children":[
				5,
				11,
				20
			],
			"name":"Spine_3",
			"translation":[
				3.90075562961556e-08,
				0.6544382572174072,
				1.365264381547604e-07
			]
		},
		{
			"children":[
				21
			],
			"name":"Spine_2",
			"translation":[
				4.0567833536897524e-08,
				0.6806149482727051,
				1.4198731435044465e-07
			]
		},
		{
			"children":[
				22
			],
			"name":"Spine_1",
			"rotation":[
				0,
				0.7071066498756409,
				0,
				0.70710688829422
			],
			"translation":[
				1.136869054842518e-13,
				4.76837158203125e-07,
				-7.105427357601002e-15
			]
		},
		{
			"name":"Toe_L",
			"rotation":[
				0,
				7.105427357601002e-15,
				0,
				1
			],
			"translation":[
				0.22521987557411194,
				-0.12216711044311523,
				-1.5751259851981558e-08
			]
		},
		{
			"children":[
				24
			],
			"name":"Ankle_L",
			"translation":[
				7.5374182415544055e-06,
				-0.3894001245498657,
				-5.960318816278232e-08
			]
		},
		{
			"children":[
				25
			],
			"name":"Leg_2_L_Sub",
			"translation":[
				7.479147967615063e-09,
				-0.12547963857650757,
				-5.960465188081798e-08
			]
		},
		{
			"children":[
				26
			],
			"name":"Leg_2_L",
			"translation":[
				3.720408869867242e-08,
				-0.6241807341575623,
				-1.1920930376163597e-07
			]
		},
		{
			"children":[
				27
			],
			"name":"Leg_1_L_Sub",
			"translation":[
				1.2467438637031591e-08,
				-0.2091691493988037,
				-1.9206858326015208e-14
			]
		},
		{
			"children":[
				28
			],
			"name":"Leg_1_L",
			"rotation":[
				0,
				-5.960464477539063e-08,
				0,
				1
			],
			"translation":[
				5.580912443292618e-08,
				4.76837158203125e-07,
				-0.5300000905990601
			]
		},
		{
			"name":"Toe_R",
			"rotation":[
				0,
				1,
				0,
				7.549789415861596e-08
			],
			"translation":[
				0.2252196967601776,
				-0.1221669614315033,
				-6.944930674990246e-08
			]
		},
		{
			"children":[
				30
			],
			"name":"Ankle_R",
			"translation":[
				-3.55878881919125e-08,
				-0.3894016742706299,
				-5.960464477539063e-08
			]
		},
		{
			"children":[
				31
			],
			"name":"Leg_2_R_Sub",
			"translation":[
				-1.1467694349676094e-08,
				-0.1254795789718628,
				5.960464477539063e-08
			]
		},
		{
			"children":[
				32
			],
			"name":"Leg_2_R",
			"translation":[
				-5.70446232472932e-08,
				-0.6241809725761414,
				-1.1920928955078125e-07
			]
		},
		{
			"children":[
				33
			],
			"name":"Leg_1_R_Sub",
			"rotation":[
				0,
				3.552713678800501e-15,
				0,
				1
			],
			"translation":[
				-1.911615932215227e-08,
				-0.2091681957244873,
				-1.1920928955078125e-07
			]
		},
		{
			"children":[
				34
			],
			"name":"Leg_1_R",
			"rotation":[
				0,
				-1.7881393432617188e-07,
				0,
				1
			],
			"translation":[
				-5.580912443292618e-08,
				4.76837158203125e-07,
				0.5300000905990601
			]
		},
		{
			"name":"Z_Tail",
			"translation":[
				1.9000004529953003,
				-6.320244665403152e-07,
				-4.831924798054388e-07
			]
		},
		{
			"children":[
				36
			],
			"name":"Tail_2",
			"rotation":[
				0,
				-5.960464477539063e-08,
				0,
				1
			],
			"translation":[
				1.4999996423721313,
				-4.178426706857863e-07,
				-2.0265369471417216e-07
			]
		},
		{
			"children":[
				37
			],
			"name":"Tail_1",
			"rotation":[
				0,
				1,
				0,
				1.9470718370939721e-07
			],
			"translation":[
				-0.8603808879852295,
				1.841662538026867e-07,
				-2.1880511269500857e-07
			]
		},
		{
			"children":[
				38
			],
			"name":"Tail_Root",
			"translation":[
				0,
				8.881784197001252e-15,
				0
			]
		},
		{
			"children":[
				29,
				35,
				39
			],
			"name":"Waist",
			"rotation":[
				0,
				-0.7071066498756409,
				0,
				0.70710688829422
			],
			"translation":[
				0,
				8.881784197001252e-15,
				0
			]
		},
		{
			"children":[
				23,
				40
			],
			"name":"Skl_Root",
			"translation":[
				0,
				1.5572340488433838,
				0
			]
		},
		{
			"children":[
				41
			],
			"name":"Trans_Root"
		},
		{
			"children":[
				42
			],
			"name":"Root",
			"rotation":[
				-0.7071067690849304,
				0,
				0,
				0.7071067690849304
			]
		},
		{
			"mesh":0,
			"name":"Body__mBody",
			"skin":0
		},
		{
			"mesh":1,
			"name":"Body__mEye",
			"skin":0
		},
		{
			"mesh":2,
			"name":"Body__mMouth",
			"skin":0
		},
		{
			"children":[
				44,
				45,
				46,
				43
			],
			"name":"Armature",
			"rotation":[
				0.7071068286895752,
				0,
				0,
				0.7071068286895752
			]
		}
	],
	"materials":[
		{
			"doubleSided":true,
			"name":"mBody.007",
			"pbrMetallicRoughness":{
				"baseColorTexture":{
					"index":0
				},
				"metallicFactor":0,
				"roughnessFactor":0.5
			}
		},
		{
			"doubleSided":true,
			"name":"mEye.007",
			"pbrMetallicRoughness":{
				"baseColorTexture":{
					"index":1
				},
				"metallicFactor":0,
				"roughnessFactor":0.5
			}
		},
		{
			"doubleSided":true,
			"name":"mMouth.006",
			"pbrMetallicRoughness":{
				"baseColorTexture":{
					"index":2
				},
				"metallicFactor":0,
				"roughnessFactor":0.5
			}
		}
	],
	"meshes":[
		{
			"name":"Body__mBody.007",
			"primitives":[
				{
					"attributes":{
						"POSITION":0,
						"NORMAL":1,
						"TEXCOORD_0":2,
						"COLOR_0":3,
						"COLOR_1":4,
						"JOINTS_0":5,
						"WEIGHTS_0":6
					},
					"indices":7,
					"material":0
				}
			]
		},
		{
			"name":"Body__mEye.007",
			"primitives":[
				{
					"attributes":{
						"POSITION":9,
						"NORMAL":10,
						"TEXCOORD_0":11,
						"JOINTS_0":12,
						"WEIGHTS_0":13
					},
					"indices":14,
					"material":1
				}
			]
		},
		{
			"name":"Body__mMouth.006",
			"primitives":[
				{
					"attributes":{
						"POSITION":15,
						"NORMAL":16,
						"TEXCOORD_0":17,
						"JOINTS_0":18,
						"WEIGHTS_0":19
					},
					"indices":20,
					"material":2
				}
			]
		}
	],
	"textures":[
		{
			"sampler":0,
			"source":0
		},
		{
			"sampler":0,
			"source":1
		},
		{
			"sampler":0,
			"source":2
		}
	],
	"images":[
		{
			"mimeType":"image/png",
			"name":"mBody_Alb",
			"uri":"mBody_Alb.png"
		},
		{
			"mimeType":"image/png",
			"name":"mEye_Alb.0",
			"uri":"mEye_Alb_0.png"
		},
		{
			"mimeType":"image/png",
			"name":"mMouth_Alb.0",
			"uri":"mMouth_Alb_0.png"
		}
	],
	"skins":[
		{
			"inverseBindMatrices":8,
			"joints":[
				43,
				42,
				41,
				23,
				22,
				21,
				5,
				4,
				3,
				2,
				1,
				0,
				11,
				10,
				9,
				8,
				7,
				6,
				20,
				19,
				13,
				12,
				15,
				14,
				17,
				16,
				18,
				40,
				29,
				28,
				27,
				26,
				25,
				24,
				35,
				34,
				33,
				32,
				31,
				30,
				39,
				38,
				37,
				36
			],
			"name":"Armature"
		}
	],
	"accessors":[
		{
			"bufferView":0,
			"componentType":5126,
			"count":1648,
			"max":[
				4.1484150886535645,
				12.228049278259277,
				3.735163450241089
			],
			"min":[
				-4.1484150886535645,
				0.006928658578544855,
				-4.360611915588379
			],
			"type":"VEC3"
		},
		{
			"bufferView":1,
			"componentType":5126,
			"count":1648,
			"type":"VEC3"
		},
		{
			"bufferView":2,
			"componentType":5126,
			"count":1648,
			"type":"VEC2"
		},
		{
			"bufferView":3,
			"componentType":5121,
			"count":1648,
			"normalized":true,
			"type":"VEC4"
		},
		{
			"bufferView":4,
			"componentType":5123,
			"count":1648,
			"normalized":true,
			"type":"VEC4"
		},
		{
			"bufferView":5,
			"componentType":5121,
			"count":1648,
			"type":"VEC4"
		},
		{
			"bufferView":6,
			"componentType":5126,
			"count":1648,
			"type":"VEC4"
		},
		{
			"bufferView":7,
			"componentType":5123,
			"count":7998,
			"type":"SCALAR"
		},
		{
			"bufferView":8,
			"componentType":5126,
			"count":44,
			"type":"MAT4"
		},
		{
			"bufferView":9,
			"componentType":5126,
			"count":158,
			"max":[
				2.5472798347473145,
				9.29980754852295,
				2.5832226276397705
			],
			"min":[
				-2.5472798347473145,
				5.6347479820251465,
				-0.5159050822257996
			],
			"type":"VEC3"
		},
		{
			"bufferView":10,
			"componentType":5126,
			"count":158,
			"type":"VEC3"
		},
		{
			"bufferView":11,
			"componentType":5126,
			"count":158,
			"type":"VEC2"
		},
		{
			"bufferView":12,
			"componentType":5121,
			"count":158,
			"type":"VEC4"
		},
		{
			"bufferView":13,
			"componentType":5126,
			"count":158,
			"type":"VEC4"
		},
		{
			"bufferView":14,
			"componentType":5123,
			"count":780,
			"type":"SCALAR"
		},
		{
			"bufferView":15,
			"componentType":5126,
			"count":124,
			"max":[
				2.5472798347473145,
				5.696681022644043,
				2.7201366424560547
			],
			"min":[
				-2.5472798347473145,
				3.565031051635742,
				-0.30692756175994873
			],
			"type":"VEC3"
		},
		{
			"bufferView":16,
			"componentType":5126,
			"count":124,
			"type":"VEC3"
		},
		{
			"bufferView":17,
			"componentType":5126,
			"count":124,
			"type":"VEC2"
		},
		{
			"bufferView":18,
			"componentType":5121,
			"count":124,
			"type":"VEC4"
		},
		{
			"bufferView":19,
			"componentType":5126,
			"count":124,
			"type":"VEC4"
		},
		{
			"bufferView":20,
			"componentType":5123,
			"count":606,
			"type":"SCALAR"
		}
	],
	"bufferViews":[
		{
			"buffer":0,
			"byteLength":19776,
			"byteOffset":0,
			"target":34962
		},
		{
			"buffer":0,
			"byteLength":19776,
			"byteOffset":19776,
			"target":34962
		},
		{
			"buffer":0,
			"byteLength":13184,
			"byteOffset":39552,
			"target":34962
		},
		{
			"buffer":0,
			"byteLength":6592,
			"byteOffset":52736,
			"target":34962
		},
		{
			"buffer":0,
			"byteLength":13184,
			"byteOffset":59328,
			"target":34962
		},
		{
			"buffer":0,
			"byteLength":6592,
			"byteOffset":72512,
			"target":34962
		},
		{
			"buffer":0,
			"byteLength":26368,
			"byteOffset":79104,
			"target":34962
		},
		{
			"buffer":0,
			"byteLength":15996,
			"byteOffset":105472,
			"target":34963
		},
		{
			"buffer":0,
			"byteLength":2816,
			"byteOffset":121468
		},
		{
			"buffer":0,
			"byteLength":1896,
			"byteOffset":124284,
			"target":34962
		},
		{
			"buffer":0,
			"byteLength":1896,
			"byteOffset":126180,
			"target":34962
		},
		{
			"buffer":0,
			"byteLength":1264,
			"byteOffset":128076,
			"target":34962
		},
		{
			"buffer":0,
			"byteLength":632,
			"byteOffset":129340,
			"target":34962
		},
		{
			"buffer":0,
			"byteLength":2528,
			"byteOffset":129972,
			"target":34962
		},
		{
			"buffer":0,
			"byteLength":1560,
			"byteOffset":132500,
			"target":34963
		},
		{
			"buffer":0,
			"byteLength":1488,
			"byteOffset":134060,
			"target":34962
		},
		{
			"buffer":0,
			"byteLength":1488,
			"byteOffset":135548,
			"target":34962
		},
		{
			"buffer":0,
			"byteLength":992,
			"byteOffset":137036,
			"target":34962
		},
		{
			"buffer":0,
			"byteLength":496,
			"byteOffset":138028,
			"target":34962
		},
		{
			"buffer":0,
			"byteLength":1984,
			"byteOffset":138524,
			"target":34962
		},
		{
			"buffer":0,
			"byteLength":1212,
			"byteOffset":140508,
			"target":34963
		}
	],
	"samplers":[
		{
			"magFilter":9729,
			"minFilter":9987
		}
	],
	"buffers":[
		{
			"byteLength":141720,
			"uri":"DrTucovic.bin"
		}
	]
}
