{
	"asset":{
		"generator":"Khronos glTF Blender I/O v4.3.47",
		"version":"2.0"
	},
	"scene":0,
	"scenes":[
		{
			"name":"Scene",
			"nodes":[
				47
			]
		}
	],
	"nodes":[
		{
			"name":"FaceBad",
			"scale":[
				1,
				0.9999999403953552,
				1
			],
			"translation":[
				0,
				11.433189392089844,
				2.966615915298462
			]
		},
		{
			"name":"FaceGood"
		},
		{
			"name":"FaceNothing"
		},
		{
			"children":[
				0,
				1,
				2
			],
			"name":"Mdl_Root"
		},
		{
			"name":"Hand_L",
			"rotation":[
				-3.552713678800501e-15,
				-3.552713678800501e-15,
				2.117582368135751e-22,
				1
			],
			"scale":[
				1,
				0.9999999403953552,
				1
			],
			"translation":[
				1.1075936555862427,
				8.812581882011727e-07,
				0.40015071630477905
			]
		},
		{
			"children":[
				4
			],
			"name":"Wrist_L",
			"rotation":[
				-1.7763568394002505e-15,
				-3.552713678800501e-15,
				0,
				1
			],
			"translation":[
				1.6600013971328735,
				-4.220558835754673e-08,
				0.5590293407440186
			]
		},
		{
			"children":[
				5
			],
			"name":"Arm_2_L",
			"rotation":[
				-3.552713678800501e-15,
				-3.552713678800501e-15,
				2.117582368135751e-22,
				1
			],
			"scale":[
				1,
				0.9999999403953552,
				1
			],
			"translation":[
				1.0500006675720215,
				9.5367431640625e-07,
				9.491890295976191e-08
			]
		},
		{
			"children":[
				6
			],
			"name":"Arm_1_L_Sub",
			"rotation":[
				-5.329070518200751e-15,
				-3.552713678800501e-15,
				4.235164736271502e-22,
				1
			],
			"translation":[
				1.3500001430511475,
				9.5367431640625e-07,
				1.2203877020056098e-07
			]
		},
		{
			"children":[
				7
			],
			"name":"Arm_1_L",
			"rotation":[
				-3.552713678800501e-15,
				4.960618582572351e-10,
				4.235164736271502e-22,
				1
			],
			"scale":[
				1,
				0.9999999403953552,
				1
			],
			"translation":[
				1.4800007343292236,
				9.5367431640625e-07,
				1.323223557392339e-07
			]
		},
		{
			"children":[
				8
			],
			"name":"Clavicle_L",
			"rotation":[
				5.989427306414746e-22,
				-0.7071067094802856,
				0,
				0.7071068286895752
			],
			"scale":[
				0.9999999403953552,
				0.9999998807907104,
				0.9999999403953552
			],
			"translation":[
				8.952952157414984e-09,
				0.6169137954711914,
				2.0000009536743164
			]
		},
		{
			"name":"Hand_R",
			"rotation":[
				-3.552713678800501e-15,
				7.105427357601002e-15,
				-4.235164736271502e-22,
				1
			],
			"scale":[
				1,
				0.9999999403953552,
				1
			],
			"translation":[
				-1.1080018281936646,
				8.812930332169344e-07,
				0.39999985694885254
			]
		},
		{
			"children":[
				10
			],
			"name":"Wrist_R",
			"rotation":[
				-1.7763568394002505e-15,
				7.105427357601002e-15,
				-2.117582368135751e-22,
				1
			],
			"translation":[
				-1.6600018739700317,
				9.11492179511697e-07,
				0.5587207078933716
			]
		},
		{
			"children":[
				11
			],
			"name":"Arm_2_R",
			"rotation":[
				-3.552713678800501e-15,
				0,
				-6.352747609278232e-22,
				1
			],
			"scale":[
				1,
				0.9999999403953552,
				1
			],
			"translation":[
				-1.0500011444091797,
				9.536744300930877e-07,
				-2.972785182464577e-07
			]
		},
		{
			"children":[
				12
			],
			"name":"Arm_1_R_Sub",
			"rotation":[
				-5.329070518200751e-15,
				7.105427357601002e-15,
				-2.117582368135751e-22,
				1
			],
			"translation":[
				-1.3500006198883057,
				9.536744300930877e-07,
				-3.8221503473323537e-07
			]
		},
		{
			"children":[
				13
			],
			"name":"Arm_1_R",
			"rotation":[
				-3.552713678800501e-15,
				9.177632875889685e-09,
				-2.117582368135751e-22,
				1
			],
			"scale":[
				1,
				0.9999999403953552,
				1
			],
			"translation":[
				-1.4800009727478027,
				9.536744300930877e-07,
				-3.918551101378398e-07
			]
		},
		{
			"children":[
				14
			],
			"name":"Clavicle_R",
			"rotation":[
				5.989426801543767e-22,
				-0.7071066498756409,
				0,
				0.70710688829422
			],
			"scale":[
				0.9999999403953552,
				0.9999998807907104,
				0.9999999403953552
			],
			"translation":[
				6.46143121230125e-08,
				0.617340087890625,
				-1.999999761581421
			]
		},
		{
			"name":"Mouth",
			"rotation":[
				0,
				-1,
				4.23516625088444e-22,
				1.947071694985425e-07
			],
			"scale":[
				1,
				0.9999997019767761,
				1
			],
			"translation":[
				-2.411161184310913,
				1.227365255355835,
				5.818012596137123e-07
			]
		},
		{
			"name":"Mouth_U",
			"rotation":[
				0,
				-1,
				4.23516625088444e-22,
				1.947071694985425e-07
			],
			"scale":[
				1,
				0.9999997019767761,
				1
			],
			"translation":[
				-2.411161184310913,
				1.227365255355835,
				5.818012596137123e-07
			]
		},
		{
			"children":[
				16,
				17
			],
			"name":"FaceRoot",
			"rotation":[
				4.235164736271502e-22,
				2.524354896707238e-29,
				-1.7763568394002505e-15,
				1
			],
			"translation":[
				-2.5582407303659238e-08,
				-0.4292020797729492,
				-8.953845309633834e-08
			]
		},
		{
			"name":"Feel",
			"rotation":[
				-2.512147467383986e-15,
				-0.7071066498756409,
				3.5699762682156487e-29,
				0.70710688829422
			],
			"translation":[
				1.6093268584427278e-07,
				2.7000017166137695,
				5.632640522890142e-07
			]
		},
		{
			"children":[
				18,
				19
			],
			"name":"Head",
			"rotation":[
				0,
				2.524354896707238e-29,
				0,
				1
			],
			"scale":[
				1,
				0.9999999403953552,
				1
			],
			"translation":[
				2.5582542306779033e-08,
				0.4292030334472656,
				8.953888652740716e-08
			]
		},
		{
			"children":[
				20
			],
			"name":"Neck",
			"rotation":[
				0,
				2.524354896707238e-29,
				0,
				1
			],
			"translation":[
				1.0012053053287673e-07,
				1.6797447204589844,
				3.5042194213019684e-07
			]
		},
		{
			"children":[
				9,
				15,
				21
			],
			"name":"Spine_3",
			"rotation":[
				0,
				-7.105427357601002e-15,
				0,
				1
			],
			"scale":[
				1,
				0.9999999403953552,
				1
			],
			"translation":[
				1.277320222925482e-07,
				2.142984390258789,
				4.4706163748742256e-07
			]
		},
		{
			"children":[
				22
			],
			"name":"Spine_2",
			"translation":[
				1.0798983396398398e-07,
				1.8117694854736328,
				3.779644259793713e-07
			]
		},
		{
			"children":[
				23
			],
			"name":"Spine_1",
			"rotation":[
				0,
				0.7071066498756409,
				0,
				0.70710688829422
			],
			"translation":[
				5.68434527421259e-14,
				-1.430511474609375e-06,
				5.684341886080802e-14
			]
		},
		{
			"name":"Toe_L",
			"rotation":[
				0,
				-5.960473004051892e-08,
				0,
				1
			],
			"translation":[
				0.2899833023548126,
				-0.20002377033233643,
				-2.7661801738076974e-08
			]
		},
		{
			"children":[
				25
			],
			"name":"Ankle_L",
			"rotation":[
				0,
				4.470348358154297e-06,
				0,
				1
			],
			"translation":[
				-0.019390905275940895,
				-0.9347991943359375,
				-1.3341434623725945e-07
			]
		},
		{
			"children":[
				26
			],
			"name":"Leg_2_L_Sub",
			"translation":[
				-8.307219104608521e-05,
				-0.5359997749328613,
				1.7614173941638e-07
			]
		},
		{
			"children":[
				27
			],
			"name":"Leg_2_L",
			"translation":[
				0.0160861536860466,
				-1.4239094257354736,
				-5.398306370807404e-07
			]
		},
		{
			"children":[
				28
			],
			"name":"Leg_1_L_Sub",
			"rotation":[
				0,
				-4.410743713378906e-06,
				0,
				1
			],
			"translation":[
				0.005034708417952061,
				-0.925940752029419,
				9.802427758387466e-10
			]
		},
		{
			"children":[
				29
			],
			"name":"Leg_1_L",
			"translation":[
				-1.9243060478402185e-08,
				4.768372150465439e-07,
				-1.2495625019073486
			]
		},
		{
			"name":"Toe_R",
			"rotation":[
				0,
				1,
				0,
				4.3670324885169975e-06
			],
			"translation":[
				0.2899940609931946,
				-0.20000886917114258,
				3.1016250545690127e-07
			]
		},
		{
			"children":[
				31
			],
			"name":"Ankle_R",
			"rotation":[
				0,
				-1.430511474609375e-06,
				0,
				1
			],
			"translation":[
				-0.019299469888210297,
				-0.9348011016845703,
				1.2284147032914916e-07
			]
		},
		{
			"children":[
				32
			],
			"name":"Leg_2_R_Sub",
			"translation":[
				-0.0004914634046144783,
				-0.5359998941421509,
				-4.2113302356483473e-07
			]
		},
		{
			"children":[
				33
			],
			"name":"Leg_2_R",
			"translation":[
				0.01611846499145031,
				-1.4239097833633423,
				-6.217914005901548e-08
			]
		},
		{
			"children":[
				34
			],
			"name":"Leg_1_R_Sub",
			"rotation":[
				0,
				1.3709068298339844e-06,
				0,
				1
			],
			"translation":[
				0.0050184112042188644,
				-0.92598557472229,
				-1.1942866251501982e-07
			]
		},
		{
			"children":[
				35
			],
			"name":"Leg_1_R",
			"rotation":[
				0,
				-1.1920928955078125e-07,
				0,
				1
			],
			"translation":[
				1.5523454521826352e-08,
				4.440892098500626e-15,
				1.2500001192092896
			]
		},
		{
			"children":[
				30,
				36
			],
			"name":"Waist",
			"rotation":[
				0,
				-0.7071066498756409,
				0,
				0.70710688829422
			],
			"translation":[
				-5.68434527421259e-14,
				-1.430511474609375e-06,
				5.684341886080802e-14
			]
		},
		{
			"children":[
				24,
				37
			],
			"name":"Skl_Root",
			"translation":[
				0,
				4.200000286102295,
				0
			]
		},
		{
			"children":[
				38
			],
			"name":"Trans_Root"
		},
		{
			"children":[
				39
			],
			"name":"Root"
		},
		{
			"children":[
				3,
				40
			],
			"name":"nw4f_root",
			"rotation":[
				-0.7071067690849304,
				0,
				0,
				0.7071067690849304
			]
		},
		{
			"mesh":0,
			"name":"Body__mBody",
			"skin":0
		},
		{
			"mesh":1,
			"name":"Body__mEye",
			"skin":0
		},
		{
			"mesh":2,
			"name":"FaceBad__mBeak",
			"skin":0
		},
		{
			"mesh":3,
			"name":"FaceGood__mBeak",
			"skin":0
		},
		{
			"mesh":4,
			"name":"FaceNothing__mBeak",
			"skin":0
		},
		{
			"children":[
				42,
				43,
				44,
				45,
				46,
				41
			],
			"name":"Armature",
			"rotation":[
				0.7071068286895752,
				0,
				0,
				0.7071068286895752
			]
		}
	],
	"materials":[
		{
			"doubleSided":true,
			"name":"mBody.004",
			"pbrMetallicRoughness":{
				"baseColorTexture":{
					"index":0
				},
				"metallicFactor":0,
				"roughnessFactor":0.5
			}
		},
		{
			"doubleSided":true,
			"name":"mEye.004",
			"pbrMetallicRoughness":{
				"baseColorTexture":{
					"index":1
				},
				"metallicFactor":0,
				"roughnessFactor":0.5
			}
		},
		{
			"doubleSided":true,
			"name":"mBeak",
			"pbrMetallicRoughness":{
				"baseColorTexture":{
					"index":2
				},
				"metallicFactor":0,
				"roughnessFactor":0.5
			}
		}
	],
	"meshes":[
		{
			"name":"Body__mBody.004",
			"primitives":[
				{
					"attributes":{
						"POSITION":0,
						"NORMAL":1,
						"TEXCOORD_0":2,
						"COLOR_0":3,
						"COLOR_1":4,
						"JOINTS_0":5,
						"WEIGHTS_0":6
					},
					"indices":7,
					"material":0
				}
			]
		},
		{
			"name":"Body__mEye.004",
			"primitives":[
				{
					"attributes":{
						"POSITION":9,
						"NORMAL":10,
						"TEXCOORD_0":11,
						"JOINTS_0":12,
						"WEIGHTS_0":13
					},
					"indices":14,
					"material":1
				}
			]
		},
		{
			"name":"FaceBad__mBeak",
			"primitives":[
				{
					"attributes":{
						"POSITION":15,
						"NORMAL":16,
						"TEXCOORD_0":17,
						"JOINTS_0":18,
						"WEIGHTS_0":19
					},
					"indices":20,
					"material":2
				}
			]
		},
		{
			"name":"FaceGood__mBeak",
			"primitives":[
				{
					"attributes":{
						"POSITION":21,
						"NORMAL":22,
						"TEXCOORD_0":23,
						"JOINTS_0":24,
						"WEIGHTS_0":25
					},
					"indices":26,
					"material":2
				}
			]
		},
		{
			"name":"FaceNothing__mBeak",
			"primitives":[
				{
					"attributes":{
						"POSITION":27,
						"NORMAL":28,
						"TEXCOORD_0":29,
						"JOINTS_0":30,
						"WEIGHTS_0":31
					},
					"indices":32,
					"material":2
				}
			]
		}
	],
	"textures":[
		{
			"sampler":0,
			"source":0
		},
		{
			"sampler":0,
			"source":1
		},
		{
			"sampler":0,
			"source":2
		}
	],
	"images":[
		{
			"mimeType":"image/png",
			"name":"mBody_Alb",
			"uri":"mBody_Alb.png"
		},
		{
			"mimeType":"image/png",
			"name":"mEye_Alb.0",
			"uri":"mEye_Alb_0.png"
		},
		{
			"mimeType":"image/png",
			"name":"mBeak_Alb",
			"uri":"mBeak_Alb.png"
		}
	],
	"skins":[
		{
			"inverseBindMatrices":8,
			"joints":[
				41,
				3,
				0,
				1,
				2,
				40,
				39,
				38,
				24,
				23,
				22,
				9,
				8,
				7,
				6,
				5,
				4,
				15,
				14,
				13,
				12,
				11,
				10,
				21,
				20,
				18,
				16,
				17,
				19,
				37,
				30,
				29,
				28,
				27,
				26,
				25,
				36,
				35,
				34,
				33,
				32,
				31
			],
			"name":"Armature"
		}
	],
	"accessors":[
		{
			"bufferView":0,
			"componentType":5126,
			"count":1088,
			"max":[
				9.716693878173828,
				17.229829788208008,
				3.292266607284546
			],
			"min":[
				-9.716693878173828,
				-0.06857693940401077,
				-3.3092267513275146
			],
			"type":"VEC3"
		},
		{
			"bufferView":1,
			"componentType":5126,
			"count":1088,
			"type":"VEC3"
		},
		{
			"bufferView":2,
			"componentType":5126,
			"count":1088,
			"type":"VEC2"
		},
		{
			"bufferView":3,
			"componentType":5121,
			"count":1088,
			"normalized":true,
			"type":"VEC4"
		},
		{
			"bufferView":4,
			"componentType":5123,
			"count":1088,
			"normalized":true,
			"type":"VEC4"
		},
		{
			"bufferView":5,
			"componentType":5121,
			"count":1088,
			"type":"VEC4"
		},
		{
			"bufferView":6,
			"componentType":5126,
			"count":1088,
			"type":"VEC4"
		},
		{
			"bufferView":7,
			"componentType":5123,
			"count":5148,
			"type":"SCALAR"
		},
		{
			"bufferView":8,
			"componentType":5126,
			"count":42,
			"type":"MAT4"
		},
		{
			"bufferView":9,
			"componentType":5126,
			"count":122,
			"max":[
				2.9956369400024414,
				17.229829788208008,
				3.2100040912628174
			],
			"min":[
				-2.9956369400024414,
				12.456289291381836,
				-0.2537112236022949
			],
			"type":"VEC3"
		},
		{
			"bufferView":10,
			"componentType":5126,
			"count":122,
			"type":"VEC3"
		},
		{
			"bufferView":11,
			"componentType":5126,
			"count":122,
			"type":"VEC2"
		},
		{
			"bufferView":12,
			"componentType":5121,
			"count":122,
			"type":"VEC4"
		},
		{
			"bufferView":13,
			"componentType":5126,
			"count":122,
			"type":"VEC4"
		},
		{
			"bufferView":14,
			"componentType":5123,
			"count":594,
			"type":"SCALAR"
		},
		{
			"bufferView":15,
			"componentType":5126,
			"count":357,
			"max":[
				3.2832190990448,
				13.578949928283691,
				5.065902233123779
			],
			"min":[
				-3.2832190990448,
				9.287419319152832,
				0.8673283457756042
			],
			"type":"VEC3"
		},
		{
			"bufferView":16,
			"componentType":5126,
			"count":357,
			"type":"VEC3"
		},
		{
			"bufferView":17,
			"componentType":5126,
			"count":357,
			"type":"VEC2"
		},
		{
			"bufferView":18,
			"componentType":5121,
			"count":357,
			"type":"VEC4"
		},
		{
			"bufferView":19,
			"componentType":5126,
			"count":357,
			"type":"VEC4"
		},
		{
			"bufferView":20,
			"componentType":5123,
			"count":1758,
			"type":"SCALAR"
		},
		{
			"bufferView":21,
			"componentType":5126,
			"count":375,
			"max":[
				3.2940590381622314,
				13.578949928283691,
				5.096395015716553
			],
			"min":[
				-3.2940590381622314,
				9.287419319152832,
				0.867328941822052
			],
			"type":"VEC3"
		},
		{
			"bufferView":22,
			"componentType":5126,
			"count":375,
			"type":"VEC3"
		},
		{
			"bufferView":23,
			"componentType":5126,
			"count":375,
			"type":"VEC2"
		},
		{
			"bufferView":24,
			"componentType":5121,
			"count":375,
			"type":"VEC4"
		},
		{
			"bufferView":25,
			"componentType":5126,
			"count":375,
			"type":"VEC4"
		},
		{
			"bufferView":26,
			"componentType":5123,
			"count":1842,
			"type":"SCALAR"
		},
		{
			"bufferView":27,
			"componentType":5126,
			"count":341,
			"max":[
				3.255168914794922,
				13.578949928283691,
				5.084467887878418
			],
			"min":[
				-3.255168914794922,
				9.287419319152832,
				0.8673283457756042
			],
			"type":"VEC3"
		},
		{
			"bufferView":28,
			"componentType":5126,
			"count":341,
			"type":"VEC3"
		},
		{
			"bufferView":29,
			"componentType":5126,
			"count":341,
			"type":"VEC2"
		},
		{
			"bufferView":30,
			"componentType":5121,
			"count":341,
			"type":"VEC4"
		},
		{
			"bufferView":31,
			"componentType":5126,
			"count":341,
			"type":"VEC4"
		},
		{
			"bufferView":32,
			"componentType":5123,
			"count":1590,
			"type":"SCALAR"
		}
	],
	"bufferViews":[
		{
			"buffer":0,
			"byteLength":13056,
			"byteOffset":0,
			"target":34962
		},
		{
			"buffer":0,
			"byteLength":13056,
			"byteOffset":13056,
			"target":34962
		},
		{
			"buffer":0,
			"byteLength":8704,
			"byteOffset":26112,
			"target":34962
		},
		{
			"buffer":0,
			"byteLength":4352,
			"byteOffset":34816,
			"target":34962
		},
		{
			"buffer":0,
			"byteLength":8704,
			"byteOffset":39168,
			"target":34962
		},
		{
			"buffer":0,
			"byteLength":4352,
			"byteOffset":47872,
			"target":34962
		},
		{
			"buffer":0,
			"byteLength":17408,
			"byteOffset":52224,
			"target":34962
		},
		{
			"buffer":0,
			"byteLength":10296,
			"byteOffset":69632,
			"target":34963
		},
		{
			"buffer":0,
			"byteLength":2688,
			"byteOffset":79928
		},
		{
			"buffer":0,
			"byteLength":1464,
			"byteOffset":82616,
			"target":34962
		},
		{
			"buffer":0,
			"byteLength":1464,
			"byteOffset":84080,
			"target":34962
		},
		{
			"buffer":0,
			"byteLength":976,
			"byteOffset":85544,
			"target":34962
		},
		{
			"buffer":0,
			"byteLength":488,
			"byteOffset":86520,
			"target":34962
		},
		{
			"buffer":0,
			"byteLength":1952,
			"byteOffset":87008,
			"target":34962
		},
		{
			"buffer":0,
			"byteLength":1188,
			"byteOffset":88960,
			"target":34963
		},
		{
			"buffer":0,
			"byteLength":4284,
			"byteOffset":90148,
			"target":34962
		},
		{
			"buffer":0,
			"byteLength":4284,
			"byteOffset":94432,
			"target":34962
		},
		{
			"buffer":0,
			"byteLength":2856,
			"byteOffset":98716,
			"target":34962
		},
		{
			"buffer":0,
			"byteLength":1428,
			"byteOffset":101572,
			"target":34962
		},
		{
			"buffer":0,
			"byteLength":5712,
			"byteOffset":103000,
			"target":34962
		},
		{
			"buffer":0,
			"byteLength":3516,
			"byteOffset":108712,
			"target":34963
		},
		{
			"buffer":0,
			"byteLength":4500,
			"byteOffset":112228,
			"target":34962
		},
		{
			"buffer":0,
			"byteLength":4500,
			"byteOffset":116728,
			"target":34962
		},
		{
			"buffer":0,
			"byteLength":3000,
			"byteOffset":121228,
			"target":34962
		},
		{
			"buffer":0,
			"byteLength":1500,
			"byteOffset":124228,
			"target":34962
		},
		{
			"buffer":0,
			"byteLength":6000,
			"byteOffset":125728,
			"target":34962
		},
		{
			"buffer":0,
			"byteLength":3684,
			"byteOffset":131728,
			"target":34963
		},
		{
			"buffer":0,
			"byteLength":4092,
			"byteOffset":135412,
			"target":34962
		},
		{
			"buffer":0,
			"byteLength":4092,
			"byteOffset":139504,
			"target":34962
		},
		{
			"buffer":0,
			"byteLength":2728,
			"byteOffset":143596,
			"target":34962
		},
		{
			"buffer":0,
			"byteLength":1364,
			"byteOffset":146324,
			"target":34962
		},
		{
			"buffer":0,
			"byteLength":5456,
			"byteOffset":147688,
			"target":34962
		},
		{
			"buffer":0,
			"byteLength":3180,
			"byteOffset":153144,
			"target":34963
		}
	],
	"samplers":[
		{
			"magFilter":9729,
			"minFilter":9987
		}
	],
	"buffers":[
		{
			"byteLength":156324,
			"uri":"Lexa.bin"
		}
	]
}
