{
	"asset":{
		"generator":"Khronos glTF Blender I/O v4.3.47",
		"version":"2.0"
	},
	"scene":0,
	"scenes":[
		{
			"name":"Scene",
			"nodes":[
				57
			]
		}
	],
	"nodes":[
		{
			"name":"FaceBad",
			"translation":[
				0,
				8.157227516174316,
				-0.31396710872650146
			]
		},
		{
			"name":"FaceGood",
			"translation":[
				0,
				8.157227516174316,
				-0.31396710872650146
			]
		},
		{
			"name":"FaceNothing",
			"translation":[
				0,
				8.157227516174316,
				-0.31396710872650146
			]
		},
		{
			"children":[
				0,
				1,
				2
			],
			"name":"Mdl_Root"
		},
		{
			"name":"Hand_L",
			"translation":[
				1.7156246900558472,
				-0.42818471789360046,
				2.8688290119171143
			]
		},
		{
			"children":[
				4
			],
			"name":"Wrist_L",
			"translation":[
				1.9543743133544922,
				-4.796163466380676e-14,
				1.7667360907580587e-07
			]
		},
		{
			"name":"Wrist_L_Sub",
			"translation":[
				0.8970685005187988,
				-3.019806626980426e-14,
				8.109407190204365e-08
			]
		},
		{
			"children":[
				5,
				6
			],
			"name":"Arm_2_L",
			"translation":[
				1.3830008506774902,
				-1.7763568394002505e-14,
				1.250219270332309e-07
			]
		},
		{
			"children":[
				7
			],
			"name":"Arm_1_L_Sub",
			"translation":[
				1.2499995231628418,
				5.329070518200751e-15,
				1.1299894708827196e-07
			]
		},
		{
			"children":[
				8
			],
			"name":"Arm_1_L",
			"rotation":[
				0,
				4.960618582572351e-10,
				0,
				1
			],
			"translation":[
				0.7500016689300537,
				2.4868995751603507e-14,
				6.705522537231445e-08
			]
		},
		{
			"children":[
				9
			],
			"name":"Clavicle_L",
			"rotation":[
				0,
				-0.7071067094802856,
				0,
				0.7071068286895752
			],
			"translation":[
				3.963842232224124e-08,
				1.1419992446899414,
				2.0439999103546143
			]
		},
		{
			"name":"Hand_R",
			"translation":[
				-1.7167099714279175,
				-0.4283134639263153,
				2.8688302040100098
			]
		},
		{
			"children":[
				11
			],
			"name":"Wrist_R",
			"translation":[
				-1.9540009498596191,
				1.5987211554602254e-13,
				-5.532206159841735e-07
			]
		},
		{
			"name":"Wrist_R_Sub",
			"translation":[
				-0.8970603942871094,
				1.474376176702208e-13,
				-2.539774186516297e-07
			]
		},
		{
			"children":[
				12,
				13
			],
			"name":"Arm_2_R",
			"translation":[
				-1.3826780319213867,
				1.3855583347321954e-13,
				-3.914665853699262e-07
			]
		},
		{
			"children":[
				14
			],
			"name":"Arm_1_R_Sub",
			"translation":[
				-1.249999761581421,
				1.2256862191861728e-13,
				-3.5390240782362525e-07
			]
		},
		{
			"children":[
				15
			],
			"name":"Arm_1_R",
			"rotation":[
				0,
				9.177639981317043e-09,
				0,
				1
			],
			"translation":[
				-0.7500007152557373,
				1.0835776720341528e-13,
				-1.9857506572407146e-07
			]
		},
		{
			"children":[
				16
			],
			"name":"Clavicle_R",
			"rotation":[
				0,
				-0.7071066498756409,
				0,
				0.70710688829422
			],
			"translation":[
				9.650054266785446e-08,
				1.1421308517456055,
				-2.0436134338378906
			]
		},
		{
			"name":"Collar_Back",
			"translation":[
				2.0480926036834717,
				0.23798003792762756,
				-2.2705604862949258e-07
			]
		},
		{
			"name":"Collar_Front",
			"translation":[
				-3.051481246948242,
				0.700000524520874,
				5.582952553595533e-07
			]
		},
		{
			"name":"Collar_L",
			"translation":[
				-4.175547019258374e-09,
				0.48999977111816406,
				2.40000057220459
			]
		},
		{
			"name":"Collar_R",
			"rotation":[
				0,
				1.1920928955078125e-07,
				0,
				1
			],
			"translation":[
				6.25886968919076e-08,
				0.48999977111816406,
				-2.4000003337860107
			]
		},
		{
			"children":[
				18,
				19,
				20,
				21
			],
			"name":"Collar",
			"translation":[
				4.567310071812436e-15,
				8.704148513061227e-14,
				4.741798858946822e-14
			]
		},
		{
			"name":"Mouth",
			"rotation":[
				0,
				-1,
				0,
				1.9470718370939721e-07
			],
			"translation":[
				-2.354027271270752,
				2.1630313396453857,
				7.692780741308525e-07
			]
		},
		{
			"children":[
				23
			],
			"name":"FaceRoot",
			"translation":[
				4.567310071812436e-15,
				8.704148513061227e-14,
				4.741798858946822e-14
			]
		},
		{
			"name":"Feel",
			"rotation":[
				0,
				-0.7071066498756409,
				0,
				0.70710688829422
			],
			"translation":[
				1.5497209915338317e-07,
				2.600001335144043,
				5.424022901934222e-07
			]
		},
		{
			"children":[
				22,
				24,
				25
			],
			"name":"Head",
			"translation":[
				2.692985923147262e-08,
				0.45180606842041016,
				9.425405522733854e-08
			]
		},
		{
			"children":[
				26
			],
			"name":"Neck",
			"translation":[
				1.4956076199723611e-07,
				2.5092124938964844,
				5.234625177763519e-07
			]
		},
		{
			"children":[
				10,
				17,
				27
			],
			"name":"Spine_3",
			"translation":[
				7.298216786466583e-08,
				1.2244372367858887,
				2.5543752713019785e-07
			]
		},
		{
			"children":[
				28
			],
			"name":"Spine_2",
			"translation":[
				9.08788209130762e-08,
				1.524693489074707,
				3.180757062182238e-07
			]
		},
		{
			"children":[
				29
			],
			"name":"Spine_1",
			"rotation":[
				0,
				0.7071066498756409,
				0,
				0.70710688829422
			],
			"translation":[
				-1.136869054842518e-13,
				-9.5367431640625e-07,
				5.684341886080802e-14
			]
		},
		{
			"name":"Toe_L",
			"translation":[
				0.7316033840179443,
				-0.396847128868103,
				-0.3219998776912689
			]
		},
		{
			"children":[
				31
			],
			"name":"Ankle_L",
			"translation":[
				2.4487495466019027e-05,
				-1.2649259567260742,
				-3.610823569033528e-07
			]
		},
		{
			"children":[
				32
			],
			"name":"Leg_2_L_Sub",
			"translation":[
				1.1136650073240162e-06,
				-0.4076082706451416,
				-3.4592639863717523e-09
			]
		},
		{
			"children":[
				33
			],
			"name":"Leg_2_L",
			"translation":[
				1.2184642628199072e-07,
				-2.0275864601135254,
				-4.802966486749938e-07
			]
		},
		{
			"children":[
				34
			],
			"name":"Leg_1_L_Sub",
			"translation":[
				4.20942001255753e-08,
				-0.6794624328613281,
				-1.2266879423350474e-07
			]
		},
		{
			"children":[
				35
			],
			"name":"Leg_1_L",
			"translation":[
				-0.017767542973160744,
				0.14632129669189453,
				-1.159197211265564
			]
		},
		{
			"name":"Toe_R",
			"rotation":[
				0,
				1,
				0,
				7.549789415861596e-08
			],
			"translation":[
				0.7316029667854309,
				-0.3968468904495239,
				0.32241103053092957
			]
		},
		{
			"children":[
				37
			],
			"name":"Ankle_R",
			"translation":[
				2.4344117264263332e-05,
				-1.264930248260498,
				-3.568523254671163e-07
			]
		},
		{
			"children":[
				38
			],
			"name":"Leg_2_R_Sub",
			"translation":[
				1.0019525689131115e-06,
				-0.4076080322265625,
				7.765994514130625e-10
			]
		},
		{
			"children":[
				39
			],
			"name":"Leg_2_R",
			"translation":[
				-1.8358110764893354e-07,
				-2.0275864601135254,
				-4.760605065712298e-07
			]
		},
		{
			"children":[
				40
			],
			"name":"Leg_1_R_Sub",
			"rotation":[
				0,
				3.552713678800501e-15,
				0,
				1
			],
			"translation":[
				-5.844223593953757e-08,
				-0.6794605255126953,
				-1.1843265212974075e-07
			]
		},
		{
			"children":[
				41
			],
			"name":"Leg_1_R",
			"rotation":[
				0,
				-1.1920928955078125e-07,
				0,
				1
			],
			"translation":[
				-0.01776750572025776,
				0.14632320404052734,
				1.159000277519226
			]
		},
		{
			"name":"Z_Tail",
			"translation":[
				1.6191154718399048,
				-5.034980858908966e-07,
				-4.117601974940044e-07
			]
		},
		{
			"children":[
				43
			],
			"name":"Tail_2",
			"translation":[
				2.4116227626800537,
				-1.4890073884998856e-07,
				-6.133042802503041e-07
			]
		},
		{
			"children":[
				44
			],
			"name":"Tail_1",
			"rotation":[
				0,
				1,
				0,
				1.9470718370939721e-07
			],
			"translation":[
				-1.9320261478424072,
				0.2618919909000397,
				-2.0638726994093304e-07
			]
		},
		{
			"children":[
				45
			],
			"name":"TailRoot",
			"translation":[
				1.7999450129153882e-21,
				2.842170943040401e-14,
				0
			]
		},
		{
			"children":[
				36,
				42,
				46
			],
			"name":"Waist",
			"rotation":[
				0,
				-0.7071066498756409,
				0,
				0.70710688829422
			],
			"translation":[
				1.136869054842518e-13,
				-9.5367431640625e-07,
				5.684341886080802e-14
			]
		},
		{
			"children":[
				30,
				47
			],
			"name":"Skl_Root",
			"translation":[
				0,
				5.05851411819458,
				0
			]
		},
		{
			"children":[
				48
			],
			"name":"Trans_Root"
		},
		{
			"children":[
				49
			],
			"name":"Root"
		},
		{
			"children":[
				3,
				50
			],
			"name":"nw4f_root",
			"rotation":[
				-0.7071067690849304,
				0,
				0,
				0.7071067690849304
			]
		},
		{
			"mesh":0,
			"name":"Body__mBody",
			"skin":0
		},
		{
			"mesh":1,
			"name":"Body__mEye",
			"skin":0
		},
		{
			"mesh":2,
			"name":"FaceBad__mBeak",
			"skin":0
		},
		{
			"mesh":3,
			"name":"FaceGood__mBeak",
			"skin":0
		},
		{
			"mesh":4,
			"name":"FaceNothing__mBeak",
			"skin":0
		},
		{
			"children":[
				52,
				53,
				54,
				55,
				56,
				51
			],
			"name":"Armature",
			"rotation":[
				0.7071068286895752,
				0,
				0,
				0.7071068286895752
			]
		}
	],
	"materials":[
		{
			"doubleSided":true,
			"name":"mBody.009",
			"pbrMetallicRoughness":{
				"baseColorTexture":{
					"index":0
				},
				"metallicFactor":0,
				"roughnessFactor":0.5
			}
		},
		{
			"doubleSided":true,
			"name":"mEye.009",
			"pbrMetallicRoughness":{
				"baseColorTexture":{
					"index":1
				},
				"metallicFactor":0,
				"roughnessFactor":0.5
			}
		},
		{
			"doubleSided":true,
			"name":"mBeak.002",
			"pbrMetallicRoughness":{
				"baseColorTexture":{
					"index":2
				},
				"metallicFactor":0,
				"roughnessFactor":0.5
			}
		}
	],
	"meshes":[
		{
			"name":"Body__mBody.009",
			"primitives":[
				{
					"attributes":{
						"POSITION":0,
						"NORMAL":1,
						"TEXCOORD_0":2,
						"COLOR_0":3,
						"COLOR_1":4,
						"JOINTS_0":5,
						"WEIGHTS_0":6
					},
					"indices":7,
					"material":0
				}
			]
		},
		{
			"name":"Body__mEye.009",
			"primitives":[
				{
					"attributes":{
						"POSITION":9,
						"NORMAL":10,
						"TEXCOORD_0":11,
						"JOINTS_0":12,
						"WEIGHTS_0":13
					},
					"indices":14,
					"material":1
				}
			]
		},
		{
			"name":"FaceBad__mBeak.002",
			"primitives":[
				{
					"attributes":{
						"POSITION":15,
						"NORMAL":16,
						"TEXCOORD_0":17,
						"JOINTS_0":18,
						"WEIGHTS_0":19
					},
					"indices":20,
					"material":2
				}
			]
		},
		{
			"name":"FaceGood__mBeak.002",
			"primitives":[
				{
					"attributes":{
						"POSITION":21,
						"NORMAL":22,
						"TEXCOORD_0":23,
						"JOINTS_0":24,
						"WEIGHTS_0":25
					},
					"indices":26,
					"material":2
				}
			]
		},
		{
			"name":"FaceNothing__mBeak.002",
			"primitives":[
				{
					"attributes":{
						"POSITION":27,
						"NORMAL":28,
						"TEXCOORD_0":29,
						"JOINTS_0":30,
						"WEIGHTS_0":31
					},
					"indices":32,
					"material":2
				}
			]
		}
	],
	"textures":[
		{
			"sampler":0,
			"source":0
		},
		{
			"sampler":0,
			"source":1
		},
		{
			"sampler":0,
			"source":2
		}
	],
	"images":[
		{
			"mimeType":"image/png",
			"name":"mBody_Alb",
			"uri":"mBody_Alb.png"
		},
		{
			"mimeType":"image/png",
			"name":"mEye_Alb.0",
			"uri":"mEye_Alb_0.png"
		},
		{
			"mimeType":"image/png",
			"name":"mBeak_Alb",
			"uri":"mBeak_Alb.png"
		}
	],
	"skins":[
		{
			"inverseBindMatrices":8,
			"joints":[
				51,
				3,
				0,
				1,
				2,
				50,
				49,
				48,
				30,
				29,
				28,
				10,
				9,
				8,
				7,
				5,
				4,
				6,
				17,
				16,
				15,
				14,
				12,
				11,
				13,
				27,
				26,
				22,
				18,
				19,
				20,
				21,
				24,
				23,
				25,
				47,
				36,
				35,
				34,
				33,
				32,
				31,
				42,
				41,
				40,
				39,
				38,
				37,
				46,
				45,
				44,
				43
			],
			"name":"Armature"
		}
	],
	"accessors":[
		{
			"bufferView":0,
			"componentType":5126,
			"count":1758,
			"max":[
				9.727822303771973,
				12.448169708251953,
				4.777572154998779
			],
			"min":[
				-9.727822303771973,
				-0.0021238026674836874,
				-6.5221452713012695
			],
			"type":"VEC3"
		},
		{
			"bufferView":1,
			"componentType":5126,
			"count":1758,
			"type":"VEC3"
		},
		{
			"bufferView":2,
			"componentType":5126,
			"count":1758,
			"type":"VEC2"
		},
		{
			"bufferView":3,
			"componentType":5121,
			"count":1758,
			"normalized":true,
			"type":"VEC4"
		},
		{
			"bufferView":4,
			"componentType":5123,
			"count":1758,
			"normalized":true,
			"type":"VEC4"
		},
		{
			"bufferView":5,
			"componentType":5121,
			"count":1758,
			"type":"VEC4"
		},
		{
			"bufferView":6,
			"componentType":5126,
			"count":1758,
			"type":"VEC4"
		},
		{
			"bufferView":7,
			"componentType":5123,
			"count":8250,
			"type":"SCALAR"
		},
		{
			"bufferView":8,
			"componentType":5126,
			"count":52,
			"type":"MAT4"
		},
		{
			"bufferView":9,
			"componentType":5126,
			"count":208,
			"max":[
				2.484959840774536,
				16.019010543823242,
				2.4530820846557617
			],
			"min":[
				-2.484959840774536,
				11.752909660339355,
				-3.159034252166748
			],
			"type":"VEC3"
		},
		{
			"bufferView":10,
			"componentType":5126,
			"count":208,
			"type":"VEC3"
		},
		{
			"bufferView":11,
			"componentType":5126,
			"count":208,
			"type":"VEC2"
		},
		{
			"bufferView":12,
			"componentType":5121,
			"count":208,
			"type":"VEC4"
		},
		{
			"bufferView":13,
			"componentType":5126,
			"count":208,
			"type":"VEC4"
		},
		{
			"bufferView":14,
			"componentType":5123,
			"count":1038,
			"type":"SCALAR"
		},
		{
			"bufferView":15,
			"componentType":5126,
			"count":186,
			"max":[
				1.8968130350112915,
				15.568079948425293,
				5.702311038970947
			],
			"min":[
				-1.8968130350112915,
				12.152199745178223,
				1.9605498313903809
			],
			"type":"VEC3"
		},
		{
			"bufferView":16,
			"componentType":5126,
			"count":186,
			"type":"VEC3"
		},
		{
			"bufferView":17,
			"componentType":5126,
			"count":186,
			"type":"VEC2"
		},
		{
			"bufferView":18,
			"componentType":5121,
			"count":186,
			"type":"VEC4"
		},
		{
			"bufferView":19,
			"componentType":5126,
			"count":186,
			"type":"VEC4"
		},
		{
			"bufferView":20,
			"componentType":5123,
			"count":804,
			"type":"SCALAR"
		},
		{
			"bufferView":21,
			"componentType":5126,
			"count":178,
			"max":[
				1.8968130350112915,
				15.568079948425293,
				5.702311038970947
			],
			"min":[
				-1.8968130350112915,
				12.152199745178223,
				1.9605498313903809
			],
			"type":"VEC3"
		},
		{
			"bufferView":22,
			"componentType":5126,
			"count":178,
			"type":"VEC3"
		},
		{
			"bufferView":23,
			"componentType":5126,
			"count":178,
			"type":"VEC2"
		},
		{
			"bufferView":24,
			"componentType":5121,
			"count":178,
			"type":"VEC4"
		},
		{
			"bufferView":25,
			"componentType":5126,
			"count":178,
			"type":"VEC4"
		},
		{
			"bufferView":26,
			"componentType":5123,
			"count":774,
			"type":"SCALAR"
		},
		{
			"bufferView":27,
			"componentType":5126,
			"count":157,
			"max":[
				1.8968130350112915,
				15.568079948425293,
				5.702311038970947
			],
			"min":[
				-1.8968130350112915,
				12.152199745178223,
				1.9605498313903809
			],
			"type":"VEC3"
		},
		{
			"bufferView":28,
			"componentType":5126,
			"count":157,
			"type":"VEC3"
		},
		{
			"bufferView":29,
			"componentType":5126,
			"count":157,
			"type":"VEC2"
		},
		{
			"bufferView":30,
			"componentType":5121,
			"count":157,
			"type":"VEC4"
		},
		{
			"bufferView":31,
			"componentType":5126,
			"count":157,
			"type":"VEC4"
		},
		{
			"bufferView":32,
			"componentType":5123,
			"count":702,
			"type":"SCALAR"
		}
	],
	"bufferViews":[
		{
			"buffer":0,
			"byteLength":21096,
			"byteOffset":0,
			"target":34962
		},
		{
			"buffer":0,
			"byteLength":21096,
			"byteOffset":21096,
			"target":34962
		},
		{
			"buffer":0,
			"byteLength":14064,
			"byteOffset":42192,
			"target":34962
		},
		{
			"buffer":0,
			"byteLength":7032,
			"byteOffset":56256,
			"target":34962
		},
		{
			"buffer":0,
			"byteLength":14064,
			"byteOffset":63288,
			"target":34962
		},
		{
			"buffer":0,
			"byteLength":7032,
			"byteOffset":77352,
			"target":34962
		},
		{
			"buffer":0,
			"byteLength":28128,
			"byteOffset":84384,
			"target":34962
		},
		{
			"buffer":0,
			"byteLength":16500,
			"byteOffset":112512,
			"target":34963
		},
		{
			"buffer":0,
			"byteLength":3328,
			"byteOffset":129012
		},
		{
			"buffer":0,
			"byteLength":2496,
			"byteOffset":132340,
			"target":34962
		},
		{
			"buffer":0,
			"byteLength":2496,
			"byteOffset":134836,
			"target":34962
		},
		{
			"buffer":0,
			"byteLength":1664,
			"byteOffset":137332,
			"target":34962
		},
		{
			"buffer":0,
			"byteLength":832,
			"byteOffset":138996,
			"target":34962
		},
		{
			"buffer":0,
			"byteLength":3328,
			"byteOffset":139828,
			"target":34962
		},
		{
			"buffer":0,
			"byteLength":2076,
			"byteOffset":143156,
			"target":34963
		},
		{
			"buffer":0,
			"byteLength":2232,
			"byteOffset":145232,
			"target":34962
		},
		{
			"buffer":0,
			"byteLength":2232,
			"byteOffset":147464,
			"target":34962
		},
		{
			"buffer":0,
			"byteLength":1488,
			"byteOffset":149696,
			"target":34962
		},
		{
			"buffer":0,
			"byteLength":744,
			"byteOffset":151184,
			"target":34962
		},
		{
			"buffer":0,
			"byteLength":2976,
			"byteOffset":151928,
			"target":34962
		},
		{
			"buffer":0,
			"byteLength":1608,
			"byteOffset":154904,
			"target":34963
		},
		{
			"buffer":0,
			"byteLength":2136,
			"byteOffset":156512,
			"target":34962
		},
		{
			"buffer":0,
			"byteLength":2136,
			"byteOffset":158648,
			"target":34962
		},
		{
			"buffer":0,
			"byteLength":1424,
			"byteOffset":160784,
			"target":34962
		},
		{
			"buffer":0,
			"byteLength":712,
			"byteOffset":162208,
			"target":34962
		},
		{
			"buffer":0,
			"byteLength":2848,
			"byteOffset":162920,
			"target":34962
		},
		{
			"buffer":0,
			"byteLength":1548,
			"byteOffset":165768,
			"target":34963
		},
		{
			"buffer":0,
			"byteLength":1884,
			"byteOffset":167316,
			"target":34962
		},
		{
			"buffer":0,
			"byteLength":1884,
			"byteOffset":169200,
			"target":34962
		},
		{
			"buffer":0,
			"byteLength":1256,
			"byteOffset":171084,
			"target":34962
		},
		{
			"buffer":0,
			"byteLength":628,
			"byteOffset":172340,
			"target":34962
		},
		{
			"buffer":0,
			"byteLength":2512,
			"byteOffset":172968,
			"target":34962
		},
		{
			"buffer":0,
			"byteLength":1404,
			"byteOffset":175480,
			"target":34963
		}
	],
	"samplers":[
		{
			"magFilter":9729,
			"minFilter":9987
		}
	],
	"buffers":[
		{
			"byteLength":176884,
			"uri":"Sasha.bin"
		}
	]
}
