{
	"asset":{
		"generator":"Khronos glTF Blender I/O v4.3.47",
		"version":"2.0"
	},
	"scene":0,
	"scenes":[
		{
			"name":"Scene",
			"nodes":[
				37
			]
		}
	],
	"nodes":[
		{
			"name":"Hand_L",
			"translation":[
				0.12080006301403046,
				-2.9791731748218808e-08,
				0.39460328221321106
			]
		},
		{
			"children":[
				0
			],
			"name":"Wrist_L",
			"translation":[
				0.48000001907348633,
				-1.021405182655144e-14,
				4.339159431765438e-08
			]
		},
		{
			"children":[
				1
			],
			"name":"Arm_2_L",
			"translation":[
				0.5499999523162842,
				-2.6645352591003757e-15,
				4.9719446337803674e-08
			]
		},
		{
			"children":[
				2
			],
			"name":"Arm_1_L_Sub",
			"translation":[
				0.5000004768371582,
				6.217248937900877e-15,
				4.51995632033686e-08
			]
		},
		{
			"children":[
				3
			],
			"name":"Arm_1_L",
			"rotation":[
				0,
				4.960618582572351e-10,
				0,
				1
			],
			"translation":[
				0.4999999701976776,
				-0.3595874309539795,
				6.613655756382286e-08
			]
		},
		{
			"children":[
				4
			],
			"name":"Clavicle_L",
			"rotation":[
				0,
				-0.7071067094802856,
				0,
				0.7071068286895752
			],
			"translation":[
				1.8353176756136236e-08,
				0.3846893310546875,
				0.32900017499923706
			]
		},
		{
			"name":"Hand_R",
			"translation":[
				-0.12100010365247726,
				-2.982161717568488e-08,
				0.39500004053115845
			]
		},
		{
			"children":[
				6
			],
			"name":"Wrist_R",
			"translation":[
				-0.48000025749206543,
				5.861977570020827e-14,
				-1.3589868785857107e-07
			]
		},
		{
			"children":[
				7
			],
			"name":"Arm_2_R",
			"translation":[
				-0.5500003099441528,
				5.3290705182007514e-14,
				-1.5571723110952007e-07
			]
		},
		{
			"children":[
				8
			],
			"name":"Arm_1_R_Sub",
			"translation":[
				-0.5000002384185791,
				4.707345624410664e-14,
				-1.415610881849716e-07
			]
		},
		{
			"children":[
				9
			],
			"name":"Arm_1_R",
			"rotation":[
				0,
				9.177639981317043e-09,
				0,
				1
			],
			"translation":[
				-0.5000003576278687,
				-0.3595869541168213,
				-1.6506156441664643e-07
			]
		},
		{
			"children":[
				10
			],
			"name":"Clavicle_R",
			"rotation":[
				0,
				-0.7071066498756409,
				0,
				0.70710688829422
			],
			"translation":[
				2.7505265620675345e-08,
				0.3846888542175293,
				-0.3290000855922699
			]
		},
		{
			"name":"Feel",
			"rotation":[
				0,
				-0.7071066498756409,
				0,
				0.70710688829422
			],
			"translation":[
				2.2649776099115115e-07,
				3.8000011444091797,
				7.927417868813791e-07
			]
		},
		{
			"children":[
				12
			],
			"name":"Head",
			"translation":[
				2.980247604256192e-09,
				0.04999971389770508,
				1.043079844720296e-08
			]
		},
		{
			"children":[
				13
			],
			"name":"Neck",
			"translation":[
				3.8743049657341544e-08,
				0.6500003337860107,
				1.3560054412664613e-07
			]
		},
		{
			"children":[
				5,
				11,
				14
			],
			"name":"Spine_3",
			"translation":[
				4.47035120032524e-08,
				0.75,
				1.5646214990283625e-07
			]
		},
		{
			"children":[
				15
			],
			"name":"Spine_2",
			"translation":[
				4.470351555596608e-08,
				0.7500002384185791,
				1.5646224937881925e-07
			]
		},
		{
			"children":[
				16
			],
			"name":"Spine_1",
			"rotation":[
				0,
				0.7071066498756409,
				0,
				0.70710688829422
			],
			"translation":[
				1.9895208798557246e-13,
				4.76837158203125e-07,
				-2.842170943040401e-14
			]
		},
		{
			"name":"Toe_L",
			"translation":[
				0.2299279123544693,
				-0.20000004768371582,
				-1.4800767722533692e-08
			]
		},
		{
			"children":[
				18
			],
			"name":"Ankle_L",
			"translation":[
				1.936071747365986e-08,
				-0.3248823881149292,
				-5.956938409212853e-08
			]
		},
		{
			"children":[
				19
			],
			"name":"Leg_2_L_Sub",
			"translation":[
				1.191808252087867e-08,
				-0.20000016689300537,
				-5.956938764484221e-08
			]
		},
		{
			"children":[
				20
			],
			"name":"Leg_2_L",
			"translation":[
				0.00018116079445462674,
				-0.6401720643043518,
				-1.1917403242023283e-07
			]
		},
		{
			"children":[
				21
			],
			"name":"Leg_1_L_Sub",
			"translation":[
				3.576280249717456e-08,
				-0.6000001430511475,
				-1.1920930376163597e-07
			]
		},
		{
			"children":[
				22
			],
			"name":"Leg_1_L",
			"translation":[
				-8.76272565619729e-09,
				2.1316282072803006e-14,
				-0.6300002336502075
			]
		},
		{
			"name":"Toe_R",
			"rotation":[
				0,
				1,
				0,
				7.549789415861596e-08
			],
			"translation":[
				0.22992801666259766,
				-0.20000001788139343,
				-6.966108401229576e-08
			]
		},
		{
			"children":[
				24
			],
			"name":"Ankle_R",
			"translation":[
				6.842833499831613e-08,
				-0.32488036155700684,
				-5.961061333437101e-08
			]
		},
		{
			"children":[
				25
			],
			"name":"Leg_2_R_Sub",
			"translation":[
				4.2126284682808546e-08,
				-0.2000001072883606,
				-5.961060622894365e-08
			]
		},
		{
			"children":[
				26
			],
			"name":"Leg_2_R",
			"translation":[
				0.0001361002796329558,
				-0.6401719450950623,
				-1.1921524389890692e-07
			]
		},
		{
			"children":[
				27
			],
			"name":"Leg_1_R_Sub",
			"rotation":[
				0,
				3.552713678800501e-15,
				0,
				1
			],
			"translation":[
				1.2636024848688976e-07,
				-0.6000001430511475,
				-1.1920930376163597e-07
			]
		},
		{
			"children":[
				28
			],
			"name":"Leg_1_R",
			"rotation":[
				0,
				-1.1920928955078125e-07,
				0,
				1
			],
			"translation":[
				8.762626180214284e-09,
				1.3322676295501878e-15,
				0.630000114440918
			]
		},
		{
			"children":[
				23,
				29
			],
			"name":"Waist",
			"rotation":[
				0,
				-0.7071066498756409,
				0,
				0.70710688829422
			],
			"translation":[
				-1.9895208798557246e-13,
				4.76837158203125e-07,
				-2.842170943040401e-14
			]
		},
		{
			"children":[
				17,
				30
			],
			"name":"Skl_Root",
			"translation":[
				0,
				2,
				0
			]
		},
		{
			"children":[
				31
			],
			"name":"Trans_Root"
		},
		{
			"children":[
				32
			],
			"name":"Root",
			"rotation":[
				-0.7071067690849304,
				0,
				0,
				0.7071067690849304
			]
		},
		{
			"mesh":0,
			"name":"Body__mBody",
			"skin":0
		},
		{
			"mesh":1,
			"name":"Body__mEye",
			"skin":0
		},
		{
			"mesh":2,
			"name":"Body__mMouth",
			"skin":0
		},
		{
			"children":[
				34,
				35,
				36,
				33
			],
			"name":"Armature",
			"rotation":[
				0.7071068286895752,
				0,
				0,
				0.7071068286895752
			]
		}
	],
	"materials":[
		{
			"doubleSided":true,
			"name":"mBody.001",
			"pbrMetallicRoughness":{
				"baseColorTexture":{
					"index":0
				},
				"metallicFactor":0,
				"roughnessFactor":0.5
			}
		},
		{
			"doubleSided":true,
			"name":"mEye.001",
			"pbrMetallicRoughness":{
				"baseColorTexture":{
					"index":1
				},
				"metallicFactor":0,
				"roughnessFactor":0.5
			}
		},
		{
			"doubleSided":true,
			"name":"mMouth.001",
			"pbrMetallicRoughness":{
				"baseColorTexture":{
					"index":2
				},
				"metallicFactor":0,
				"roughnessFactor":0.5
			}
		}
	],
	"meshes":[
		{
			"name":"Body__mBody.001",
			"primitives":[
				{
					"attributes":{
						"POSITION":0,
						"NORMAL":1,
						"TEXCOORD_0":2,
						"COLOR_0":3,
						"COLOR_1":4,
						"JOINTS_0":5,
						"WEIGHTS_0":6
					},
					"indices":7,
					"material":0
				}
			]
		},
		{
			"name":"Body__mEye.001",
			"primitives":[
				{
					"attributes":{
						"POSITION":9,
						"NORMAL":10,
						"TEXCOORD_0":11,
						"JOINTS_0":12,
						"WEIGHTS_0":13
					},
					"indices":14,
					"material":1
				}
			]
		},
		{
			"name":"Body__mMouth.001",
			"primitives":[
				{
					"attributes":{
						"POSITION":15,
						"NORMAL":16,
						"TEXCOORD_0":17,
						"JOINTS_0":18,
						"WEIGHTS_0":19
					},
					"indices":20,
					"material":2
				}
			]
		}
	],
	"textures":[
		{
			"sampler":0,
			"source":0
		},
		{
			"sampler":0,
			"source":1
		},
		{
			"sampler":0,
			"source":2
		}
	],
	"images":[
		{
			"mimeType":"image/png",
			"name":"mBody_Alb",
			"uri":"mBody_Alb.png"
		},
		{
			"mimeType":"image/png",
			"name":"mEye_Alb.0",
			"uri":"mEye_Alb_0.png"
		},
		{
			"mimeType":"image/png",
			"name":"mMouth_Alb.0",
			"uri":"mMouth_Alb_0.png"
		}
	],
	"skins":[
		{
			"inverseBindMatrices":8,
			"joints":[
				33,
				32,
				31,
				17,
				16,
				15,
				5,
				4,
				3,
				2,
				1,
				0,
				11,
				10,
				9,
				8,
				7,
				6,
				14,
				13,
				12,
				30,
				23,
				22,
				21,
				20,
				19,
				18,
				29,
				28,
				27,
				26,
				25,
				24
			],
			"name":"Armature"
		}
	],
	"accessors":[
		{
			"bufferView":0,
			"componentType":5126,
			"count":911,
			"max":[
				3.3910911083221436,
				10.881059646606445,
				1.1666268110275269
			],
			"min":[
				-3.3910911083221436,
				0.008526409976184368,
				-2.982116460800171
			],
			"type":"VEC3"
		},
		{
			"bufferView":1,
			"componentType":5126,
			"count":911,
			"type":"VEC3"
		},
		{
			"bufferView":2,
			"componentType":5126,
			"count":911,
			"type":"VEC2"
		},
		{
			"bufferView":3,
			"componentType":5121,
			"count":911,
			"normalized":true,
			"type":"VEC4"
		},
		{
			"bufferView":4,
			"componentType":5123,
			"count":911,
			"normalized":true,
			"type":"VEC4"
		},
		{
			"bufferView":5,
			"componentType":5121,
			"count":911,
			"type":"VEC4"
		},
		{
			"bufferView":6,
			"componentType":5126,
			"count":911,
			"type":"VEC4"
		},
		{
			"bufferView":7,
			"componentType":5123,
			"count":4224,
			"type":"SCALAR"
		},
		{
			"bufferView":8,
			"componentType":5126,
			"count":34,
			"type":"MAT4"
		},
		{
			"bufferView":9,
			"componentType":5126,
			"count":163,
			"max":[
				2.8385488986968994,
				10.93567943572998,
				2.3467671871185303
			],
			"min":[
				-2.8385488986968994,
				8.170307159423828,
				-0.682806670665741
			],
			"type":"VEC3"
		},
		{
			"bufferView":10,
			"componentType":5126,
			"count":163,
			"type":"VEC3"
		},
		{
			"bufferView":11,
			"componentType":5126,
			"count":163,
			"type":"VEC2"
		},
		{
			"bufferView":12,
			"componentType":5121,
			"count":163,
			"type":"VEC4"
		},
		{
			"bufferView":13,
			"componentType":5126,
			"count":163,
			"type":"VEC4"
		},
		{
			"bufferView":14,
			"componentType":5123,
			"count":834,
			"type":"SCALAR"
		},
		{
			"bufferView":15,
			"componentType":5126,
			"count":143,
			"max":[
				3.3910911083221436,
				8.234461784362793,
				3.0538175106048584
			],
			"min":[
				-3.3910911083221436,
				4.183248996734619,
				-0.010359056293964386
			],
			"type":"VEC3"
		},
		{
			"bufferView":16,
			"componentType":5126,
			"count":143,
			"type":"VEC3"
		},
		{
			"bufferView":17,
			"componentType":5126,
			"count":143,
			"type":"VEC2"
		},
		{
			"bufferView":18,
			"componentType":5121,
			"count":143,
			"type":"VEC4"
		},
		{
			"bufferView":19,
			"componentType":5126,
			"count":143,
			"type":"VEC4"
		},
		{
			"bufferView":20,
			"componentType":5123,
			"count":732,
			"type":"SCALAR"
		}
	],
	"bufferViews":[
		{
			"buffer":0,
			"byteLength":10932,
			"byteOffset":0,
			"target":34962
		},
		{
			"buffer":0,
			"byteLength":10932,
			"byteOffset":10932,
			"target":34962
		},
		{
			"buffer":0,
			"byteLength":7288,
			"byteOffset":21864,
			"target":34962
		},
		{
			"buffer":0,
			"byteLength":3644,
			"byteOffset":29152,
			"target":34962
		},
		{
			"buffer":0,
			"byteLength":7288,
			"byteOffset":32796,
			"target":34962
		},
		{
			"buffer":0,
			"byteLength":3644,
			"byteOffset":40084,
			"target":34962
		},
		{
			"buffer":0,
			"byteLength":14576,
			"byteOffset":43728,
			"target":34962
		},
		{
			"buffer":0,
			"byteLength":8448,
			"byteOffset":58304,
			"target":34963
		},
		{
			"buffer":0,
			"byteLength":2176,
			"byteOffset":66752
		},
		{
			"buffer":0,
			"byteLength":1956,
			"byteOffset":68928,
			"target":34962
		},
		{
			"buffer":0,
			"byteLength":1956,
			"byteOffset":70884,
			"target":34962
		},
		{
			"buffer":0,
			"byteLength":1304,
			"byteOffset":72840,
			"target":34962
		},
		{
			"buffer":0,
			"byteLength":652,
			"byteOffset":74144,
			"target":34962
		},
		{
			"buffer":0,
			"byteLength":2608,
			"byteOffset":74796,
			"target":34962
		},
		{
			"buffer":0,
			"byteLength":1668,
			"byteOffset":77404,
			"target":34963
		},
		{
			"buffer":0,
			"byteLength":1716,
			"byteOffset":79072,
			"target":34962
		},
		{
			"buffer":0,
			"byteLength":1716,
			"byteOffset":80788,
			"target":34962
		},
		{
			"buffer":0,
			"byteLength":1144,
			"byteOffset":82504,
			"target":34962
		},
		{
			"buffer":0,
			"byteLength":572,
			"byteOffset":83648,
			"target":34962
		},
		{
			"buffer":0,
			"byteLength":2288,
			"byteOffset":84220,
			"target":34962
		},
		{
			"buffer":0,
			"byteLength":1464,
			"byteOffset":86508,
			"target":34963
		}
	],
	"samplers":[
		{
			"magFilter":9729,
			"minFilter":9987
		}
	],
	"buffers":[
		{
			"byteLength":87972,
			"uri":"Tagir.bin"
		}
	]
}
