{
	"asset":{
		"generator":"Khronos glTF Blender I/O v4.3.47",
		"version":"2.0"
	},
	"scene":0,
	"scenes":[
		{
			"name":"Scene",
			"nodes":[
				2
			]
		}
	],
	"nodes":[
		{
			"name":"Root",
			"rotation":[
				-0.7071067690849304,
				0,
				0,
				0.7071067690849304
			]
		},
		{
			"mesh":0,
			"name":"base_low__mReBody",
			"skin":0
		},
		{
			"children":[
				1,
				0
			],
			"name":"Armature",
			"rotation":[
				0.7071068286895752,
				0,
				0,
				0.7071068286895752
			]
		}
	],
	"materials":[
		{
			"doubleSided":true,
			"name":"mReBody",
			"pbrMetallicRoughness":{
				"baseColorTexture":{
					"index":0
				},
				"metallicFactor":0,
				"roughnessFactor":0.5
			}
		}
	],
	"meshes":[
		{
			"name":"base_low__mReBody",
			"primitives":[
				{
					"attributes":{
						"POSITION":0,
						"NORMAL":1,
						"TEXCOORD_0":2,
						"JOINTS_0":3,
						"WEIGHTS_0":4
					},
					"indices":5,
					"material":0
				}
			]
		}
	],
	"textures":[
		{
			"sampler":0,
			"source":0
		}
	],
	"images":[
		{
			"mimeType":"image/png",
			"name":"mReBody_Alb",
			"uri":"mReBody_Alb.png"
		}
	],
	"skins":[
		{
			"inverseBindMatrices":6,
			"joints":[
				0
			],
			"name":"Armature"
		}
	],
	"accessors":[
		{
			"bufferView":0,
			"componentType":5126,
			"count":1255,
			"max":[
				9.953914642333984,
				11.047629356384277,
				9.223483085632324
			],
			"min":[
				-9.95358943939209,
				-6.51964569442498e-07,
				-9.223484992980957
			],
			"type":"VEC3"
		},
		{
			"bufferView":1,
			"componentType":5126,
			"count":1255,
			"type":"VEC3"
		},
		{
			"bufferView":2,
			"componentType":5126,
			"count":1255,
			"type":"VEC2"
		},
		{
			"bufferView":3,
			"componentType":5121,
			"count":1255,
			"type":"VEC4"
		},
		{
			"bufferView":4,
			"componentType":5126,
			"count":1255,
			"type":"VEC4"
		},
		{
			"bufferView":5,
			"componentType":5123,
			"count":5904,
			"type":"SCALAR"
		},
		{
			"bufferView":6,
			"componentType":5126,
			"count":1,
			"type":"MAT4"
		}
	],
	"bufferViews":[
		{
			"buffer":0,
			"byteLength":15060,
			"byteOffset":0,
			"target":34962
		},
		{
			"buffer":0,
			"byteLength":15060,
			"byteOffset":15060,
			"target":34962
		},
		{
			"buffer":0,
			"byteLength":10040,
			"byteOffset":30120,
			"target":34962
		},
		{
			"buffer":0,
			"byteLength":5020,
			"byteOffset":40160,
			"target":34962
		},
		{
			"buffer":0,
			"byteLength":20080,
			"byteOffset":45180,
			"target":34962
		},
		{
			"buffer":0,
			"byteLength":11808,
			"byteOffset":65260,
			"target":34963
		},
		{
			"buffer":0,
			"byteLength":64,
			"byteOffset":77068
		}
	],
	"samplers":[
		{
			"magFilter":9729,
			"minFilter":9987
		}
	],
	"buffers":[
		{
			"byteLength":77132,
			"uri":"untitled.bin"
		}
	]
}
