{
	"asset":{
		"generator":"Khronos glTF Blender I/O v4.3.47",
		"version":"2.0"
	},
	"scene":0,
	"scenes":[
		{
			"name":"Scene",
			"nodes":[
				42
			]
		}
	],
	"nodes":[
		{
			"name":"Far_B",
			"rotation":[
				0,
				1,
				0,
				7.549789415861596e-08
			],
			"translation":[
				2.6624162197113037,
				0.38623449206352234,
				-2.79124407143172e-07
			]
		},
		{
			"name":"Far_L",
			"rotation":[
				1.4973565741681968e-22,
				0.70710688829422,
				0,
				0.7071066498756409
			],
			"translation":[
				-3.261172309976246e-08,
				0.11668133735656738,
				2.844663381576538
			]
		},
		{
			"name":"Far_LF",
			"rotation":[
				0,
				-0.9743590950965881,
				-9.115515527257788e-16,
				0.22499880194664001
			],
			"scale":[
				0.9999999403953552,
				1,
				0.9999999403953552
			],
			"translation":[
				-2.256690740585327,
				-0.014021567068994045,
				1.5758609771728516
			]
		},
		{
			"name":"Far_R",
			"rotation":[
				0,
				-0.7071066498756409,
				0,
				0.70710688829422
			],
			"translation":[
				4.6521023477907875e-08,
				0.11667799949645996,
				-2.844660758972168
			]
		},
		{
			"name":"Far_RF",
			"rotation":[
				0,
				0.9743591547012329,
				0,
				0.22499841451644897
			],
			"translation":[
				-2.2566943168640137,
				-0.014018467627465725,
				-1.5758557319641113
			]
		},
		{
			"name":"Hand_L",
			"rotation":[
				-1.7763568394002505e-15,
				0,
				2.117582368135751e-22,
				1
			],
			"translation":[
				0.6230841279029846,
				4.3959022377748624e-07,
				0.4933498799800873
			]
		},
		{
			"children":[
				5
			],
			"name":"Wrist_L",
			"rotation":[
				-1.7763568394002505e-15,
				0,
				2.117582368135751e-22,
				1
			],
			"translation":[
				0.7536411285400391,
				-4.76837158203125e-07,
				6.812840069869708e-08
			]
		},
		{
			"children":[
				6
			],
			"name":"Arm_2_L",
			"rotation":[
				-1.7763568394002505e-15,
				0,
				2.117582368135751e-22,
				1
			],
			"translation":[
				0.6704978942871094,
				4.7683712978141557e-07,
				6.061247859179275e-08
			]
		},
		{
			"children":[
				7
			],
			"name":"Arm_1_L_Sub",
			"rotation":[
				-1.7763568394002505e-15,
				0,
				2.117582368135751e-22,
				1
			],
			"translation":[
				0.6984419822692871,
				-4.76837158203125e-07,
				6.313867118024064e-08
			]
		},
		{
			"children":[
				8
			],
			"name":"Arm_1_L",
			"rotation":[
				-1.7763568394002505e-15,
				4.960654109709139e-10,
				2.117582368135751e-22,
				1
			],
			"translation":[
				0.5277221202850342,
				4.76837158203125e-07,
				4.718205204312653e-08
			]
		},
		{
			"children":[
				9
			],
			"name":"Clavicle_L",
			"rotation":[
				-2.5121476791422227e-15,
				-0.7071067094802856,
				2.9947134007718833e-22,
				0.7071068286895752
			],
			"translation":[
				9.32381283291761e-09,
				0.6984395980834961,
				2.322695016860962
			]
		},
		{
			"name":"Hand_R",
			"rotation":[
				-1.7763568394002505e-15,
				0,
				-2.117582368135751e-22,
				1
			],
			"translation":[
				-0.6230002045631409,
				4.3961679807580367e-07,
				0.49299997091293335
			]
		},
		{
			"children":[
				11
			],
			"name":"Wrist_R",
			"rotation":[
				-1.7763568394002505e-15,
				0,
				-2.117582368135751e-22,
				1
			],
			"translation":[
				-0.7536401748657227,
				4.768372718899627e-07,
				-2.1337211819627555e-07
			]
		},
		{
			"children":[
				12
			],
			"name":"Arm_2_R",
			"rotation":[
				-1.7763568394002505e-15,
				0,
				-2.117582368135751e-22,
				1
			],
			"translation":[
				-0.670499324798584,
				9.536744300930877e-07,
				-1.8983314475917723e-07
			]
		},
		{
			"children":[
				13
			],
			"name":"Arm_1_R_Sub",
			"rotation":[
				-1.7763568394002505e-15,
				0,
				-2.117582368135751e-22,
				1
			],
			"translation":[
				-0.6984403133392334,
				4.768372718899627e-07,
				-1.977438728317793e-07
			]
		},
		{
			"children":[
				14
			],
			"name":"Arm_1_R",
			"rotation":[
				-1.7763568394002505e-15,
				9.177639981317043e-09,
				-2.117582368135751e-22,
				1
			],
			"translation":[
				-0.5277304649353027,
				4.768372718899627e-07,
				-1.3972538681628066e-07
			]
		},
		{
			"children":[
				15
			],
			"name":"Clavicle_R",
			"rotation":[
				-2.512147467383986e-15,
				-0.7071066498756409,
				-2.9947131483363936e-22,
				0.70710688829422
			],
			"translation":[
				7.393641965336428e-08,
				0.6984372138977051,
				-2.32269024848938
			]
		},
		{
			"name":"Feel",
			"rotation":[
				0,
				-5.048709793414476e-29,
				0,
				1
			],
			"translation":[
				8.932858008847688e-08,
				1.4986858367919922,
				3.126502008399257e-07
			]
		},
		{
			"children":[
				17
			],
			"name":"Head",
			"rotation":[
				0,
				7.105427357601002e-15,
				0,
				1
			],
			"translation":[
				6.811256270111699e-08,
				1.1427392959594727,
				2.383940795880335e-07
			]
		},
		{
			"children":[
				18
			],
			"name":"Neck",
			"rotation":[
				4.235164736271502e-22,
				2.524354896707238e-29,
				-1.7763568394002505e-15,
				1
			],
			"translation":[
				7.191919593196872e-08,
				1.2066049575805664,
				2.517168979920825e-07
			]
		},
		{
			"children":[
				10,
				16,
				19
			],
			"name":"Spine_3",
			"rotation":[
				0,
				2.524354896707238e-29,
				0,
				1
			],
			"scale":[
				1,
				0.9999999403953552,
				1
			],
			"translation":[
				7.480342389953876e-08,
				1.2549934387207031,
				2.618120049646677e-07
			]
		},
		{
			"children":[
				20
			],
			"name":"Spine_2",
			"rotation":[
				0,
				-7.105427357601002e-15,
				0,
				1
			],
			"translation":[
				6.781640848885218e-08,
				1.1377694606781006,
				2.3735709930861049e-07
			]
		},
		{
			"children":[
				0,
				1,
				2,
				3,
				4,
				21
			],
			"name":"Spine_1",
			"rotation":[
				0,
				0.7071066498756409,
				0,
				0.70710688829422
			],
			"translation":[
				0,
				1.9984014443252818e-14,
				-3.3881317890172014e-21
			]
		},
		{
			"name":"Toe_L",
			"rotation":[
				-4.235165241142481e-22,
				5.048709793414476e-29,
				0,
				1
			],
			"scale":[
				1,
				0.9999999403953552,
				1
			],
			"translation":[
				0.4348754286766052,
				-0.13790032267570496,
				-3.7304634048496155e-08
			]
		},
		{
			"children":[
				23
			],
			"name":"Ankle_L",
			"rotation":[
				0,
				0,
				1.7763568394002505e-15,
				1
			],
			"translation":[
				-0.004227709956467152,
				-0.6734622120857239,
				-1.2197800458579877e-07
			]
		},
		{
			"children":[
				24
			],
			"name":"Leg_2_L_Sub",
			"rotation":[
				-4.235164736271502e-22,
				0,
				1.7763568394002505e-15,
				1
			],
			"translation":[
				0.0013091021683067083,
				-0.21710216999053955,
				-1.9455519417732603e-09
			]
		},
		{
			"children":[
				25
			],
			"name":"Leg_2_L",
			"rotation":[
				-4.235164736271502e-22,
				0,
				1.7763568394002505e-15,
				1
			],
			"translation":[
				0.0040328544564545155,
				-1.0762580633163452,
				-2.406190162673738e-07
			]
		},
		{
			"children":[
				26
			],
			"name":"Leg_1_L_Sub",
			"scale":[
				1,
				0.9999999403953552,
				1
			],
			"translation":[
				-0.001000297605060041,
				-0.5529701709747314,
				-1.2219496170473576e-07
			]
		},
		{
			"children":[
				27
			],
			"name":"Leg_1_L",
			"rotation":[
				-4.235164736271502e-22,
				-5.960464477539063e-08,
				0,
				1
			],
			"translation":[
				-0.014333482831716537,
				-0.6082103252410889,
				-1.1846386194229126
			]
		},
		{
			"name":"Toe_R",
			"rotation":[
				0,
				1,
				-5.29395781360555e-23,
				7.549789415861596e-08
			],
			"scale":[
				1,
				0.9999997019767761,
				1
			],
			"translation":[
				0.43487510085105896,
				-0.13790097832679749,
				-1.3759674288849055e-07
			]
		},
		{
			"children":[
				29
			],
			"name":"Ankle_R",
			"rotation":[
				5.293955920339377e-23,
				0,
				1.7763568394002505e-15,
				1
			],
			"translation":[
				-0.004227647557854652,
				-0.6734620928764343,
				-1.1858774939810246e-07
			]
		},
		{
			"children":[
				30
			],
			"name":"Leg_2_R_Sub",
			"rotation":[
				5.293955920339377e-23,
				0,
				1.7763568394002505e-15,
				1
			],
			"translation":[
				0.0013091439614072442,
				-0.21709918975830078,
				4.3674086569467363e-10
			]
		},
		{
			"children":[
				31
			],
			"name":"Leg_2_R",
			"rotation":[
				5.293955920339377e-23,
				0,
				1.7763568394002505e-15,
				1
			],
			"translation":[
				0.004032897297292948,
				-1.0762654542922974,
				-2.3792460979166208e-07
			]
		},
		{
			"children":[
				32
			],
			"name":"Leg_1_R_Sub",
			"rotation":[
				-6.310887241768095e-30,
				-1.0658141036401503e-14,
				0,
				1
			],
			"scale":[
				1,
				0.9999999403953552,
				1
			],
			"translation":[
				-0.0010001850314438343,
				-0.5529632568359375,
				-1.185390416935661e-07
			]
		},
		{
			"children":[
				33
			],
			"name":"Leg_1_R",
			"rotation":[
				-4.235164736271502e-22,
				-1.7881392011531716e-07,
				0,
				1
			],
			"translation":[
				-0.014333696104586124,
				-0.6082131862640381,
				1.184639811515808
			]
		},
		{
			"children":[
				28,
				34
			],
			"name":"Waist",
			"rotation":[
				0,
				-0.7071066498756409,
				0,
				0.70710688829422
			],
			"translation":[
				0,
				2.3841860752327193e-07,
				-2.8421712818535796e-14
			]
		},
		{
			"children":[
				22,
				35
			],
			"name":"Skl_Root",
			"translation":[
				0,
				3.5411436557769775,
				0
			]
		},
		{
			"children":[
				36
			],
			"name":"Trans_Root",
			"translation":[
				0,
				-2.9802322387695312e-08,
				0
			]
		},
		{
			"children":[
				37
			],
			"name":"Root",
			"rotation":[
				-0.7071067690849304,
				0,
				0,
				0.7071067690849304
			],
			"scale":[
				1,
				0.9999999403953552,
				1
			]
		},
		{
			"mesh":0,
			"name":"Arm__mBody",
			"skin":0
		},
		{
			"mesh":1,
			"name":"Face__mEye",
			"skin":0
		},
		{
			"mesh":2,
			"name":"Face__mMouth",
			"skin":0
		},
		{
			"children":[
				39,
				40,
				41,
				38
			],
			"name":"Armature",
			"rotation":[
				0.7071068286895752,
				0,
				0,
				0.7071068286895752
			]
		}
	],
	"materials":[
		{
			"doubleSided":true,
			"name":"mBody.011",
			"pbrMetallicRoughness":{
				"baseColorTexture":{
					"index":0
				},
				"metallicFactor":0,
				"roughnessFactor":0.5
			}
		},
		{
			"doubleSided":true,
			"name":"mEye.011",
			"pbrMetallicRoughness":{
				"baseColorTexture":{
					"index":1
				},
				"metallicFactor":0,
				"roughnessFactor":0.5
			}
		},
		{
			"doubleSided":true,
			"name":"mMouth.008",
			"pbrMetallicRoughness":{
				"baseColorTexture":{
					"index":2
				},
				"metallicFactor":0,
				"roughnessFactor":0.5
			}
		}
	],
	"meshes":[
		{
			"name":"Arm__mBody",
			"primitives":[
				{
					"attributes":{
						"POSITION":0,
						"NORMAL":1,
						"TEXCOORD_0":2,
						"COLOR_0":3,
						"COLOR_1":4,
						"JOINTS_0":5,
						"WEIGHTS_0":6
					},
					"indices":7,
					"material":0
				}
			]
		},
		{
			"name":"Face__mEye",
			"primitives":[
				{
					"attributes":{
						"POSITION":9,
						"NORMAL":10,
						"TEXCOORD_0":11,
						"COLOR_0":12,
						"COLOR_1":13,
						"JOINTS_0":14,
						"WEIGHTS_0":15
					},
					"indices":16,
					"material":1
				}
			]
		},
		{
			"name":"Face__mMouth",
			"primitives":[
				{
					"attributes":{
						"POSITION":17,
						"NORMAL":18,
						"TEXCOORD_0":19,
						"COLOR_0":20,
						"COLOR_1":21,
						"JOINTS_0":22,
						"WEIGHTS_0":23
					},
					"indices":24,
					"material":2
				}
			]
		}
	],
	"textures":[
		{
			"sampler":0,
			"source":0
		},
		{
			"sampler":0,
			"source":1
		},
		{
			"sampler":0,
			"source":2
		}
	],
	"images":[
		{
			"mimeType":"image/png",
			"name":"mBody_Alb",
			"uri":"mBody_Alb.png"
		},
		{
			"mimeType":"image/png",
			"name":"mEye_Alb.0",
			"uri":"mEye_Alb_0.png"
		},
		{
			"mimeType":"image/png",
			"name":"mMouth_Alb.0",
			"uri":"mMouth_Alb_0.png"
		}
	],
	"skins":[
		{
			"inverseBindMatrices":8,
			"joints":[
				38,
				37,
				36,
				22,
				0,
				1,
				2,
				3,
				4,
				21,
				20,
				10,
				9,
				8,
				7,
				6,
				5,
				16,
				15,
				14,
				13,
				12,
				11,
				19,
				18,
				17,
				35,
				28,
				27,
				26,
				25,
				24,
				23,
				34,
				33,
				32,
				31,
				30,
				29
			],
			"name":"Armature"
		}
	],
	"accessors":[
		{
			"bufferView":0,
			"componentType":5126,
			"count":3140,
			"max":[
				5.6397809982299805,
				12.585969924926758,
				4.608885288238525
			],
			"min":[
				-5.6397809982299805,
				-0.03663105517625809,
				-3.8690412044525146
			],
			"type":"VEC3"
		},
		{
			"bufferView":1,
			"componentType":5126,
			"count":3140,
			"type":"VEC3"
		},
		{
			"bufferView":2,
			"componentType":5126,
			"count":3140,
			"type":"VEC2"
		},
		{
			"bufferView":3,
			"componentType":5121,
			"count":3140,
			"normalized":true,
			"type":"VEC4"
		},
		{
			"bufferView":4,
			"componentType":5123,
			"count":3140,
			"normalized":true,
			"type":"VEC4"
		},
		{
			"bufferView":5,
			"componentType":5121,
			"count":3140,
			"type":"VEC4"
		},
		{
			"bufferView":6,
			"componentType":5126,
			"count":3140,
			"type":"VEC4"
		},
		{
			"bufferView":7,
			"componentType":5123,
			"count":14376,
			"type":"SCALAR"
		},
		{
			"bufferView":8,
			"componentType":5126,
			"count":39,
			"type":"MAT4"
		},
		{
			"bufferView":9,
			"componentType":5126,
			"count":140,
			"max":[
				2.2969110012054443,
				12.579469680786133,
				4.2209930419921875
			],
			"min":[
				-2.2969110012054443,
				9.264427185058594,
				0.5486014485359192
			],
			"type":"VEC3"
		},
		{
			"bufferView":10,
			"componentType":5126,
			"count":140,
			"type":"VEC3"
		},
		{
			"bufferView":11,
			"componentType":5126,
			"count":140,
			"type":"VEC2"
		},
		{
			"bufferView":12,
			"componentType":5121,
			"count":140,
			"normalized":true,
			"type":"VEC4"
		},
		{
			"bufferView":13,
			"componentType":5123,
			"count":140,
			"normalized":true,
			"type":"VEC4"
		},
		{
			"bufferView":14,
			"componentType":5121,
			"count":140,
			"type":"VEC4"
		},
		{
			"bufferView":15,
			"componentType":5126,
			"count":140,
			"type":"VEC4"
		},
		{
			"bufferView":16,
			"componentType":5123,
			"count":630,
			"type":"SCALAR"
		},
		{
			"bufferView":17,
			"componentType":5126,
			"count":103,
			"max":[
				2.2969110012054443,
				11.195260047912598,
				5.125742435455322
			],
			"min":[
				-2.2969110012054443,
				8.225713729858398,
				2.5426952838897705
			],
			"type":"VEC3"
		},
		{
			"bufferView":18,
			"componentType":5126,
			"count":103,
			"type":"VEC3"
		},
		{
			"bufferView":19,
			"componentType":5126,
			"count":103,
			"type":"VEC2"
		},
		{
			"bufferView":20,
			"componentType":5121,
			"count":103,
			"normalized":true,
			"type":"VEC4"
		},
		{
			"bufferView":21,
			"componentType":5123,
			"count":103,
			"normalized":true,
			"type":"VEC4"
		},
		{
			"bufferView":22,
			"componentType":5121,
			"count":103,
			"type":"VEC4"
		},
		{
			"bufferView":23,
			"componentType":5126,
			"count":103,
			"type":"VEC4"
		},
		{
			"bufferView":24,
			"componentType":5123,
			"count":522,
			"type":"SCALAR"
		}
	],
	"bufferViews":[
		{
			"buffer":0,
			"byteLength":37680,
			"byteOffset":0,
			"target":34962
		},
		{
			"buffer":0,
			"byteLength":37680,
			"byteOffset":37680,
			"target":34962
		},
		{
			"buffer":0,
			"byteLength":25120,
			"byteOffset":75360,
			"target":34962
		},
		{
			"buffer":0,
			"byteLength":12560,
			"byteOffset":100480,
			"target":34962
		},
		{
			"buffer":0,
			"byteLength":25120,
			"byteOffset":113040,
			"target":34962
		},
		{
			"buffer":0,
			"byteLength":12560,
			"byteOffset":138160,
			"target":34962
		},
		{
			"buffer":0,
			"byteLength":50240,
			"byteOffset":150720,
			"target":34962
		},
		{
			"buffer":0,
			"byteLength":28752,
			"byteOffset":200960,
			"target":34963
		},
		{
			"buffer":0,
			"byteLength":2496,
			"byteOffset":229712
		},
		{
			"buffer":0,
			"byteLength":1680,
			"byteOffset":232208,
			"target":34962
		},
		{
			"buffer":0,
			"byteLength":1680,
			"byteOffset":233888,
			"target":34962
		},
		{
			"buffer":0,
			"byteLength":1120,
			"byteOffset":235568,
			"target":34962
		},
		{
			"buffer":0,
			"byteLength":560,
			"byteOffset":236688,
			"target":34962
		},
		{
			"buffer":0,
			"byteLength":1120,
			"byteOffset":237248,
			"target":34962
		},
		{
			"buffer":0,
			"byteLength":560,
			"byteOffset":238368,
			"target":34962
		},
		{
			"buffer":0,
			"byteLength":2240,
			"byteOffset":238928,
			"target":34962
		},
		{
			"buffer":0,
			"byteLength":1260,
			"byteOffset":241168,
			"target":34963
		},
		{
			"buffer":0,
			"byteLength":1236,
			"byteOffset":242428,
			"target":34962
		},
		{
			"buffer":0,
			"byteLength":1236,
			"byteOffset":243664,
			"target":34962
		},
		{
			"buffer":0,
			"byteLength":824,
			"byteOffset":244900,
			"target":34962
		},
		{
			"buffer":0,
			"byteLength":412,
			"byteOffset":245724,
			"target":34962
		},
		{
			"buffer":0,
			"byteLength":824,
			"byteOffset":246136,
			"target":34962
		},
		{
			"buffer":0,
			"byteLength":412,
			"byteOffset":246960,
			"target":34962
		},
		{
			"buffer":0,
			"byteLength":1648,
			"byteOffset":247372,
			"target":34962
		},
		{
			"buffer":0,
			"byteLength":1044,
			"byteOffset":249020,
			"target":34963
		}
	],
	"samplers":[
		{
			"magFilter":9729,
			"minFilter":9987
		}
	],
	"buffers":[
		{
			"byteLength":250064,
			"uri":"AnyaHaustova.bin"
		}
	]
}
