{
	"asset":{
		"generator":"Khronos glTF Blender I/O v4.3.47",
		"version":"2.0"
	},
	"scene":0,
	"scenes":[
		{
			"name":"Scene",
			"nodes":[
				56
			]
		}
	],
	"nodes":[
		{
			"name":"FaceBad",
			"translation":[
				0,
				8.804943084716797,
				-0.16681960225105286
			]
		},
		{
			"name":"FaceGood",
			"translation":[
				0,
				8.804943084716797,
				-0.16681960225105286
			]
		},
		{
			"name":"FaceNothing",
			"translation":[
				0,
				8.804943084716797,
				-0.16681960225105286
			]
		},
		{
			"children":[
				0,
				1,
				2
			],
			"name":"Mdl_Root"
		},
		{
			"name":"Hand_L",
			"translation":[
				0.406799852848053,
				-4.432347111560375e-08,
				0.5870819687843323
			]
		},
		{
			"children":[
				4
			],
			"name":"Wrist_L",
			"translation":[
				1.4600002765655518,
				-1.1546319456101628e-14,
				1.3198271631154057e-07
			]
		},
		{
			"children":[
				5
			],
			"name":"Arm_2_L",
			"translation":[
				1.0530004501342773,
				1.1546319456101628e-14,
				9.519010291114682e-08
			]
		},
		{
			"children":[
				6
			],
			"name":"Arm_1_L_Sub",
			"translation":[
				0.9750000238418579,
				2.7533531010703882e-14,
				8.813917418137862e-08
			]
		},
		{
			"children":[
				7
			],
			"name":"Arm_1_L",
			"rotation":[
				0,
				4.960618582572351e-10,
				0,
				1
			],
			"translation":[
				0.875000536441803,
				-0.16847610473632812,
				8.82731114870694e-08
			]
		},
		{
			"children":[
				8
			],
			"name":"Clavicle_L",
			"rotation":[
				0,
				-0.7071067094802856,
				0,
				0.7071068286895752
			],
			"translation":[
				6.38105248640386e-08,
				1.1706218719482422,
				0.42878520488739014
			]
		},
		{
			"name":"Hand_R",
			"translation":[
				-0.4070001542568207,
				-4.4317150837969166e-08,
				0.5870000123977661
			]
		},
		{
			"children":[
				10
			],
			"name":"Wrist_R",
			"translation":[
				-1.4600005149841309,
				1.2079226507921703e-13,
				-4.133581796850194e-07
			]
		},
		{
			"children":[
				11
			],
			"name":"Arm_2_R",
			"translation":[
				-1.0526456832885742,
				1.0480505352461478e-13,
				-2.9802717449456395e-07
			]
		},
		{
			"children":[
				12
			],
			"name":"Arm_1_R_Sub",
			"translation":[
				-0.9750003814697266,
				9.325873406851315e-14,
				-2.7604409069681424e-07
			]
		},
		{
			"children":[
				13
			],
			"name":"Arm_1_R",
			"rotation":[
				0,
				9.177639981317043e-09,
				0,
				1
			],
			"translation":[
				-0.8754518032073975,
				-0.16847705841064453,
				-2.4710132606742263e-07
			]
		},
		{
			"children":[
				14
			],
			"name":"Clavicle_R",
			"rotation":[
				0,
				-0.7071066498756409,
				0,
				0.70710688829422
			],
			"translation":[
				7.573838445296133e-08,
				1.1706256866455078,
				-0.4287847876548767
			]
		},
		{
			"name":"Z_Ear_L",
			"translation":[
				-0.6190613508224487,
				3.319120407104492,
				0.3100006580352783
			]
		},
		{
			"children":[
				16
			],
			"name":"Ear_1_L",
			"translation":[
				0.688898503780365,
				5.419615745544434,
				1.500001311302185
			]
		},
		{
			"name":"Z_Ear_R",
			"rotation":[
				0,
				-3.552713678800501e-15,
				0,
				1
			],
			"translation":[
				-0.6189168691635132,
				3.319117546081543,
				-0.30999934673309326
			]
		},
		{
			"children":[
				18
			],
			"name":"Ear_1_R",
			"rotation":[
				0,
				1.1920928955078125e-07,
				0,
				1
			],
			"translation":[
				0.688898503780365,
				5.419595718383789,
				-1.4999995231628418
			]
		},
		{
			"name":"Mouth",
			"rotation":[
				0,
				-1,
				0,
				1.9470718370939721e-07
			],
			"translation":[
				-1.9375203847885132,
				1.3000057935714722,
				5.329652594809886e-07
			]
		},
		{
			"name":"Mouth_U",
			"rotation":[
				0,
				-1,
				0,
				1.9470718370939721e-07
			],
			"translation":[
				-4.90000057220459,
				2.100005626678467,
				1.1000969379892922e-06
			]
		},
		{
			"children":[
				20,
				21
			],
			"name":"FaceRoot",
			"translation":[
				9.282844133130796e-15,
				7.460698725481052e-14,
				5.419118929636535e-14
			]
		},
		{
			"name":"Feel",
			"rotation":[
				0,
				-0.7071066498756409,
				0,
				0.70710688829422
			],
			"translation":[
				1.7285363185237657e-07,
				2.90000057220459,
				6.049871217328473e-07
			]
		},
		{
			"children":[
				17,
				19,
				22,
				23
			],
			"name":"Head",
			"translation":[
				2.4605080639616972e-08,
				0.41280555725097656,
				8.611760904386756e-08
			]
		},
		{
			"children":[
				24
			],
			"name":"Neck",
			"translation":[
				9.43134708109028e-08,
				1.5823163986206055,
				3.3009712296916405e-07
			]
		},
		{
			"children":[
				9,
				15,
				25
			],
			"name":"Spine_3",
			"translation":[
				9.331163397519049e-08,
				1.5655078887939453,
				3.265903671945125e-07
			]
		},
		{
			"children":[
				26
			],
			"name":"Spine_2",
			"translation":[
				9.333476924666684e-08,
				1.5658974647521973,
				3.266715680183552e-07
			]
		},
		{
			"children":[
				27
			],
			"name":"Spine_1",
			"rotation":[
				0,
				0.7071066498756409,
				0,
				0.70710688829422
			],
			"translation":[
				0,
				-4.7683712978141557e-07,
				0
			]
		},
		{
			"name":"Toe_L",
			"translation":[
				0.5503665208816528,
				-0.29853808879852295,
				-1.2045407338234781e-08
			]
		},
		{
			"children":[
				29
			],
			"name":"Ankle_L",
			"translation":[
				1.841907578636892e-05,
				-0.9515715837478638,
				-2.3841501217702898e-07
			]
		},
		{
			"children":[
				30
			],
			"name":"Leg_2_L_Sub",
			"translation":[
				1.827669393605902e-08,
				-0.3066319227218628,
				-5.960465898624534e-08
			]
		},
		{
			"children":[
				31
			],
			"name":"Leg_2_L",
			"translation":[
				9.091516517401033e-08,
				-1.5253013372421265,
				-2.9802325229866256e-07
			]
		},
		{
			"children":[
				32
			],
			"name":"Leg_1_L_Sub",
			"rotation":[
				0,
				-5.960464477539063e-08,
				0,
				1
			],
			"translation":[
				3.0466537737083854e-08,
				-0.5111427307128906,
				-2.98023280720372e-07
			]
		},
		{
			"children":[
				33
			],
			"name":"Leg_1_L",
			"translation":[
				9.545175316816312e-08,
				0.11046338081359863,
				-0.9690000414848328
			]
		},
		{
			"name":"Toe_R",
			"rotation":[
				0,
				1,
				0,
				7.549789415861596e-08
			],
			"translation":[
				0.5503665804862976,
				-0.29853737354278564,
				-2.624767034831166e-07
			]
		},
		{
			"children":[
				35
			],
			"name":"Ankle_R",
			"translation":[
				1.859836083895061e-05,
				-0.9515753984451294,
				-1.1921012799120945e-07
			]
		},
		{
			"children":[
				36
			],
			"name":"Leg_2_R_Sub",
			"translation":[
				6.457683809912851e-08,
				-0.3066319227218628,
				-5.960467319710006e-08
			]
		},
		{
			"children":[
				37
			],
			"name":"Leg_2_R",
			"translation":[
				3.212290664578177e-07,
				-1.525301456451416,
				-2.9802325229866256e-07
			]
		},
		{
			"children":[
				38
			],
			"name":"Leg_1_R_Sub",
			"rotation":[
				0,
				3.552713678800501e-15,
				0,
				1
			],
			"translation":[
				1.0764662761175714e-07,
				-0.5111415386199951,
				5.960463056453591e-08
			]
		},
		{
			"children":[
				39
			],
			"name":"Leg_1_R",
			"rotation":[
				0,
				-1.7881393432617188e-07,
				0,
				1
			],
			"translation":[
				-1.0867088917621004e-07,
				0.11046528816223145,
				0.9694821834564209
			]
		},
		{
			"name":"Z_Tail",
			"translation":[
				2.3000004291534424,
				-4.7614992126909783e-07,
				-5.849172453054052e-07
			]
		},
		{
			"children":[
				41
			],
			"name":"Tail_2",
			"rotation":[
				0,
				-5.960464477539063e-08,
				0,
				1
			],
			"translation":[
				2.300001621246338,
				-6.497950835182564e-07,
				-3.1073608397491626e-07
			]
		},
		{
			"children":[
				42
			],
			"name":"Tail_1",
			"rotation":[
				0,
				1,
				0,
				1.9470718370939721e-07
			],
			"translation":[
				-1.725000023841858,
				0.4503897428512573,
				-3.447296421654755e-07
			]
		},
		{
			"children":[
				43
			],
			"name":"TailRoot",
			"translation":[
				0,
				2.1760371282653068e-14,
				-6.776263578034403e-21
			]
		},
		{
			"children":[
				34,
				40,
				44
			],
			"name":"Waist",
			"rotation":[
				0,
				-0.7071066498756409,
				0,
				0.70710688829422
			],
			"translation":[
				0,
				-2.3841855067985307e-07,
				0
			]
		},
		{
			"children":[
				28,
				45
			],
			"name":"Skl_Root",
			"translation":[
				0,
				3.8050003051757812,
				0
			]
		},
		{
			"children":[
				46
			],
			"name":"Trans_Root"
		},
		{
			"children":[
				47
			],
			"name":"Root"
		},
		{
			"children":[
				3,
				48
			],
			"name":"nw4f_root",
			"rotation":[
				-0.7071067690849304,
				0,
				0,
				0.7071067690849304
			]
		},
		{
			"mesh":0,
			"name":"Body__mBody",
			"skin":0
		},
		{
			"mesh":1,
			"name":"Body__mCapVis",
			"skin":0
		},
		{
			"mesh":2,
			"name":"Body__mEye",
			"skin":0
		},
		{
			"mesh":3,
			"name":"FaceBad__mBeak",
			"skin":0
		},
		{
			"mesh":4,
			"name":"FaceGood__mBeak",
			"skin":0
		},
		{
			"mesh":5,
			"name":"FaceNothing__mBeak",
			"skin":0
		},
		{
			"children":[
				50,
				51,
				52,
				53,
				54,
				55,
				49
			],
			"name":"Armature",
			"rotation":[
				0.7071068286895752,
				0,
				0,
				0.7071068286895752
			]
		}
	],
	"materials":[
		{
			"doubleSided":true,
			"name":"mBody.013",
			"pbrMetallicRoughness":{
				"baseColorTexture":{
					"index":0
				},
				"metallicFactor":0,
				"roughnessFactor":0.5
			}
		},
		{
			"doubleSided":true,
			"name":"mCapVis.006",
			"pbrMetallicRoughness":{
				"baseColorTexture":{
					"index":1
				},
				"metallicFactor":0,
				"roughnessFactor":0.5
			}
		},
		{
			"doubleSided":true,
			"name":"mEye.013",
			"pbrMetallicRoughness":{
				"baseColorTexture":{
					"index":2
				},
				"metallicFactor":0,
				"roughnessFactor":0.5
			}
		},
		{
			"doubleSided":true,
			"name":"mBeak.004",
			"pbrMetallicRoughness":{
				"baseColorTexture":{
					"index":3
				},
				"metallicFactor":0,
				"roughnessFactor":0.5
			}
		}
	],
	"meshes":[
		{
			"name":"Body__mBody.012",
			"primitives":[
				{
					"attributes":{
						"POSITION":0,
						"NORMAL":1,
						"TEXCOORD_0":2,
						"COLOR_0":3,
						"COLOR_1":4,
						"JOINTS_0":5,
						"WEIGHTS_0":6
					},
					"indices":7,
					"material":0
				}
			]
		},
		{
			"name":"Body__mCapVis.006",
			"primitives":[
				{
					"attributes":{
						"POSITION":9,
						"NORMAL":10,
						"TEXCOORD_0":11,
						"JOINTS_0":12,
						"WEIGHTS_0":13
					},
					"indices":14,
					"material":1
				}
			]
		},
		{
			"name":"Body__mEye.012",
			"primitives":[
				{
					"attributes":{
						"POSITION":15,
						"NORMAL":16,
						"TEXCOORD_0":17,
						"JOINTS_0":18,
						"WEIGHTS_0":19
					},
					"indices":20,
					"material":2
				}
			]
		},
		{
			"name":"FaceBad__mBeak.004",
			"primitives":[
				{
					"attributes":{
						"POSITION":21,
						"NORMAL":22,
						"TEXCOORD_0":23,
						"JOINTS_0":24,
						"WEIGHTS_0":25
					},
					"indices":26,
					"material":3
				}
			]
		},
		{
			"name":"FaceGood__mBeak.004",
			"primitives":[
				{
					"attributes":{
						"POSITION":27,
						"NORMAL":28,
						"TEXCOORD_0":29,
						"JOINTS_0":30,
						"WEIGHTS_0":31
					},
					"indices":32,
					"material":3
				}
			]
		},
		{
			"name":"FaceNothing__mBeak.004",
			"primitives":[
				{
					"attributes":{
						"POSITION":33,
						"NORMAL":34,
						"TEXCOORD_0":35,
						"JOINTS_0":36,
						"WEIGHTS_0":37
					},
					"indices":38,
					"material":3
				}
			]
		}
	],
	"textures":[
		{
			"sampler":0,
			"source":0
		},
		{
			"sampler":0,
			"source":0
		},
		{
			"sampler":0,
			"source":1
		},
		{
			"sampler":0,
			"source":2
		}
	],
	"images":[
		{
			"mimeType":"image/png",
			"name":"mBody_Alb",
			"uri":"mBody_Alb.png"
		},
		{
			"mimeType":"image/png",
			"name":"mEye_Alb.0",
			"uri":"mEye_Alb_0.png"
		},
		{
			"mimeType":"image/png",
			"name":"mBeak_Alb",
			"uri":"mBeak_Alb.png"
		}
	],
	"skins":[
		{
			"inverseBindMatrices":8,
			"joints":[
				49,
				3,
				0,
				1,
				2,
				48,
				47,
				46,
				28,
				27,
				26,
				9,
				8,
				7,
				6,
				5,
				4,
				15,
				14,
				13,
				12,
				11,
				10,
				25,
				24,
				17,
				16,
				19,
				18,
				22,
				20,
				21,
				23,
				45,
				34,
				33,
				32,
				31,
				30,
				29,
				40,
				39,
				38,
				37,
				36,
				35,
				44,
				43,
				42,
				41
			],
			"name":"Armature"
		}
	],
	"accessors":[
		{
			"bufferView":0,
			"componentType":5126,
			"count":1557,
			"max":[
				5.7170329093933105,
				14.857909202575684,
				1.9724936485290527
			],
			"min":[
				-5.7170329093933105,
				-4.150218657628102e-08,
				-6.613466262817383
			],
			"type":"VEC3"
		},
		{
			"bufferView":1,
			"componentType":5126,
			"count":1557,
			"type":"VEC3"
		},
		{
			"bufferView":2,
			"componentType":5126,
			"count":1557,
			"type":"VEC2"
		},
		{
			"bufferView":3,
			"componentType":5121,
			"count":1557,
			"normalized":true,
			"type":"VEC4"
		},
		{
			"bufferView":4,
			"componentType":5123,
			"count":1557,
			"normalized":true,
			"type":"VEC4"
		},
		{
			"bufferView":5,
			"componentType":5121,
			"count":1557,
			"type":"VEC4"
		},
		{
			"bufferView":6,
			"componentType":5126,
			"count":1557,
			"type":"VEC4"
		},
		{
			"bufferView":7,
			"componentType":5123,
			"count":7434,
			"type":"SCALAR"
		},
		{
			"bufferView":8,
			"componentType":5126,
			"count":50,
			"type":"MAT4"
		},
		{
			"bufferView":9,
			"componentType":5126,
			"count":264,
			"max":[
				2.4778521060943604,
				17.60988998413086,
				0.11924818903207779
			],
			"min":[
				-2.4778521060943604,
				14.028009414672852,
				-1.745284080505371
			],
			"type":"VEC3"
		},
		{
			"bufferView":10,
			"componentType":5126,
			"count":264,
			"type":"VEC3"
		},
		{
			"bufferView":11,
			"componentType":5126,
			"count":264,
			"type":"VEC2"
		},
		{
			"bufferView":12,
			"componentType":5121,
			"count":264,
			"type":"VEC4"
		},
		{
			"bufferView":13,
			"componentType":5126,
			"count":264,
			"type":"VEC4"
		},
		{
			"bufferView":14,
			"componentType":5123,
			"count":1248,
			"type":"SCALAR"
		},
		{
			"bufferView":15,
			"componentType":5126,
			"count":196,
			"max":[
				2.9461669921875,
				14.775439262390137,
				3.2899110317230225
			],
			"min":[
				-2.9461669921875,
				11.188719749450684,
				-0.19073115289211273
			],
			"type":"VEC3"
		},
		{
			"bufferView":16,
			"componentType":5126,
			"count":196,
			"type":"VEC3"
		},
		{
			"bufferView":17,
			"componentType":5126,
			"count":196,
			"type":"VEC2"
		},
		{
			"bufferView":18,
			"componentType":5121,
			"count":196,
			"type":"VEC4"
		},
		{
			"bufferView":19,
			"componentType":5126,
			"count":196,
			"type":"VEC4"
		},
		{
			"bufferView":20,
			"componentType":5123,
			"count":1020,
			"type":"SCALAR"
		},
		{
			"bufferView":21,
			"componentType":5126,
			"count":390,
			"max":[
				2.905503988265991,
				12.391940116882324,
				6.166354179382324
			],
			"min":[
				-2.905503988265991,
				8.710941314697266,
				-0.19073115289211273
			],
			"type":"VEC3"
		},
		{
			"bufferView":22,
			"componentType":5126,
			"count":390,
			"type":"VEC3"
		},
		{
			"bufferView":23,
			"componentType":5126,
			"count":390,
			"type":"VEC2"
		},
		{
			"bufferView":24,
			"componentType":5121,
			"count":390,
			"type":"VEC4"
		},
		{
			"bufferView":25,
			"componentType":5126,
			"count":390,
			"type":"VEC4"
		},
		{
			"bufferView":26,
			"componentType":5123,
			"count":1782,
			"type":"SCALAR"
		},
		{
			"bufferView":27,
			"componentType":5126,
			"count":388,
			"max":[
				2.905503988265991,
				12.391940116882324,
				6.166354179382324
			],
			"min":[
				-2.905503988265991,
				8.710941314697266,
				-0.19073115289211273
			],
			"type":"VEC3"
		},
		{
			"bufferView":28,
			"componentType":5126,
			"count":388,
			"type":"VEC3"
		},
		{
			"bufferView":29,
			"componentType":5126,
			"count":388,
			"type":"VEC2"
		},
		{
			"bufferView":30,
			"componentType":5121,
			"count":388,
			"type":"VEC4"
		},
		{
			"bufferView":31,
			"componentType":5126,
			"count":388,
			"type":"VEC4"
		},
		{
			"bufferView":32,
			"componentType":5123,
			"count":1782,
			"type":"SCALAR"
		},
		{
			"bufferView":33,
			"componentType":5126,
			"count":353,
			"max":[
				2.905503988265991,
				12.391940116882324,
				6.166354179382324
			],
			"min":[
				-2.905503988265991,
				8.710941314697266,
				-0.19073115289211273
			],
			"type":"VEC3"
		},
		{
			"bufferView":34,
			"componentType":5126,
			"count":353,
			"type":"VEC3"
		},
		{
			"bufferView":35,
			"componentType":5126,
			"count":353,
			"type":"VEC2"
		},
		{
			"bufferView":36,
			"componentType":5121,
			"count":353,
			"type":"VEC4"
		},
		{
			"bufferView":37,
			"componentType":5126,
			"count":353,
			"type":"VEC4"
		},
		{
			"bufferView":38,
			"componentType":5123,
			"count":1542,
			"type":"SCALAR"
		}
	],
	"bufferViews":[
		{
			"buffer":0,
			"byteLength":18684,
			"byteOffset":0,
			"target":34962
		},
		{
			"buffer":0,
			"byteLength":18684,
			"byteOffset":18684,
			"target":34962
		},
		{
			"buffer":0,
			"byteLength":12456,
			"byteOffset":37368,
			"target":34962
		},
		{
			"buffer":0,
			"byteLength":6228,
			"byteOffset":49824,
			"target":34962
		},
		{
			"buffer":0,
			"byteLength":12456,
			"byteOffset":56052,
			"target":34962
		},
		{
			"buffer":0,
			"byteLength":6228,
			"byteOffset":68508,
			"target":34962
		},
		{
			"buffer":0,
			"byteLength":24912,
			"byteOffset":74736,
			"target":34962
		},
		{
			"buffer":0,
			"byteLength":14868,
			"byteOffset":99648,
			"target":34963
		},
		{
			"buffer":0,
			"byteLength":3200,
			"byteOffset":114516
		},
		{
			"buffer":0,
			"byteLength":3168,
			"byteOffset":117716,
			"target":34962
		},
		{
			"buffer":0,
			"byteLength":3168,
			"byteOffset":120884,
			"target":34962
		},
		{
			"buffer":0,
			"byteLength":2112,
			"byteOffset":124052,
			"target":34962
		},
		{
			"buffer":0,
			"byteLength":1056,
			"byteOffset":126164,
			"target":34962
		},
		{
			"buffer":0,
			"byteLength":4224,
			"byteOffset":127220,
			"target":34962
		},
		{
			"buffer":0,
			"byteLength":2496,
			"byteOffset":131444,
			"target":34963
		},
		{
			"buffer":0,
			"byteLength":2352,
			"byteOffset":133940,
			"target":34962
		},
		{
			"buffer":0,
			"byteLength":2352,
			"byteOffset":136292,
			"target":34962
		},
		{
			"buffer":0,
			"byteLength":1568,
			"byteOffset":138644,
			"target":34962
		},
		{
			"buffer":0,
			"byteLength":784,
			"byteOffset":140212,
			"target":34962
		},
		{
			"buffer":0,
			"byteLength":3136,
			"byteOffset":140996,
			"target":34962
		},
		{
			"buffer":0,
			"byteLength":2040,
			"byteOffset":144132,
			"target":34963
		},
		{
			"buffer":0,
			"byteLength":4680,
			"byteOffset":146172,
			"target":34962
		},
		{
			"buffer":0,
			"byteLength":4680,
			"byteOffset":150852,
			"target":34962
		},
		{
			"buffer":0,
			"byteLength":3120,
			"byteOffset":155532,
			"target":34962
		},
		{
			"buffer":0,
			"byteLength":1560,
			"byteOffset":158652,
			"target":34962
		},
		{
			"buffer":0,
			"byteLength":6240,
			"byteOffset":160212,
			"target":34962
		},
		{
			"buffer":0,
			"byteLength":3564,
			"byteOffset":166452,
			"target":34963
		},
		{
			"buffer":0,
			"byteLength":4656,
			"byteOffset":170016,
			"target":34962
		},
		{
			"buffer":0,
			"byteLength":4656,
			"byteOffset":174672,
			"target":34962
		},
		{
			"buffer":0,
			"byteLength":3104,
			"byteOffset":179328,
			"target":34962
		},
		{
			"buffer":0,
			"byteLength":1552,
			"byteOffset":182432,
			"target":34962
		},
		{
			"buffer":0,
			"byteLength":6208,
			"byteOffset":183984,
			"target":34962
		},
		{
			"buffer":0,
			"byteLength":3564,
			"byteOffset":190192,
			"target":34963
		},
		{
			"buffer":0,
			"byteLength":4236,
			"byteOffset":193756,
			"target":34962
		},
		{
			"buffer":0,
			"byteLength":4236,
			"byteOffset":197992,
			"target":34962
		},
		{
			"buffer":0,
			"byteLength":2824,
			"byteOffset":202228,
			"target":34962
		},
		{
			"buffer":0,
			"byteLength":1412,
			"byteOffset":205052,
			"target":34962
		},
		{
			"buffer":0,
			"byteLength":5648,
			"byteOffset":206464,
			"target":34962
		},
		{
			"buffer":0,
			"byteLength":3084,
			"byteOffset":212112,
			"target":34963
		}
	],
	"samplers":[
		{
			"magFilter":9729,
			"minFilter":9987
		}
	],
	"buffers":[
		{
			"byteLength":215196,
			"uri":"Manas.bin"
		}
	]
}
