{
	"asset":{
		"generator":"Khronos glTF Blender I/O v4.3.47",
		"version":"2.0"
	},
	"scene":0,
	"scenes":[
		{
			"name":"Scene",
			"nodes":[
				47
			]
		}
	],
	"nodes":[
		{
			"name":"Hand_L",
			"translation":[
				0.25245675444602966,
				-5.23955705489243e-08,
				0.6586098074913025
			]
		},
		{
			"children":[
				0
			],
			"name":"Wrist_L",
			"translation":[
				1.5609102249145508,
				-1.4331833426695084e-06,
				1.3927865438745357e-07
			]
		},
		{
			"children":[
				1
			],
			"name":"Arm_2_L",
			"translation":[
				0.8502519130706787,
				2.3815139229554916e-06,
				7.793596523697488e-08
			]
		},
		{
			"children":[
				2
			],
			"name":"Arm_1_L_Sub",
			"translation":[
				0.8502509593963623,
				-2.3868576590757584e-06,
				8.531787898391485e-08
			]
		},
		{
			"children":[
				3
			],
			"name":"Arm_1_L",
			"rotation":[
				0,
				4.960618582572351e-10,
				0,
				1
			],
			"translation":[
				0.5710649490356445,
				-0.6345152854919434,
				8.644755666864512e-08
			]
		},
		{
			"children":[
				4
			],
			"name":"Clavicle_L",
			"rotation":[
				0,
				-0.7071067094802856,
				0,
				0.7071068286895752
			],
			"translation":[
				-0.015646660700440407,
				0.9145617485046387,
				1.976253867149353
			]
		},
		{
			"name":"Hand_R",
			"translation":[
				-0.2520004212856293,
				-5.2395385807813e-08,
				0.6586096882820129
			]
		},
		{
			"children":[
				6
			],
			"name":"Wrist_R",
			"translation":[
				-1.560910701751709,
				-2.6717366097273043e-09,
				-4.4244109176361235e-07
			]
		},
		{
			"children":[
				7
			],
			"name":"Arm_2_R",
			"translation":[
				-0.8502535820007324,
				-4.795089125764207e-07,
				-2.4261623821075773e-07
			]
		},
		{
			"children":[
				8
			],
			"name":"Arm_1_R_Sub",
			"translation":[
				-0.8502511978149414,
				-2.6717623669014756e-09,
				-2.411354103060148e-07
			]
		},
		{
			"children":[
				9
			],
			"name":"Arm_1_R",
			"rotation":[
				0,
				9.177639981317043e-09,
				0,
				1
			],
			"translation":[
				-0.5710654258728027,
				-0.6345176696777344,
				-2.1153147145014373e-07
			]
		},
		{
			"children":[
				10
			],
			"name":"Clavicle_R",
			"rotation":[
				0,
				-0.7071066498756409,
				0,
				0.70710688829422
			],
			"translation":[
				-0.01564660295844078,
				0.9145636558532715,
				-1.97588312625885
			]
		},
		{
			"name":"Z_Ear_L",
			"translation":[
				1.675321340560913,
				0.1813051998615265,
				0.6849334239959717
			]
		},
		{
			"children":[
				12
			],
			"name":"Ear_1_L",
			"translation":[
				1.8871718645095825,
				2.9731476306915283,
				1.7944303750991821
			]
		},
		{
			"name":"Z_Ear_R",
			"rotation":[
				0,
				-3.552713678800501e-15,
				0,
				1
			],
			"translation":[
				1.6753205060958862,
				0.18130043148994446,
				-0.6849297881126404
			]
		},
		{
			"children":[
				14
			],
			"name":"Ear_1_R",
			"rotation":[
				0,
				1.1920928955078125e-07,
				0,
				1
			],
			"translation":[
				1.8871700763702393,
				2.9731876850128174,
				-1.7944302558898926
			]
		},
		{
			"name":"Nose",
			"translation":[
				-1.0471188716110191e-06,
				-2.1271723653626395e-06,
				1.0201441471083261e-12
			]
		},
		{
			"children":[
				16
			],
			"name":"FaceRoot",
			"rotation":[
				0,
				-1,
				0,
				1.9470718370939721e-07
			],
			"translation":[
				-2.8762662410736084,
				3.1914708614349365,
				1.0543835742282681e-06
			]
		},
		{
			"name":"Feel",
			"translation":[
				-0.007502477616071701,
				2.2070722579956055,
				4.614447277617728e-07
			]
		},
		{
			"children":[
				13,
				15,
				17,
				18
			],
			"name":"Head",
			"translation":[
				1.0294027852353338e-08,
				0.20706796646118164,
				4.3197548649231976e-08
			]
		},
		{
			"children":[
				19
			],
			"name":"Neck",
			"translation":[
				-0.015646610409021378,
				1.4800901412963867,
				3.108847579369467e-07
			]
		},
		{
			"children":[
				5,
				11,
				20
			],
			"name":"Spine_3",
			"translation":[
				-0.019743219017982483,
				1.5925359725952148,
				3.348961570281972e-07
			]
		},
		{
			"children":[
				21
			],
			"name":"Spine_2",
			"translation":[
				9.285574975592681e-08,
				1.5578603744506836,
				3.249949145356368e-07
			]
		},
		{
			"children":[
				22
			],
			"name":"Spine_1",
			"rotation":[
				0,
				0.7071066498756409,
				0,
				0.70710688829422
			],
			"translation":[
				1.136869054842518e-13,
				-7.152557373046875e-07,
				2.842170943040401e-14
			]
		},
		{
			"name":"Toe_L",
			"translation":[
				0.29200509190559387,
				-0.1525663286447525,
				-6.229975468841076e-08
			]
		},
		{
			"children":[
				24
			],
			"name":"Ankle_L",
			"translation":[
				3.937967107958684e-08,
				-0.6605492830276489,
				-1.1915524567029934e-07
			]
		},
		{
			"children":[
				25
			],
			"name":"Leg_2_L_Sub",
			"translation":[
				3.922398718714248e-06,
				-0.3877042531967163,
				5.403810732218517e-11
			]
		},
		{
			"children":[
				26
			],
			"name":"Leg_2_L",
			"translation":[
				0.0002738595358096063,
				-0.9717199802398682,
				-2.383653026072352e-07
			]
		},
		{
			"children":[
				27
			],
			"name":"Leg_1_L_Sub",
			"translation":[
				7.01133728853165e-08,
				-1.1763062477111816,
				-2.3841863594498136e-07
			]
		},
		{
			"children":[
				28
			],
			"name":"Leg_1_L",
			"translation":[
				-3.19191713060718e-08,
				0.19372940063476562,
				-1.4646576642990112
			]
		},
		{
			"name":"Toe_R",
			"rotation":[
				0,
				-5.5253509344765916e-05,
				0,
				1
			],
			"translation":[
				0.291427344083786,
				-0.153667151927948,
				-1.318246631853981e-07
			]
		},
		{
			"children":[
				30
			],
			"name":"Ankle_R",
			"translation":[
				-0.002492200583219528,
				-0.6605434417724609,
				-1.1908596775356273e-07
			]
		},
		{
			"children":[
				31
			],
			"name":"Leg_2_R_Sub",
			"translation":[
				-0.0005353651940822601,
				-0.38770365715026855,
				9.536887546346406e-07
			]
		},
		{
			"children":[
				32
			],
			"name":"Leg_2_R",
			"translation":[
				0.00020574293739628047,
				-0.9717202186584473,
				-1.1921018767679925e-06
			]
		},
		{
			"children":[
				33
			],
			"name":"Leg_1_R_Sub",
			"rotation":[
				0,
				3.552713678800501e-15,
				0,
				1
			],
			"translation":[
				2.4773066797934007e-07,
				-1.176307201385498,
				-2.3841860752327193e-07
			]
		},
		{
			"children":[
				34
			],
			"name":"Leg_1_R",
			"rotation":[
				0,
				-1.1920928955078125e-07,
				0,
				1
			],
			"translation":[
				8.784411420492688e-09,
				0.19436430931091309,
				1.4644640684127808
			]
		},
		{
			"name":"Z_Tail",
			"translation":[
				4.110784530639648,
				-1.4900745153427124,
				-7.345676067416207e-07
			]
		},
		{
			"children":[
				36
			],
			"name":"Tail_2",
			"translation":[
				0.8769546747207642,
				0.9536283612251282,
				-4.219621416723385e-07
			]
		},
		{
			"children":[
				37
			],
			"name":"Tail_1",
			"rotation":[
				0,
				1,
				0,
				1.9470718370939721e-07
			],
			"translation":[
				-2.7788960933685303,
				0.7441995143890381,
				-2.2018403456058877e-07
			]
		},
		{
			"children":[
				38
			],
			"name":"TailRoot",
			"translation":[
				-1.0587911840678754e-22,
				1.9095836023552692e-14,
				1.0164395367051604e-20
			]
		},
		{
			"children":[
				29,
				35,
				39
			],
			"name":"Waist",
			"rotation":[
				0,
				-0.7071066498756409,
				0,
				0.70710688829422
			],
			"translation":[
				-1.136869054842518e-13,
				-7.152557373046875e-07,
				2.842170943040401e-14
			]
		},
		{
			"children":[
				23,
				40
			],
			"name":"Skl_Root",
			"translation":[
				0,
				3.365061044692993,
				0
			]
		},
		{
			"children":[
				41
			],
			"name":"Trans_Root"
		},
		{
			"children":[
				42
			],
			"name":"Root",
			"rotation":[
				-0.7071067690849304,
				0,
				0,
				0.7071067690849304
			]
		},
		{
			"mesh":0,
			"name":"Body__mBody",
			"skin":0
		},
		{
			"mesh":1,
			"name":"Body__mCapVis",
			"skin":0
		},
		{
			"mesh":2,
			"name":"Body__mEye",
			"skin":0
		},
		{
			"children":[
				44,
				45,
				46,
				43
			],
			"name":"Armature",
			"rotation":[
				0.7071068286895752,
				0,
				0,
				0.7071068286895752
			]
		}
	],
	"materials":[
		{
			"doubleSided":true,
			"name":"mBody",
			"pbrMetallicRoughness":{
				"baseColorTexture":{
					"index":0
				},
				"metallicFactor":0,
				"roughnessFactor":0.5
			}
		},
		{
			"doubleSided":true,
			"name":"mCapVis",
			"pbrMetallicRoughness":{
				"baseColorTexture":{
					"index":1
				},
				"metallicFactor":0,
				"roughnessFactor":0.5
			}
		},
		{
			"doubleSided":true,
			"name":"mEye",
			"pbrMetallicRoughness":{
				"baseColorTexture":{
					"index":2
				},
				"metallicFactor":0,
				"roughnessFactor":0.5
			}
		}
	],
	"meshes":[
		{
			"name":"Body__mBody",
			"primitives":[
				{
					"attributes":{
						"POSITION":0,
						"NORMAL":1,
						"TEXCOORD_0":2,
						"COLOR_0":3,
						"COLOR_1":4,
						"JOINTS_0":5,
						"WEIGHTS_0":6
					},
					"indices":7,
					"material":0
				}
			]
		},
		{
			"name":"Body__mCapVis",
			"primitives":[
				{
					"attributes":{
						"POSITION":9,
						"NORMAL":10,
						"TEXCOORD_0":11,
						"JOINTS_0":12,
						"WEIGHTS_0":13
					},
					"indices":14,
					"material":1
				}
			]
		},
		{
			"name":"Body__mEye",
			"primitives":[
				{
					"attributes":{
						"POSITION":15,
						"NORMAL":16,
						"TEXCOORD_0":17,
						"JOINTS_0":18,
						"WEIGHTS_0":19
					},
					"indices":20,
					"material":2
				}
			]
		}
	],
	"textures":[
		{
			"sampler":0,
			"source":0
		},
		{
			"sampler":0,
			"source":0
		},
		{
			"sampler":0,
			"source":1
		}
	],
	"images":[
		{
			"mimeType":"image/png",
			"name":"mBody_Alb",
			"uri":"mBody_Alb.png"
		},
		{
			"mimeType":"image/png",
			"name":"mEye_Alb.0",
			"uri":"mEye_Alb_0.png"
		}
	],
	"skins":[
		{
			"inverseBindMatrices":8,
			"joints":[
				43,
				42,
				41,
				23,
				22,
				21,
				5,
				4,
				3,
				2,
				1,
				0,
				11,
				10,
				9,
				8,
				7,
				6,
				20,
				19,
				13,
				12,
				15,
				14,
				17,
				16,
				18,
				40,
				29,
				28,
				27,
				26,
				25,
				24,
				35,
				34,
				33,
				32,
				31,
				30,
				39,
				38,
				37,
				36
			],
			"name":"Armature"
		}
	],
	"accessors":[
		{
			"bufferView":0,
			"componentType":5126,
			"count":1371,
			"max":[
				6.398436069488525,
				12.873379707336426,
				6.4313530921936035
			],
			"min":[
				-6.398438930511475,
				-1.8454176824889146e-05,
				-6.30060338973999
			],
			"type":"VEC3"
		},
		{
			"bufferView":1,
			"componentType":5126,
			"count":1371,
			"type":"VEC3"
		},
		{
			"bufferView":2,
			"componentType":5126,
			"count":1371,
			"type":"VEC2"
		},
		{
			"bufferView":3,
			"componentType":5121,
			"count":1371,
			"normalized":true,
			"type":"VEC4"
		},
		{
			"bufferView":4,
			"componentType":5123,
			"count":1371,
			"normalized":true,
			"type":"VEC4"
		},
		{
			"bufferView":5,
			"componentType":5121,
			"count":1371,
			"type":"VEC4"
		},
		{
			"bufferView":6,
			"componentType":5126,
			"count":1371,
			"type":"VEC4"
		},
		{
			"bufferView":7,
			"componentType":5123,
			"count":6564,
			"type":"SCALAR"
		},
		{
			"bufferView":8,
			"componentType":5126,
			"count":44,
			"type":"MAT4"
		},
		{
			"bufferView":9,
			"componentType":5126,
			"count":396,
			"max":[
				2.710545063018799,
				12.132439613342285,
				-1.592702865600586
			],
			"min":[
				-2.7105720043182373,
				10.491429328918457,
				-3.5406107902526855
			],
			"type":"VEC3"
		},
		{
			"bufferView":10,
			"componentType":5126,
			"count":396,
			"type":"VEC3"
		},
		{
			"bufferView":11,
			"componentType":5126,
			"count":396,
			"type":"VEC2"
		},
		{
			"bufferView":12,
			"componentType":5121,
			"count":396,
			"type":"VEC4"
		},
		{
			"bufferView":13,
			"componentType":5126,
			"count":396,
			"type":"VEC4"
		},
		{
			"bufferView":14,
			"componentType":5123,
			"count":1986,
			"type":"SCALAR"
		},
		{
			"bufferView":15,
			"componentType":5126,
			"count":152,
			"max":[
				2.7107319831848145,
				12.96792984008789,
				2.2944042682647705
			],
			"min":[
				-2.710763931274414,
				10.008599281311035,
				-1.5795608758926392
			],
			"type":"VEC3"
		},
		{
			"bufferView":16,
			"componentType":5126,
			"count":152,
			"type":"VEC3"
		},
		{
			"bufferView":17,
			"componentType":5126,
			"count":152,
			"type":"VEC2"
		},
		{
			"bufferView":18,
			"componentType":5121,
			"count":152,
			"type":"VEC4"
		},
		{
			"bufferView":19,
			"componentType":5126,
			"count":152,
			"type":"VEC4"
		},
		{
			"bufferView":20,
			"componentType":5123,
			"count":750,
			"type":"SCALAR"
		}
	],
	"bufferViews":[
		{
			"buffer":0,
			"byteLength":16452,
			"byteOffset":0,
			"target":34962
		},
		{
			"buffer":0,
			"byteLength":16452,
			"byteOffset":16452,
			"target":34962
		},
		{
			"buffer":0,
			"byteLength":10968,
			"byteOffset":32904,
			"target":34962
		},
		{
			"buffer":0,
			"byteLength":5484,
			"byteOffset":43872,
			"target":34962
		},
		{
			"buffer":0,
			"byteLength":10968,
			"byteOffset":49356,
			"target":34962
		},
		{
			"buffer":0,
			"byteLength":5484,
			"byteOffset":60324,
			"target":34962
		},
		{
			"buffer":0,
			"byteLength":21936,
			"byteOffset":65808,
			"target":34962
		},
		{
			"buffer":0,
			"byteLength":13128,
			"byteOffset":87744,
			"target":34963
		},
		{
			"buffer":0,
			"byteLength":2816,
			"byteOffset":100872
		},
		{
			"buffer":0,
			"byteLength":4752,
			"byteOffset":103688,
			"target":34962
		},
		{
			"buffer":0,
			"byteLength":4752,
			"byteOffset":108440,
			"target":34962
		},
		{
			"buffer":0,
			"byteLength":3168,
			"byteOffset":113192,
			"target":34962
		},
		{
			"buffer":0,
			"byteLength":1584,
			"byteOffset":116360,
			"target":34962
		},
		{
			"buffer":0,
			"byteLength":6336,
			"byteOffset":117944,
			"target":34962
		},
		{
			"buffer":0,
			"byteLength":3972,
			"byteOffset":124280,
			"target":34963
		},
		{
			"buffer":0,
			"byteLength":1824,
			"byteOffset":128252,
			"target":34962
		},
		{
			"buffer":0,
			"byteLength":1824,
			"byteOffset":130076,
			"target":34962
		},
		{
			"buffer":0,
			"byteLength":1216,
			"byteOffset":131900,
			"target":34962
		},
		{
			"buffer":0,
			"byteLength":608,
			"byteOffset":133116,
			"target":34962
		},
		{
			"buffer":0,
			"byteLength":2432,
			"byteOffset":133724,
			"target":34962
		},
		{
			"buffer":0,
			"byteLength":1500,
			"byteOffset":136156,
			"target":34963
		}
	],
	"samplers":[
		{
			"magFilter":9729,
			"minFilter":9987
		}
	],
	"buffers":[
		{
			"byteLength":137656,
			"uri":"NastyaLexa.bin"
		}
	]
}
